<svg width="940" height="221" viewBox="0 0 940 221" fill="none" xmlns="http://www.w3.org/2000/svg">
<path d="M200.6 156.5H120.8V201.4H200.6V156.5Z" fill="url(#paint0_linear_24_682)"></path>
<path d="M21.9 167.9L61.9 98.7999L100.7 121.2L60.8 190.3L21.9 167.9Z" fill="url(#paint1_linear_24_682)"></path>
<path d="M140.8 30.8999L180.7 99.9999L141.9 122.4L102 53.2999L140.8 30.8999Z" fill="url(#paint2_linear_24_682)"></path>
<path d="M41 201.3C53.3712 201.3 63.4 191.271 63.4 178.9C63.4 166.529 53.3712 156.5 41 156.5C28.6288 156.5 18.6 166.529 18.6 178.9C18.6 191.271 28.6288 201.3 41 201.3Z" fill="#F89090"></path>
<path d="M81.4 132.2C93.7712 132.2 103.8 122.171 103.8 109.8C103.8 97.4287 93.7712 87.3999 81.4 87.3999C69.0288 87.3999 59 97.4287 59 109.8C59 122.171 69.0288 132.2 81.4 132.2Z" fill="#F89090"></path>
<path d="M160.6 132.2C172.971 132.2 183 122.171 183 109.8C183 97.4287 172.971 87.3999 160.6 87.3999C148.229 87.3999 138.2 97.4287 138.2 109.8C138.2 122.171 148.229 132.2 160.6 132.2Z" fill="#7101FF"></path>
<path d="M200.7 201.3C213.071 201.3 223.1 191.271 223.1 178.9C223.1 166.529 213.071 156.5 200.7 156.5C188.329 156.5 178.3 166.529 178.3 178.9C178.3 191.271 188.329 201.3 200.7 201.3Z" fill="#6DD8FC"></path>
<path d="M120.8 201.3C133.171 201.3 143.2 191.271 143.2 178.9C143.2 166.529 133.171 156.5 120.8 156.5C108.429 156.5 98.4 166.529 98.4 178.9C98.4 191.271 108.429 201.3 120.8 201.3Z" fill="#6DD8FC"></path>
<path d="M120.8 63C133.171 63 143.2 52.9711 143.2 40.5999C143.2 28.2288 133.171 18.2 120.8 18.2C108.429 18.2 98.4 28.2288 98.4 40.5999C98.4 52.9711 108.429 63 120.8 63Z" fill="#7101FF"></path>
<path d="M355.5 147.1H297.1L285 180.6H268L317 44.6H335.6L384.6 180.6H367.6L355.5 147.1ZM349.7 131.6L326.1 66.1L302.5 131.6H349.7Z" fill="#0C0A30"></path>
<path d="M448.5 86L445.6 100.4C443.7 99.1 439.9 97.3 435.3 97.3C420.4 97.3 414 114.2 414 132.3V180.6H397.5V83.8H413L413.8 96.1C419.7 87.9 427.2 81.9 436.2 81.9C442.2 81.8 446.4 84.1 448.5 86Z" fill="#0C0A30"></path>
<path d="M503.7 97.3C485.1 97.3 468.3 112 468.3 132C468.3 152.3 485.2 167 503.7 167C514.6 167 523.4 162.8 531.5 154.7V170.8C524 178.1 513.7 182.5 501.2 182.5C472.9 182.5 451 159.7 451 131.9C451 104.7 472.8 81.7 501.2 81.7C513.6 81.7 524 86.1 531.5 93.4V109.3C523.4 101.6 514.6 97.3 503.7 97.3Z" fill="#0C0A30"></path>
<path d="M639 124V180.7H622.5V130.9C622.5 106.6 612.2 97.4 597.2 97.4C574.2 97.4 565 117.5 565 131.3V180.7H548.5V37H565V100.6C573.8 90.1 586.3 81.8 602.9 81.8C625.4 81.8 639 96.6 639 124Z" fill="#0C0A30"></path>
<path d="M748.8 137.4H668.4C669 155 682 167.8 701.9 167.8C717.8 167.8 727.4 159.2 731.6 150.6L746.2 152.5C742.4 165.7 727.4 182.6 702 182.6C672.7 182.6 652 161 652 131.7C652 104.5 671.7 81.9 700.4 81.9C730.1 81.9 748.8 105.8 748.8 133.2V137.4ZM668.3 125.5H732.3C731.3 110.4 719.3 96.6 700.3 96.6C682.1 96.6 668.9 109.6 668.3 125.5Z" fill="#0C0A30"></path>
<path d="M814.8 86L811.9 100.4C810 99.1 806.2 97.3 801.6 97.3C786.7 97.3 780.3 114.2 780.3 132.3V180.6H763.8V83.8H779.3L780.1 96.1C786 87.9 793.5 81.9 802.5 81.9C808.5 81.8 812.7 84.1 814.8 86Z" fill="#0C0A30"></path>
<path d="M866.3 81.8C884.5 81.8 899.2 92.1 905.4 105.7L906.2 83.7H921.9V180.6H906.2L905.4 158.6C899.3 172.2 884.5 182.5 866.3 182.5C838.5 182.5 817.3 159.9 817.3 131.9C817.3 104.4 838.6 81.8 866.3 81.8ZM868.8 167C888.7 167 903.6 151.1 903.6 132C903.6 113.2 888.7 97.3 868.8 97.3C849.1 97.3 833.8 113.2 833.8 132C833.8 151.2 849.1 167 868.8 167Z" fill="#0C0A30"></path>
<defs>
<linearGradient id="paint0_linear_24_682" x1="121.188" y1="178.947" x2="190.751" y2="178.947" gradientUnits="userSpaceOnUse">
<stop offset="0.00123855" stop-color="#6DD8FC"></stop>
<stop offset="0.7693" stop-color="#6DD8FC" stop-opacity="0"></stop>
</linearGradient>
<linearGradient id="paint1_linear_24_682" x1="81.1086" y1="110.45" x2="46.3273" y2="170.691" gradientUnits="userSpaceOnUse">
<stop stop-color="#F89090"></stop>
<stop offset="0.8674" stop-color="#F89090" stop-opacity="0"></stop>
</linearGradient>
<linearGradient id="paint2_linear_24_682" x1="160.977" y1="110.823" x2="126.195" y2="50.5815" gradientUnits="userSpaceOnUse">
<stop stop-color="#7101FF"></stop>
<stop offset="0.8204" stop-color="#7101FF" stop-opacity="0"></stop>
</linearGradient>
</defs>
</svg>