<svg width="856" height="512" viewBox="0 0 856 512" fill="none" xmlns="http://www.w3.org/2000/svg">
<path d="M241.143 185.833C241.143 196.362 242.281 204.9 244.273 211.161C246.55 217.421 249.395 224.251 253.38 231.65C254.803 233.927 255.372 236.204 255.372 238.196C255.372 241.042 253.664 243.888 249.965 246.733L232.036 258.686C229.475 260.393 226.913 261.247 224.637 261.247C221.791 261.247 218.945 259.824 216.099 257.263C212.115 252.994 208.7 248.441 205.854 243.888C203.008 239.05 200.163 233.643 197.032 227.097C174.835 253.279 146.946 266.37 113.365 266.37C89.4599 266.37 70.3929 259.54 56.4483 245.88C42.5037 232.22 35.3892 214.006 35.3892 191.24C35.3892 167.05 43.9266 147.414 61.2862 132.616C78.6458 117.817 101.697 110.418 131.009 110.418C140.685 110.418 150.645 111.272 161.175 112.695C171.704 114.118 182.519 116.394 193.902 118.956V98.1811C193.902 76.5528 189.348 61.4699 180.526 52.6478C171.42 43.8258 156.052 39.557 134.139 39.557C124.179 39.557 113.934 40.6954 103.404 43.2566C92.8749 45.8178 82.6299 48.9483 72.6695 52.9324C68.1162 54.9245 64.7012 56.0628 62.7091 56.632C60.717 57.2012 59.2941 57.4857 58.1558 57.4857C54.1716 57.4857 52.1796 54.6399 52.1796 48.6637V34.7191C52.1796 30.1658 52.7487 26.7508 54.1716 24.7587C55.5945 22.7666 58.1558 20.7746 62.1399 18.7825C72.1003 13.66 84.0528 9.39124 97.9974 5.97624C111.942 2.27666 126.74 0.569166 142.392 0.569166C176.258 0.569166 201.016 8.2529 216.953 23.6204C232.605 38.9879 240.573 62.3237 240.573 93.6278V185.833H241.143ZM125.602 229.089C134.993 229.089 144.669 227.382 154.914 223.967C165.159 220.552 174.266 214.291 181.949 205.753C186.503 200.346 189.918 194.37 191.625 187.54C193.333 180.71 194.471 172.457 194.471 162.781V150.829C186.218 148.837 177.396 147.129 168.289 145.991C159.183 144.853 150.361 144.284 141.539 144.284C122.472 144.284 108.527 147.983 99.1357 155.667C89.7445 163.351 85.1912 174.165 85.1912 188.394C85.1912 201.769 88.6062 211.73 95.7207 218.56C102.551 225.674 112.511 229.089 125.602 229.089ZM354.122 259.824C349 259.824 345.584 258.97 343.308 256.978C341.031 255.271 339.039 251.287 337.332 245.88L270.455 25.897C268.747 20.2054 267.893 16.5058 267.893 14.5137C267.893 9.9604 270.17 7.39916 274.723 7.39916H302.612C308.02 7.39916 311.719 8.2529 313.711 10.245C315.988 11.9525 317.695 15.9366 319.403 21.3437L367.213 209.738L411.608 21.3437C413.031 15.6521 414.738 11.9525 417.015 10.245C419.291 8.53749 423.276 7.39916 428.398 7.39916H451.165C456.572 7.39916 460.271 8.2529 462.548 10.245C464.825 11.9525 466.817 15.9366 467.955 21.3437L512.919 212.014L562.152 21.3437C563.86 15.6521 565.852 11.9525 567.844 10.245C570.12 8.53749 573.82 7.39916 578.943 7.39916H605.409C609.962 7.39916 612.523 9.67582 612.523 14.5137C612.523 15.9366 612.239 17.3596 611.954 19.0671C611.669 20.7746 611.1 23.0512 609.962 26.1816L541.378 246.164C539.67 251.856 537.678 255.555 535.401 257.263C533.125 258.97 529.425 260.109 524.587 260.109H500.113C494.706 260.109 491.006 259.255 488.73 257.263C486.453 255.271 484.461 251.571 483.323 245.88L439.212 62.3237L395.387 245.595C393.964 251.287 392.256 254.986 389.979 256.978C387.703 258.97 383.719 259.824 378.596 259.824H354.122ZM719.811 267.508C705.013 267.508 690.214 265.8 675.985 262.385C661.756 258.97 650.657 255.271 643.258 251.002C638.705 248.441 635.574 245.595 634.436 243.034C633.298 240.473 632.729 237.627 632.729 235.065V220.552C632.729 214.576 635.005 211.73 639.274 211.73C640.982 211.73 642.689 212.014 644.397 212.583C646.104 213.153 648.665 214.291 651.511 215.429C661.187 219.698 671.716 223.113 682.815 225.39C694.199 227.666 705.297 228.805 716.681 228.805C734.609 228.805 748.554 225.674 758.23 219.413C767.906 213.153 773.028 204.046 773.028 192.378C773.028 184.41 770.467 177.864 765.344 172.457C760.222 167.05 750.546 162.212 736.601 157.659L695.337 144.853C674.562 138.307 659.195 128.631 649.804 115.825C640.412 103.304 635.575 89.359 635.575 74.5607C635.575 62.6082 638.136 52.0787 643.258 42.972C648.381 33.8654 655.211 25.897 663.748 19.6362C672.286 13.0908 681.961 8.2529 693.345 4.83791C704.728 1.42291 716.681 0 729.202 0C735.463 0 742.008 0.284583 748.269 1.13833C754.815 1.99208 760.791 3.13041 766.767 4.26874C772.459 5.69166 777.866 7.11457 782.988 8.82207C788.111 10.5296 792.095 12.2371 794.941 13.9446C798.925 16.2212 801.771 18.4979 803.478 21.0591C805.186 23.3358 806.04 26.4662 806.04 30.4504V43.8258C806.04 49.802 803.763 52.9324 799.494 52.9324C797.218 52.9324 793.518 51.7941 788.68 49.5174C772.459 42.1183 754.246 38.4187 734.04 38.4187C717.819 38.4187 705.013 40.9799 696.191 46.387C687.369 51.7941 682.815 60.047 682.815 71.7149C682.815 79.6832 685.661 86.5132 691.353 91.9203C697.044 97.3274 707.574 102.734 722.657 107.572L763.068 120.379C783.558 126.924 798.356 136.031 807.178 147.699C816 159.366 820.269 172.742 820.269 187.54C820.269 199.777 817.708 210.876 812.87 220.552C807.747 230.228 800.917 238.765 792.095 245.595C783.273 252.71 772.743 257.832 760.506 261.532C747.7 265.516 734.325 267.508 719.811 267.508Z" fill="#252F3E"></path>
<path d="M773.587 406.135C679.96 475.289 543.929 512 426.965 512C263.046 512 115.347 451.384 3.79069 350.642C-5.03138 342.673 2.93694 331.859 13.4665 338.12C134.13 408.127 282.966 450.53 436.926 450.53C540.799 450.53 654.916 428.902 759.927 384.507C775.579 377.392 788.955 394.752 773.587 406.135ZM812.575 361.74C800.623 346.373 733.461 354.341 703.011 358.041C693.904 359.179 692.481 351.211 700.734 345.235C754.236 307.67 842.172 318.484 852.417 331.005C862.662 343.812 849.571 431.748 799.484 473.866C791.801 480.411 784.401 476.996 787.817 468.459C799.2 440.285 824.528 376.823 812.575 361.74Z" fill="#FF9900"></path>
</svg>