<svg width="512" height="483" viewBox="0 0 512 483" fill="none" xmlns="http://www.w3.org/2000/svg">
<path d="M170.686 3.1656e-08H322.192L164.92 465.994C163.303 470.784 160.225 474.945 156.118 477.893C152.012 480.842 147.084 482.427 142.029 482.427H24.1223C20.2926 482.428 16.5178 481.516 13.1103 479.768C9.70283 478.02 6.7606 475.485 4.52703 472.374C2.29346 469.263 0.832761 465.665 0.265792 461.878C-0.301178 458.09 0.0418787 454.222 1.26658 450.593L147.795 16.4334C149.411 11.6436 152.489 7.48151 156.596 4.53341C160.702 1.58532 165.63 -0.000258686 170.686 3.1656e-08Z" fill="url(#paint0_linear_3021_2055)"/>
<path d="M390.844 312.558H150.594C148.361 312.557 146.179 313.229 144.333 314.485C142.487 315.742 141.062 317.525 140.244 319.602C139.425 321.68 139.25 323.955 139.743 326.133C140.235 328.311 141.372 330.291 143.005 331.814L297.387 475.9C301.88 480.094 307.798 482.427 313.945 482.427H449.978L390.844 312.558Z" fill="#0078D4"/>
<path d="M170.686 0.000166488C165.576 -0.0188761 160.594 1.59607 156.467 4.6092C152.34 7.62234 149.285 11.8758 147.747 16.7486L1.44825 450.2C0.141635 453.842 -0.268603 457.745 0.252246 461.579C0.773094 465.413 2.2097 469.065 4.44055 472.226C6.67139 475.388 9.63083 477.965 13.0685 479.741C16.5062 481.516 20.321 482.438 24.1902 482.428H145.141C149.647 481.623 153.858 479.636 157.345 476.67C160.831 473.705 163.468 469.866 164.985 465.548L194.154 379.574L298.367 476.769C302.733 480.382 308.212 482.38 313.879 482.428H449.409L389.965 312.558L216.682 312.597L322.743 0.000166488H170.686Z" fill="url(#paint1_linear_3021_2055)"/>
<path d="M364.197 16.4081C362.583 11.6261 359.51 7.47094 355.41 4.52759C351.31 1.58425 346.39 0.00105916 341.343 0.000976564H172.493C177.54 0.00092999 182.461 1.58403 186.561 4.52736C190.661 7.47069 193.735 11.626 195.349 16.4081L341.886 450.592C343.11 454.221 343.453 458.089 342.886 461.877C342.32 465.664 340.859 469.263 338.625 472.374C336.392 475.485 333.45 478.019 330.042 479.768C326.635 481.516 322.86 482.428 319.03 482.428H487.88C491.71 482.428 495.484 481.516 498.891 479.767C502.299 478.019 505.241 475.484 507.474 472.373C509.707 469.262 511.168 465.664 511.734 461.876C512.301 458.089 511.958 454.221 510.734 450.592L364.197 16.4081Z" fill="url(#paint2_linear_3021_2055)"/>
<defs>
<linearGradient id="paint0_linear_3021_2055" x1="225.907" y1="35.7486" x2="68.5646" y2="500.576" gradientUnits="userSpaceOnUse">
<stop stop-color="#114A8B"/>
<stop offset="1" stop-color="#0669BC"/>
</linearGradient>
<linearGradient id="paint1_linear_3021_2055" x1="275.058" y1="252.369" x2="238.66" y2="264.676" gradientUnits="userSpaceOnUse">
<stop stop-opacity="0.3"/>
<stop offset="0.071" stop-opacity="0.2"/>
<stop offset="0.321" stop-opacity="0.1"/>
<stop offset="0.623" stop-opacity="0.05"/>
<stop offset="1" stop-opacity="0"/>
</linearGradient>
<linearGradient id="paint2_linear_3021_2055" x1="255.041" y1="22.1893" x2="427.753" y2="482.336" gradientUnits="userSpaceOnUse">
<stop stop-color="#3CCBF4"/>
<stop offset="1" stop-color="#2892DF"/>
</linearGradient>
</defs>
</svg>
