<svg width="512" height="413" viewBox="0 0 512 413" fill="none" xmlns="http://www.w3.org/2000/svg">
<path d="M324.889 113.468H340.502L385.004 68.9654L387.186 50.0642C304.359 -23.0514 177.951 -15.1528 104.835 67.6746C84.5203 90.6635 69.7988 118.047 61.7466 147.675C66.6947 145.646 72.1961 145.308 77.3593 146.753L166.364 132.062C166.364 132.062 170.882 124.563 173.249 125.024C212.834 81.5355 279.464 76.4645 325.196 113.468H324.889Z" fill="#EA4335"/>
<path d="M448.408 147.674C438.173 109.994 417.182 76.1259 387.985 50.248L325.534 112.699C351.904 134.243 366.933 166.729 366.287 200.782V211.877C396.99 211.877 421.884 236.771 421.884 267.474C421.884 298.177 396.99 323.071 366.287 323.071H255.092L243.998 334.32V401.012L255.092 412.107H366.287C446.133 412.722 511.381 348.488 511.996 268.642C512.365 220.144 488.484 174.781 448.408 147.674Z" fill="#4285F4"/>
<path d="M143.744 411.4H254.939V322.395H143.744C135.815 322.395 128.009 320.674 120.786 317.386L105.173 322.242L60.3636 366.744L56.4604 382.357C81.5699 401.35 112.242 411.554 143.744 411.4Z" fill="#34A853"/>
<path d="M143.744 122.688C63.8672 123.149 -0.458543 188.274 0.00246252 268.15C0.279066 312.745 21.0858 354.727 56.4603 381.896L120.94 317.417C92.972 304.785 80.5249 271.839 93.1564 243.871C105.788 215.903 138.735 203.456 166.702 216.088C179.026 221.65 188.892 231.547 194.486 243.871L258.965 179.391C231.55 143.494 188.892 122.503 143.744 122.688Z" fill="#FBBC05"/>
</svg>
