<svg width="3269" height="512" viewBox="0 0 3269 512" fill="none" xmlns="http://www.w3.org/2000/svg">
<path d="M384.438 134.265H402.912L455.571 81.6061L458.153 59.2404C360.144 -27.2765 210.567 -17.9302 124.05 80.0787C100.012 107.281 82.5921 139.684 73.064 174.742C78.919 172.342 85.4287 171.942 91.5384 173.651L196.857 156.267C196.857 156.267 202.203 147.394 205.003 147.939C251.844 96.4802 330.687 90.4796 384.801 134.265H384.438Z" fill="#EA4335"></path>
<path d="M530.597 174.742C518.486 130.156 493.648 90.0794 459.099 59.4585L385.202 133.356C416.404 158.849 434.188 197.289 433.424 237.584V250.712C469.755 250.712 499.212 280.169 499.212 316.5C499.212 352.83 469.755 382.288 433.424 382.288H301.849L288.72 395.598V474.514L301.849 487.643H433.424C527.905 488.37 605.112 412.363 605.84 317.882C606.276 260.495 578.019 206.817 530.597 174.742Z" fill="#4285F4"></path>
<path d="M170.091 486.806H301.667V381.487H170.091C160.708 381.487 151.471 379.451 142.925 375.56L124.451 381.306L71.4277 433.965L66.8091 452.439C96.5209 474.914 132.815 486.988 170.091 486.806Z" fill="#34A853"></path>
<path d="M170.091 145.175C75.5734 145.721 -0.54259 222.782 0.00291388 317.3C0.330216 370.068 24.9506 419.745 66.8089 451.894L143.107 375.596C110.013 360.649 95.2843 321.664 110.231 288.57C125.178 255.476 164.163 240.747 197.257 255.694C211.84 262.277 223.514 273.987 230.133 288.57L306.431 212.272C273.991 169.796 223.514 144.957 170.091 145.175Z" fill="#FBBC05"></path>
<path d="M956.126 413.273C910.34 413.855 866.336 395.78 834.187 363.196C800.984 331.993 782.437 288.28 783.019 242.712C782.474 197.144 801.021 153.468 834.187 122.228C866.19 89.3164 910.231 70.8783 956.126 71.242C999.839 70.6601 1041.99 87.6435 1073.08 118.374L1040.21 151.831C1017.69 130.047 987.438 118.119 956.126 118.555C923.286 118.155 891.756 131.575 869.281 155.504C845.934 178.67 833.06 210.382 833.605 243.258C833.315 275.77 846.188 307.009 869.281 329.92C916.849 377.342 993.547 378.252 1042.24 331.956C1056.75 316.101 1065.63 295.88 1067.55 274.497H956.671V227.22H1113.56C1115.09 236.748 1115.7 246.385 1115.41 256.059C1117.38 296.39 1102.76 335.775 1074.94 365.087C1043.99 397.271 1000.78 414.8 956.126 413.273ZM1320.89 381.852C1277.14 423.783 1208.11 423.783 1164.36 381.852C1143.16 361.305 1131.6 332.829 1132.4 303.336C1131.6 273.842 1143.2 245.367 1164.36 224.82C1208.15 182.998 1277.1 182.998 1320.89 224.82C1342.05 245.367 1353.65 273.842 1352.85 303.336C1353.62 332.866 1341.94 361.341 1320.7 381.852H1320.89ZM1198.91 351.013C1221.5 375.16 1259.39 376.397 1283.54 353.777C1284.48 352.867 1285.43 351.958 1286.3 351.013C1298.63 338.248 1305.28 321.083 1304.78 303.336C1305.32 285.552 1298.67 268.278 1286.3 255.477C1263.06 231.256 1224.59 230.42 1200.33 253.658C1199.71 254.24 1199.09 254.859 1198.51 255.477C1186.15 268.278 1179.49 285.552 1180.04 303.336C1179.56 321.083 1186.29 338.284 1198.69 351.013H1198.91ZM1561.45 381.852C1517.7 423.783 1448.68 423.783 1404.93 381.852C1383.73 361.305 1372.16 332.829 1372.96 303.336C1372.16 273.842 1383.76 245.367 1404.93 224.82C1448.68 182.888 1517.7 182.888 1561.45 224.82C1582.62 245.367 1594.22 273.842 1593.42 303.336C1594.26 332.829 1582.66 361.305 1561.45 381.852ZM1439.51 351.013C1462.1 375.16 1499.99 376.397 1524.14 353.777C1525.09 352.867 1526.03 351.958 1526.9 351.013C1539.23 338.248 1545.89 321.083 1545.38 303.336C1545.92 285.552 1539.27 268.278 1526.9 255.477C1503.67 231.256 1465.19 230.42 1440.97 253.658C1440.35 254.24 1439.73 254.859 1439.15 255.477C1426.79 268.278 1420.13 285.552 1420.68 303.336C1420.2 321.083 1426.93 338.284 1439.33 351.013H1439.51ZM1719.61 511.936C1697.47 512.627 1675.75 505.718 1658.08 492.335C1642.4 480.539 1630.04 464.876 1622.22 446.876L1664.34 429.311C1668.92 440.075 1676.08 449.531 1685.21 456.84C1694.96 464.696 1707.21 468.842 1719.76 468.478C1735.83 469.46 1751.54 463.387 1762.82 451.858C1773.94 438.439 1779.44 421.201 1778.16 403.818V387.925H1776.49C1762.2 404.872 1740.78 414.109 1718.67 412.873C1690.63 412.946 1663.83 401.308 1644.77 380.725C1624.11 360.323 1612.69 332.357 1613.17 303.299C1612.66 274.097 1624.08 245.949 1644.77 225.329C1663.79 204.672 1690.59 192.926 1718.67 192.998C1730.41 192.962 1742.05 195.581 1752.67 200.563C1761.87 204.563 1770.05 210.564 1776.71 218.128H1778.38V200.563H1824.2V397.344C1826.64 428.802 1816.02 459.895 1794.82 483.279C1774.64 502.59 1747.54 512.918 1719.61 511.936ZM1722.96 370.033C1738.92 370.396 1754.23 363.596 1764.71 351.558C1776.09 338.503 1782.13 321.592 1781.51 304.245C1782.2 286.607 1776.2 269.405 1764.71 256.022C1754.23 243.949 1738.92 237.184 1722.96 237.548C1706.56 237.221 1690.81 243.949 1679.72 256.022C1667.5 268.933 1660.84 286.134 1661.24 303.881C1660.88 321.483 1667.5 338.503 1679.72 351.195C1690.74 363.378 1706.48 370.251 1722.96 370.033ZM1905.7 83.6431V406.618H1857.48V83.6431H1905.7ZM2038.01 413.273C2008.8 414.037 1980.62 402.581 1960.22 381.67C1939.52 360.941 1928.21 332.611 1928.98 303.336C1927.89 273.988 1938.76 245.44 1959.09 224.238C1978.29 204.018 2005.13 192.817 2032.99 193.362C2045.68 193.217 2058.23 195.69 2069.94 200.563C2080.48 204.818 2090.08 211.109 2098.19 219.037C2105.17 225.765 2111.36 233.257 2116.67 241.403C2120.96 248.276 2124.59 255.513 2127.58 263.005L2132.56 275.588L1984.76 336.393C1993.93 357.413 2015.06 370.651 2037.97 369.669C2060.12 369.742 2080.66 358.141 2092.12 339.194L2129.07 364.141C2119.64 377.647 2107.57 389.092 2093.57 397.781C2076.99 408.254 2057.64 413.637 2038.01 413.273ZM1976.29 299.99L2074.59 259.15C2071.57 251.949 2066.15 246.021 2059.24 242.348C2051.53 237.984 2042.81 235.766 2033.93 235.875C2018.91 236.275 2004.62 242.567 1994.22 253.44C1981.6 265.514 1975.02 282.57 1976.29 299.99Z" fill="#5F6368"></path>
<path d="M2385.2 413.273C2301.12 414.728 2231.8 347.74 2230.35 263.66C2230.31 261.623 2230.31 259.55 2230.39 257.514C2228.42 173.433 2295.01 103.718 2379.05 101.754C2381.09 101.718 2383.16 101.718 2385.2 101.718C2427.24 100.409 2467.61 118.374 2494.77 150.486L2468.15 176.343C2448.19 151.213 2417.42 137.139 2385.38 138.448C2354.65 137.757 2324.94 149.649 2303.16 171.324C2280.5 194.126 2268.39 225.329 2269.7 257.441C2268.35 289.553 2280.5 320.756 2303.16 343.558C2324.94 365.269 2354.65 377.124 2385.38 376.434C2421.17 376.834 2455.17 360.905 2477.75 333.193L2504.37 359.814C2490.45 376.47 2472.95 389.78 2453.21 398.799C2431.9 408.691 2408.66 413.637 2385.2 413.273Z" fill="#5F6368"></path>
<path d="M2575.87 406.618H2537.61V108.191H2575.87V406.618Z" fill="#5F6368"></path>
<path d="M2638.35 227.002C2680.06 185.58 2747.41 185.58 2789.13 227.002C2808.91 247.912 2819.57 275.842 2818.69 304.608C2819.57 333.375 2808.91 361.305 2789.13 382.216C2747.41 423.637 2680.06 423.637 2638.35 382.216C2618.57 361.305 2607.91 333.375 2608.78 304.608C2607.91 275.842 2618.53 247.912 2638.35 227.002ZM2666.79 358.213C2691.26 384.07 2732.07 385.198 2757.96 360.723C2758.83 359.923 2759.67 359.05 2760.47 358.213C2773.96 343.739 2781.09 324.428 2780.25 304.645C2781.13 284.861 2774 265.55 2760.47 251.076C2736 225.22 2695.19 224.092 2669.3 248.567C2668.43 249.367 2667.59 250.24 2666.79 251.076C2653.3 265.55 2646.17 284.861 2647.01 304.645C2646.24 324.392 2653.44 343.63 2666.97 358.032L2666.79 358.213Z" fill="#5F6368"></path>
<path d="M3030.6 406.618H2993.66V378.361H2992.56C2985.98 389.089 2976.67 397.89 2965.58 403.854C2954.09 410.51 2941 414.037 2927.69 414.001C2905.79 415.492 2884.45 406.909 2869.68 390.726C2855.68 373.015 2848.66 350.795 2849.9 328.284V202.636H2888.15V321.265C2888.15 359.341 2904.96 378.361 2938.6 378.361C2953.76 378.834 2968.2 371.961 2977.4 359.887C2987.33 347.34 2992.6 331.739 2992.38 315.737V202.636H3030.64V406.618H3030.6Z" fill="#5F6368"></path>
<path d="M3160.51 413.273C3134.25 413.346 3109.27 401.963 3092.14 382.034C3072.97 360.868 3062.72 333.157 3063.48 304.609C3062.72 276.061 3072.97 248.349 3092.14 227.183C3109.27 207.291 3134.25 195.872 3160.51 195.944C3175.05 195.726 3189.42 199.145 3202.26 205.909C3213.57 211.582 3223.13 220.201 3229.97 230.857H3231.64L3229.97 202.599V108.191H3268.22V406.618H3231.28V378.361H3229.6C3222.77 389.016 3213.2 397.635 3201.89 403.308C3189.16 410 3174.94 413.455 3160.51 413.273ZM3166.8 378.361C3184.29 378.615 3201.06 371.342 3212.8 358.395C3225.79 343.594 3232.44 324.283 3231.28 304.609C3232.44 284.971 3225.79 265.623 3212.8 250.822C3189.6 225.292 3150.11 223.438 3124.58 246.676C3123.12 247.985 3121.74 249.404 3120.43 250.822C3107.41 265.514 3100.76 284.789 3101.96 304.39C3100.76 323.992 3107.41 343.267 3120.43 357.959C3132.21 371.196 3149.12 378.615 3166.8 378.361Z" fill="#5F6368"></path>
</svg>