<?xml version="1.0" encoding="UTF-8"?><svg id="uuid-f1e80812-aaf5-4dca-a82c-e1f4b72dffbc" xmlns="http://www.w3.org/2000/svg" xmlns:xlink="http://www.w3.org/1999/xlink" viewBox="0 0 32 32"><defs><clipPath id="uuid-bb9f3d61-e27a-4293-a34d-ac610b3feaf6"><path class="uuid-f9d5a4ff-f867-4ef6-8f5b-8598e2e328f5" d="M29.865,16c0,7.012-5.206,12.809-11.963,13.736-.622.085-1.257.129-1.902.129-1.687,0-3.303-.301-4.799-.853-.776-.286-1.52-.64-2.224-1.055-1.388-.817-2.62-1.868-3.644-3.099-1.997-2.402-3.198-5.49-3.198-8.858,0-7.657,6.208-13.865,13.865-13.865s13.865,6.208,13.865,13.865Z"></path></clipPath><linearGradient id="uuid-fea65688-3c1e-4ad4-b445-1f28577e0b67" x1="2386.152" y1="-45.091" x2="2394.946" y2="-45.091" gradientTransform="translate(-1872.734 1499.266) rotate(-37.131)" gradientUnits="userSpaceOnUse"><stop offset="0" stop-color="#6dd8fc"></stop><stop offset=".928" stop-color="#6dd8fc" stop-opacity=".09"></stop><stop offset=".957" stop-color="#6dd8fc" stop-opacity="0"></stop></linearGradient><linearGradient id="uuid-978248c9-0a86-47a5-b557-7676e0698af6" x1="3399.298" y1="445.866" x2="3412.175" y2="445.866" gradientTransform="translate(-2318.111 2544.913) rotate(-54.616)" xlink:href="#uuid-fea65688-3c1e-4ad4-b445-1f28577e0b67"></linearGradient><linearGradient id="uuid-b1ed038a-53d4-4a02-a575-f09f8b37e44d" x1="4346.842" y1="1338.975" x2="4365.834" y2="1338.975" gradientTransform="translate(-2407.203 3881.702) rotate(-75)" gradientUnits="userSpaceOnUse"><stop offset=".25" stop-color="#f89090"></stop><stop offset=".918" stop-color="#f89090" stop-opacity="0"></stop></linearGradient></defs><g id="uuid-7d664174-7e20-4675-9881-a0326487b6d6"><rect class="uuid-f7aa68fe-0734-4183-95fa-64ea9b879a0a" width="32" height="32"></rect><circle class="uuid-161ba8cb-1eee-44d5-8899-9f462c5f4fbf" cx="16" cy="16" r="13.865"></circle><g class="uuid-6b7d7114-8609-4aaf-968a-fc2e700e5626"><path class="uuid-5f96c421-73de-4b66-9a11-8f0a01f2931e" d="M2.503,23.046h1.462c2.555-.386,5.051-1.395,7.251-3.062l-2.417-3.193c-1.896,1.436-4.084,2.221-6.296,2.394v3.86Z"></path><path class="uuid-0c0170cb-a48b-4351-8232-3ee2f7eef14d" d="M20.966,20.998s-.003.005-.005.008c-2.57,3.618-5.964,6.309-9.749,8.001v.858h6.369v-.089c1.891-1.535,5.117-4.298,6.646-6.451.002-.002.003-.005.005-.008l-3.265-2.319Z"></path><path class="uuid-7a12a802-4f1d-405b-bf1e-78e52fabfab7" d="M5.333,27.957h3.644c6.526-2.379,11.835-7.793,13.765-14.997l-3.868-1.037c-1.799,6.713-7.183,11.527-13.54,12.935v3.099Z"></path><circle class="uuid-e82d031d-3d0d-4d8e-8ae4-ca9e5e068122" cx="10.008" cy="18.388" r="2.002"></circle><circle class="uuid-e82d031d-3d0d-4d8e-8ae4-ca9e5e068122" cx="22.594" cy="22.165" r="2.002"></circle><circle class="uuid-f38c6c98-9e0e-42de-9381-7bc454a44df2" cx="20.808" cy="12.442" r="2.002"></circle></g></g></svg>