<?xml version="1.0" encoding="UTF-8"?><svg id="uuid-e7be858a-6d28-4538-a2f9-f5d436e65058" xmlns="http://www.w3.org/2000/svg" viewBox="0 0 32 32"><defs></defs><g id="uuid-fc3bc9b4-2d0e-4ac2-9168-5dc889007ed9"><rect class="uuid-e5e6adaf-56cf-49c4-8375-dbfd02fd6e5e" x="0" width="32" height="32"></rect><path class="uuid-560c0e02-823e-42e3-b3f5-da0f854984f4" d="M9.018,14.382c0,.394.043.713.117.947.085.234.192.49.341.766.053.085.074.17.074.245,0,.106-.064.213-.202.319l-.671.447c-.096.064-.192.096-.277.096-.106,0-.213-.053-.319-.149-.149-.16-.277-.33-.383-.5-.106-.181-.213-.383-.33-.628-.83.979-1.873,1.469-3.129,1.469-.894,0-1.607-.255-2.129-.766-.522-.511-.788-1.192-.788-2.043,0-.905.319-1.639.969-2.192.649-.553,1.511-.83,2.608-.83.362,0,.734.032,1.128.085s.798.138,1.224.234v-.777c0-.809-.17-1.373-.5-1.703-.341-.33-.915-.49-1.735-.49-.373,0-.756.043-1.149.138s-.777.213-1.149.362c-.17.075-.298.117-.373.138-.075.021-.128.032-.17.032-.149,0-.224-.106-.224-.33v-.522c0-.17.021-.298.075-.373s.149-.149.298-.224c.373-.192.82-.351,1.341-.479.522-.138,1.075-.202,1.66-.202,1.267,0,2.192.287,2.788.862.585.575.883,1.447.883,2.618v3.448h.021ZM4.697,16c.351,0,.713-.064,1.096-.192.383-.128.724-.362,1.011-.681.17-.202.298-.426.362-.681s.106-.564.106-.926v-.447c-.309-.075-.639-.138-.979-.181s-.671-.064-1-.064c-.713,0-1.235.138-1.586.426-.351.287-.522.692-.522,1.224,0,.5.128.873.394,1.128.255.266.628.394,1.118.394ZM13.243,17.149c-.192,0-.319-.032-.404-.106-.085-.064-.16-.213-.223-.415l-2.501-8.227c-.064-.213-.096-.351-.096-.426,0-.17.085-.266.255-.266h1.043c.202,0,.341.032.415.106.085.064.149.213.213.415l1.788,7.046,1.66-7.046c.053-.213.117-.351.202-.415.085-.064.234-.106.426-.106h.851c.202,0,.341.032.426.106.085.064.16.213.202.415l1.682,7.131,1.841-7.131c.064-.213.138-.351.213-.415.085-.064.224-.106.415-.106h.99c.17,0,.266.085.266.266,0,.053-.011.106-.021.17-.011.064-.032.149-.074.266l-2.565,8.227c-.064.213-.138.351-.224.415s-.224.106-.404.106h-.915c-.202,0-.341-.032-.426-.106s-.16-.213-.202-.426l-1.65-6.865-1.639,6.854c-.053.213-.117.351-.202.426-.085.074-.234.106-.426.106h-.915ZM26.919,17.436c-.553,0-1.107-.064-1.639-.192-.532-.128-.947-.266-1.224-.426-.17-.096-.287-.202-.33-.298-.043-.096-.064-.202-.064-.298v-.543c0-.223.085-.33.245-.33.064,0,.128.011.192.032.064.021.16.064.266.106.362.16.756.287,1.171.373.426.085.841.128,1.267.128.67,0,1.192-.117,1.554-.351.362-.234.553-.575.553-1.011,0-.298-.096-.543-.287-.745-.192-.202-.553-.383-1.075-.553l-1.543-.479c-.777-.245-1.352-.607-1.703-1.086-.351-.468-.532-.99-.532-1.543,0-.447.096-.841.287-1.181.192-.341.447-.639.766-.873.319-.245.681-.426,1.107-.553.426-.128.873-.181,1.341-.181.234,0,.479.011.713.043.245.032.468.075.692.117.213.053.415.106.607.17.192.064.341.128.447.192.149.085.255.17.319.266.064.085.096.202.096.351v.5c0,.224-.085.341-.245.341-.085,0-.224-.043-.404-.128-.607-.277-1.288-.415-2.043-.415-.607,0-1.086.096-1.416.298s-.5.511-.5.947c0,.298.106.553.319.756.213.202.607.404,1.171.585l1.511.479c.766.245,1.32.585,1.65,1.022.33.436.49.937.49,1.49,0,.458-.096.873-.277,1.235-.192.362-.447.681-.777.937-.33.266-.724.458-1.181.596-.479.149-.979.223-1.522.223Z"></path><path class="uuid-642394ba-d4a1-405c-bc72-bcfca914b1bd" d="M28.931,22.609c-3.502,2.586-8.589,3.959-12.963,3.959-6.13,0-11.654-2.267-15.826-6.035-.33-.298-.032-.702.362-.468,4.513,2.618,10.079,4.204,15.837,4.204,3.885,0,8.152-.809,12.08-2.469.585-.266,1.086.383.511.809Z"></path><path class="uuid-642394ba-d4a1-405c-bc72-bcfca914b1bd" d="M30.389,20.949c-.447-.575-2.959-.277-4.098-.138-.341.043-.394-.255-.085-.479,2.001-1.405,5.29-1,5.673-.532.383.479-.106,3.768-1.98,5.343-.287.245-.564.117-.436-.202.426-1.054,1.373-3.427.926-3.991Z"></path></g></svg>