<?xml version="1.0" encoding="utf-8"?>
<svg xmlns="http://www.w3.org/2000/svg" xmlns:xlink="http://www.w3.org/1999/xlink" id="uuid-6b90bdfa-370f-4db3-90c6-c34173b9ebd2" viewBox="0 0 32 32">
  <defs>
    
    <linearGradient id="uuid-c6aa6d9f-8588-4a0b-9342-1e9116dd65e1" x1="-1060.372" y1="-279.37" x2="-1067.548" y2="-258.172" gradientTransform="translate(1075 286)" gradientUnits="userSpaceOnUse">
      <stop offset="0" stop-color="#114a8b"></stop>
      <stop offset="1" stop-color="#0669bc"></stop>
    </linearGradient>
    <linearGradient id="uuid-e129b4f6-4fdf-4b38-95e8-21cdb54ec809" x1="-1058.131" y1="-269.492" x2="-1059.791" y2="-268.93" gradientTransform="translate(1075 286)" gradientUnits="userSpaceOnUse">
      <stop offset="0" stop-color="#000" stop-opacity=".3"></stop>
      <stop offset=".071" stop-color="#000" stop-opacity=".2"></stop>
      <stop offset=".321" stop-color="#000" stop-opacity=".1"></stop>
      <stop offset=".623" stop-color="#000" stop-opacity=".05"></stop>
      <stop offset="1" stop-color="#000" stop-opacity="0"></stop>
    </linearGradient>
    <linearGradient id="uuid-a76bab40-00d5-41b5-97e1-e1a8d48fcb20" x1="-1058.992" y1="-280.008" x2="-1051.116" y2="-259.024" gradientTransform="translate(1075 286)" gradientUnits="userSpaceOnUse">
      <stop offset="0" stop-color="#3ccbf4"></stop>
      <stop offset="1" stop-color="#2892df"></stop>
    </linearGradient>
  </defs>
  <rect class="uuid-30160e8b-ea88-42fa-881c-2b41d5902115" width="32" height="32"></rect>
  <path class="uuid-4a7d2fa9-a4c7-4663-9699-8d5aaf19c6a1" d="M12.109,5h6.909l-7.172,21.251c-.151.448-.571.749-1.044.749h-5.377c-.607,0-1.1-.492-1.1-1.1,0-.12.02-.238.058-.352L11.066,5.749c.151-.448.571-.749,1.044-.749h0Z"></path>
  <path class="uuid-fdd4295a-b7c2-4410-8d0b-8147dbbdf05a" d="M22.149,19.253h-10.956c-.28,0-.507.227-.507.507,0,.141.058.275.161.371l7.04,6.571c.205.191.475.298.755.298h6.204l-2.697-7.747Z"></path>
  <path class="uuid-21666e16-3d80-44ec-a730-5584c9648fc6" d="M12.109,5c-.478-.002-.902.308-1.046.764l-6.672,19.767c-.205.571.092,1.2.663,1.405.12.043.247.065.374.065h5.516c.418-.075.764-.369.905-.77l1.33-3.921,4.752,4.432c.199.165.449.256.707.258h6.181l-2.711-7.747-7.902.002,4.837-14.255h-6.934Z"></path>
  <path class="uuid-f6380050-be80-4ec9-9fc1-6a06000e55f4" d="M20.934,5.748c-.151-.447-.57-.748-1.042-.748h-7.7c.472,0,.891.301,1.042.748l6.682,19.8c.194.576-.115,1.2-.691,1.394-.113.038-.232.058-.352.058h7.7c.608,0,1.1-.493,1.1-1.1,0-.12-.02-.238-.058-.352l-6.682-19.8Z"></path>
</svg>