<?xml version="1.0" encoding="UTF-8"?><svg id="uuid-f7a3614e-941a-49cd-838d-9bfeaa4a2c56" xmlns="http://www.w3.org/2000/svg" viewBox="0 0 32 32"><defs></defs><g id="uuid-9850545c-99e3-41ee-8757-44a020929e19"><rect class="uuid-cdf9ae1e-0f4a-46f7-9223-61113aece846" width="32" height="32"></rect><path class="uuid-eed1c33b-564e-43c3-b762-920ec3cd531c" d="M20.26,10.871l.255.106,2.378-2.378.159-1.035c-4.426-3.907-11.223-3.461-15.13.966-1.085,1.23-1.873,2.761-2.302,4.343.265-.109,5.833-1.235,5.958-1.21,2.116-2.324,5.693-2.738,8.136-.761l.546-.031Z"></path><path class="uuid-f7fe20e3-f5d5-47d5-bb59-5c779270fa3a" d="M26.282,12.772c-.547-2.013-1.669-3.823-3.23-5.207l-3.338,3.338c1.41,1.152,2.212,2.887,2.178,4.707v.592c1.641,0,2.971,1.33,2.971,2.971s-1.33,2.971-2.971,2.971h-5.942v4.757h5.942c4.268.033,7.754-3.399,7.787-7.667.02-2.587-1.255-5.012-3.398-6.461Z"></path><path class="uuid-ae2094f1-6e20-4379-a781-8c41a4820f2a" d="M10.001,26.9h5.942v-4.757h-5.942c-.423,0-.842-.091-1.227-.267l-3.438,3.472c1.343,1.014,2.982,1.559,4.665,1.552Z"></path><path class="uuid-5058e7e7-d2b5-445a-9ff4-636be0204e61" d="M10.001,11.47c-4.268.025-7.707,3.506-7.681,7.773.014,2.383,1.127,4.626,3.016,6.079l3.446-3.446c-1.495-.676-2.16-2.435-1.484-3.93s2.435-2.16,3.93-1.484c.659.298,1.187.825,1.484,1.484l3.446-3.446c-1.466-1.917-3.745-3.038-6.159-3.029Z"></path></g></svg>