<?xml version="1.0" encoding="utf-8"?>
<svg xmlns="http://www.w3.org/2000/svg" width="18" height="18" viewBox="0 0 18 18" fill="none">
<path d="M15.3369 15.3372H12.6698V11.1604C12.6698 10.1644 12.652 8.88221 11.2827 8.88221C9.8936 8.88221 9.68107 9.96739 9.68107 11.0879V15.3369H7.01402V6.74767H9.57438V7.92148H9.61022C9.86646 7.48337 10.2367 7.12295 10.6816 6.87862C11.1264 6.63429 11.6292 6.5152 12.1364 6.53402C14.8396 6.53402 15.338 8.31211 15.338 10.6253L15.3369 15.3372ZM4.00472 5.57358C3.69861 5.57363 3.39935 5.48291 3.1448 5.31289C2.89025 5.14286 2.69185 4.90117 2.57465 4.61837C2.45746 4.33558 2.42675 4.02438 2.48641 3.72413C2.54608 3.42388 2.69344 3.14807 2.90985 2.93157C3.12626 2.71507 3.40201 2.56761 3.70223 2.50784C4.00245 2.44806 4.31364 2.47866 4.59647 2.59575C4.8793 2.71285 5.12105 2.91119 5.29116 3.16569C5.46128 3.42018 5.5521 3.71941 5.55216 4.02553C5.5522 4.22879 5.51219 4.43006 5.43445 4.61786C5.3567 4.80566 5.24274 4.9763 5.09905 5.12005C4.95535 5.2638 4.78474 5.37784 4.59698 5.45566C4.40922 5.53347 4.20797 5.57354 4.00472 5.57358ZM5.33824 15.3372H2.66842V6.74767H5.33824V15.3372ZM16.6665 0.00122637H1.32824C0.980108 -0.00270246 0.644638 0.131748 0.39558 0.375032C0.146522 0.618316 0.0042488 0.95053 0 1.29867V16.7011C0.00410338 17.0494 0.146293 17.3818 0.395343 17.6254C0.644392 17.8689 0.979935 18.0036 1.32824 17.9999H16.6665C17.0155 18.0043 17.352 17.8699 17.602 17.6264C17.852 17.3829 17.9952 17.0501 18 16.7011V1.29756C17.995 0.948728 17.8518 0.616136 17.6017 0.372858C17.3517 0.12958 17.0153 -0.00448607 16.6665 0.000114616" fill="white"></path>
</svg>