<?xml version="1.0" encoding="utf-8"?>
<svg xmlns="http://www.w3.org/2000/svg" id="Layer_1" viewBox="0 0 18 12.601">
  <defs>
    
  </defs>
  <path class="cls-1" d="M17.624,1.968c-.207-.775-.816-1.384-1.591-1.591-1.403-.376-7.032-.376-7.032-.376,0,0-5.629,0-7.032.376-.775.207-1.384.816-1.591,1.591-.376,1.403-.376,4.333-.376,4.333,0,0,0,2.929.376,4.333.207.775.816,1.384,1.591,1.591,1.403.376,7.032.376,7.032.376,0,0,5.629,0,7.032-.376.775-.207,1.384-.816,1.591-1.591.376-1.403.376-4.333.376-4.333,0,0-.002-2.929-.376-4.333ZM7.198,9V3.601l4.676,2.7-4.676,2.7Z"></path>
</svg>