<?xml version="1.0" encoding="UTF-8"?><svg id="uuid-b18f8720-f8d2-45ff-9cb1-baa5e02681ce" xmlns="http://www.w3.org/2000/svg" viewBox="0 0 146.389 64"><defs><style>.uuid-77e06a6e-a58c-4e57-80d7-1e6c01b44875{fill:#fff;}.uuid-4074bd48-0537-42dd-b75f-7a0ced4fc5da{fill:#232f3e;}.uuid-dee3c514-8235-4331-a991-c847896701a6{fill:#ff9900;}</style></defs><g id="uuid-f635ee74-0124-4f3d-b3c8-1e1405d97104"><path class="uuid-77e06a6e-a58c-4e57-80d7-1e6c01b44875" d="M43.519,0H0v43.733l20.267,20.267h43.733V20.481L43.519,0Z"></path><path class="uuid-4074bd48-0537-42dd-b75f-7a0ced4fc5da" d="M10.4,36.053v2.347h-1.333v-6.4h2.453c.586-.053,1.119.161,1.6.533.8.853.8,2.133,0,2.986-.425.375-1.014.586-1.6.533h-1.119ZM10.4,35.039h.961c.267,0,.533-.053.691-.267.319-.425.319-1.067,0-1.491-.214-.161-.425-.267-.691-.267h-.961v2.025ZM19.305,38.4l-.425-1.439h-2.186l-.428,1.439h-1.439l2.239-6.4h1.547l2.186,6.4h-1.495ZM16.961,35.947h1.6l-.8-2.667-.8,2.667ZM22.719,38.4v-6.4h2.453c.589-.053,1.123.161,1.6.533.375.372.589.905.589,1.439,0,.375-.109.695-.323,1.014-.211.319-.533.533-.853.695l1.6,2.772h-1.439l-1.386-2.505h-.909v2.453h-1.333ZM24.053,34.933h.961c.481.053.905-.267.958-.747v-.267c.056-.481-.267-.905-.691-.958h-1.175v1.972h-.053ZM31.039,38.4v-5.281h-1.972v-1.119h5.281v1.119h-1.975v5.281h-1.333ZM37.705,33.972v4.428h-1.225v-6.4h1.491l2.614,4.481v-4.481h1.228v6.4h-1.495l-2.614-4.428ZM44.267,38.4v-6.4h4.214v1.067h-2.828v1.495h2.295v1.067h-2.295v1.705h2.828v1.067h-4.214ZM50.933,38.4v-6.4h2.453c.586-.053,1.119.161,1.6.533.375.372.586.905.586,1.439,0,.375-.105.695-.319,1.014s-.533.533-.853.695l1.6,2.772h-1.439l-1.39-2.505h-.905v2.453h-1.333ZM52.267,34.933h.961c.477.053.905-.267.958-.747v-.267c.053-.481-.267-.905-.691-.958h-1.228v1.972Z"></path><path class="uuid-4074bd48-0537-42dd-b75f-7a0ced4fc5da" d="M14.239,14.667c0,.214,0,.428.109.639.053.161.158.375.214.533.053.056.053.109.053.161,0,.105-.053.161-.161.214l-.481.319h-.158c-.109,0-.161-.053-.214-.105-.105-.109-.214-.214-.267-.323-.053-.105-.161-.267-.214-.425-.533.639-1.281,1.014-2.133,1.014-.533.053-1.067-.161-1.439-.533-.375-.375-.533-.856-.533-1.39,0-.586.214-1.119.639-1.491.481-.375,1.119-.586,1.761-.586.267,0,.533,0,.747.053l.8.158v-.533c.053-.425-.056-.853-.323-1.172-.319-.267-.744-.372-1.172-.319-.267,0-.533.053-.8.105s-.533.161-.8.267c-.105.053-.161.053-.267.109h-.105c-.109,0-.161-.056-.161-.214v-.375c0-.105,0-.158.053-.267.053-.053.109-.105.214-.158.267-.161.586-.267.905-.319.375-.109.747-.161,1.123-.161.691-.053,1.333.161,1.867.586.425.481.639,1.119.586,1.761l.158,2.453ZM11.305,15.733c.267,0,.481-.053.747-.105.267-.109.481-.267.695-.481.105-.109.214-.267.267-.481s.053-.428.053-.639v-.323c-.214-.053-.428-.105-.639-.105-.214-.053-.428-.053-.695-.053-.372-.053-.747.053-1.067.267-.428.425-.481,1.119-.105,1.6.211.267.477.372.744.319h0ZM17.119,16.533c-.105,0-.214,0-.267-.053-.053-.053-.105-.161-.158-.267l-1.709-5.6c-.053-.109-.053-.214-.053-.267,0-.109.053-.161.105-.161h.747c.109,0,.214,0,.267.053.053.056.109.161.161.267l1.225,4.747,1.123-4.747c0-.105.053-.211.158-.267.109-.053.214-.053.267-.053h.586c.109,0,.214,0,.267.053.056.056.109.161.161.267l1.119,4.856,1.228-4.856c0-.105.053-.211.158-.267.109-.053.161-.053.267-.053h.695c.105,0,.161.053.161.109v.158c0,.053-.056.109-.056.161l-1.705,5.547c0,.105-.053.21-.161.267-.053.105-.158.105-.267.105h-.639c-.105,0-.214,0-.267-.053-.053-.109-.105-.161-.161-.267l-1.119-4.642-1.119,4.642c0,.105-.053.214-.161.267-.053.053-.158.053-.211.053h-.642ZM26.4,16.747c-.372,0-.747-.053-1.119-.109-.267-.053-.586-.158-.853-.267-.161-.053-.267-.21-.267-.425v-.375c0-.158.053-.21.158-.21h.109c.053,0,.105.053.158.053.267.105.533.214.8.267.267.053.586.105.853.105.375,0,.747-.053,1.067-.267.214-.158.375-.425.375-.691,0-.214-.053-.375-.214-.481-.214-.161-.481-.319-.747-.375l-1.067-.319c-.425-.105-.853-.372-1.172-.747-.214-.319-.375-.691-.375-1.067,0-.267.056-.533.214-.8.109-.211.319-.425.533-.586.214-.158.481-.319.747-.372.319-.109.586-.109.905-.109.161,0,.323,0,.481.056.161,0,.319.053.481.105s.267.053.428.105c.105.056.211.056.319.109.105.053.158.105.214.158.053.056.053.161.053.267v.323c0,.158-.053.211-.161.211-.105,0-.214-.053-.267-.105-.425-.214-.905-.267-1.386-.267-.319,0-.639.053-.961.214-.211.105-.372.372-.319.639,0,.214.053.375.214.533.214.214.481.319.8.375l1.014.319c.425.105.8.372,1.119.691.214.267.319.642.319,1.014,0,.267-.053.586-.214.853-.105.267-.319.481-.533.642-.211.158-.533.319-.8.425-.211.056-.586.109-.905.109h0Z"></path><path class="uuid-dee3c514-8235-4331-a991-c847896701a6" d="M27.733,20.214c-2.4,1.758-5.814,2.667-8.8,2.667-3.947,0-7.786-1.442-10.719-4.109-.214-.21,0-.477.267-.319,3.253,1.919,6.986,2.881,10.719,2.881,2.828,0,5.6-.586,8.214-1.653.372-.161.747.267.319.533h0ZM28.105,21.814c-.105.214.109.319.323.158,1.277-1.067,1.6-3.305,1.333-3.625-.267-.319-2.509-.586-3.842.372-.214.161-.158.375.053.319.747-.105,2.456-.319,2.775.109.319.425-.375,1.972-.642,2.667h0Z"></path><rect class="uuid-dee3c514-8235-4331-a991-c847896701a6" x="70.4" y="24" width="1.333" height="1.333"></rect><path class="uuid-77e06a6e-a58c-4e57-80d7-1e6c01b44875" d="M77.067,26.667l-.725-3.058-.708,3.058h-.791l-1.15-4.067h.775l.783,3.292.725-3.175h.767l.733,3.167.775-3.283h.758l-1.158,4.067h-.784Z"></path><path class="uuid-77e06a6e-a58c-4e57-80d7-1e6c01b44875" d="M80.006,25.342c.011.294.095.511.25.65.156.139.395.208.717.208.289,0,.6-.053.934-.159v.484c-.134.072-.292.13-.475.166-.181.045-.364.067-.558.067-.495,0-.873-.134-1.125-.4-.256-.267-.384-.655-.384-1.166,0-.506.125-.895.375-1.175.25-.283.594-.425,1.042-.425.383,0,.678.105.883.316.203.205.308.5.308.883,0,.206-.016.389-.05.55h-1.916ZM80.755,24.1c-.21,0-.383.069-.516.208-.134.139-.211.328-.233.566h1.358v-.041c0-.236-.053-.42-.159-.542-.105-.128-.255-.191-.45-.191h0Z"></path><path class="uuid-77e06a6e-a58c-4e57-80d7-1e6c01b44875" d="M83.816,26.617c-.144.055-.3.083-.466.083-.228,0-.405-.061-.525-.192-.117-.133-.175-.325-.175-.575v-3.608h.691v3.558c0,.097.017.164.05.208.036.045.102.067.191.067.067,0,.144-.006.233-.016v.475Z"></path><path class="uuid-77e06a6e-a58c-4e57-80d7-1e6c01b44875" d="M85.581,26.617c-.144.055-.3.083-.467.083-.228,0-.405-.061-.525-.192-.117-.133-.175-.325-.175-.575v-3.608h.692v3.558c0,.097.016.164.05.208.036.045.103.067.192.067.066,0,.144-.006.233-.016v.475Z"></path><rect class="uuid-77e06a6e-a58c-4e57-80d7-1e6c01b44875" x="86.014" y="24.85" width="1.792" height=".6"></rect><path class="uuid-77e06a6e-a58c-4e57-80d7-1e6c01b44875" d="M91.083,26.667l-.342-1.017h-1.558l-.334,1.017h-.733l1.475-4.067h.775l1.475,4.067h-.758ZM89.35,25.125h1.225l-.617-1.875-.609,1.875Z"></path><path class="uuid-77e06a6e-a58c-4e57-80d7-1e6c01b44875" d="M92.311,26.667v-2.983h.575l.092.442c.156-.172.3-.292.433-.358.139-.07.289-.108.45-.108.078,0,.159.005.242.016v.634c-.114-.023-.222-.033-.333-.033-.289,0-.547.075-.767.225v2.167h-.692Z"></path><path class="uuid-77e06a6e-a58c-4e57-80d7-1e6c01b44875" d="M96.675,26.55c-.233.122-.511.183-.833.183-.455,0-.808-.134-1.058-.4-.247-.267-.367-.644-.367-1.133,0-.501.128-.887.383-1.167.253-.278.612-.417,1.067-.417.287,0,.55.058.784.175v.484c-.264-.073-.484-.109-.666-.109-.297,0-.514.081-.651.242-.139.156-.208.4-.208.733v.075c0,.331.069.572.208.733.137.156.353.233.651.233.21,0,.442-.041.691-.124v.491Z"></path><path class="uuid-77e06a6e-a58c-4e57-80d7-1e6c01b44875" d="M99.272,26.667v-1.975c0-.195-.039-.334-.117-.417-.081-.089-.203-.134-.375-.134-.261,0-.525.089-.791.258v2.267h-.692v-4.341h.692v1.65c.361-.256.727-.383,1.1-.383.286,0,.503.075.65.225.15.15.225.37.225.658v2.192h-.691Z"></path><path class="uuid-77e06a6e-a58c-4e57-80d7-1e6c01b44875" d="M100.819,26.667v-2.983h.692v2.983h-.692ZM101.161,23.191c-.128,0-.23-.036-.309-.108-.072-.07-.108-.169-.108-.292,0-.128.036-.225.108-.292.078-.07.181-.109.309-.109s.228.039.3.109c.078.066.117.164.117.292,0,.122-.039.222-.117.292-.073.072-.172.108-.3.108h0Z"></path><path class="uuid-77e06a6e-a58c-4e57-80d7-1e6c01b44875" d="M104.103,26.6c-.206.073-.425.109-.659.109-.311,0-.542-.07-.692-.217-.147-.144-.217-.367-.217-.667v-1.616h-.508v-.433l.533-.075.1-.841h.567v.825h.85v.525h-.85v1.584c0,.133.028.228.092.283.067.055.175.083.325.083.166,0,.319-.011.459-.041v.483Z"></path><path class="uuid-77e06a6e-a58c-4e57-80d7-1e6c01b44875" d="M105.144,25.342c.011.294.095.511.25.65.156.139.395.208.717.208.289,0,.599-.053.933-.159v.484c-.133.072-.292.13-.475.166-.181.045-.363.067-.558.067-.494,0-.872-.134-1.125-.4-.255-.267-.383-.655-.383-1.166,0-.506.125-.895.375-1.175.25-.283.594-.425,1.042-.425.383,0,.678.105.883.316.203.205.309.5.309.883,0,.206-.016.389-.05.55h-1.917ZM105.894,24.1c-.211,0-.383.069-.516.208-.134.139-.211.328-.234.566h1.359v-.041c0-.236-.053-.42-.159-.542-.106-.128-.255-.191-.45-.191h0Z"></path><path class="uuid-77e06a6e-a58c-4e57-80d7-1e6c01b44875" d="M109.889,26.55c-.233.122-.511.183-.833.183-.455,0-.808-.134-1.058-.4-.247-.267-.367-.644-.367-1.133,0-.501.128-.887.384-1.167.252-.278.611-.417,1.067-.417.286,0,.55.058.783.175v.484c-.264-.073-.484-.109-.666-.109-.297,0-.514.081-.65.242-.139.156-.208.4-.208.733v.075c0,.331.069.572.208.733.136.156.353.233.65.233.21,0,.442-.041.691-.124v.491Z"></path><path class="uuid-77e06a6e-a58c-4e57-80d7-1e6c01b44875" d="M112.236,26.6c-.206.073-.425.109-.658.109-.311,0-.541-.07-.691-.217-.147-.144-.217-.367-.217-.667v-1.616h-.508v-.433l.533-.075.1-.841h.567v.825h.85v.525h-.85v1.584c0,.133.028.228.091.283.067.055.176.083.326.083.166,0,.319-.011.458-.041v.483Z"></path><path class="uuid-77e06a6e-a58c-4e57-80d7-1e6c01b44875" d="M113.275,25.342c.011.294.095.511.25.65.155.139.394.208.716.208.289,0,.6-.053.934-.159v.484c-.134.072-.292.13-.475.166-.181.045-.364.067-.558.067-.495,0-.873-.134-1.125-.4-.256-.267-.383-.655-.383-1.166,0-.506.124-.895.375-1.175.25-.283.594-.425,1.042-.425.383,0,.678.105.883.316.203.205.309.5.309.883,0,.206-.017.389-.05.55h-1.916ZM114.025,24.1c-.211,0-.383.069-.517.208-.133.139-.211.328-.233.566h1.358v-.041c0-.236-.053-.42-.159-.542-.105-.128-.255-.191-.449-.191h0Z"></path><path class="uuid-77e06a6e-a58c-4e57-80d7-1e6c01b44875" d="M117.995,26.667l-.075-.283c-.261.233-.567.35-.917.35-.378,0-.681-.137-.908-.417-.223-.284-.334-.661-.334-1.133,0-.311.05-.586.15-.825.103-.239.252-.425.442-.558.195-.137.422-.208.683-.208.311,0,.594.105.858.308v-1.574h.692v4.341h-.592ZM117.22,26.183c.233,0,.458-.069.675-.216v-1.617c-.2-.136-.422-.208-.666-.208-.265,0-.453.083-.575.25-.122.161-.183.414-.183.758,0,.689.25,1.033.75,1.033h0Z"></path><path class="uuid-77e06a6e-a58c-4e57-80d7-1e6c01b44875" d="M121.728,25.133v1.533h-.7v-4.067h1.508c.406,0,.725.114.959.342.236.228.358.539.358.924,0,.398-.122.706-.358.934-.233.223-.553.334-.959.334h-.808ZM121.728,24.583h.733c.228,0,.4-.061.517-.183.117-.119.175-.299.175-.533s-.058-.411-.175-.533c-.117-.119-.289-.183-.517-.183h-.733v1.433Z"></path><path class="uuid-77e06a6e-a58c-4e57-80d7-1e6c01b44875" d="M126.258,26.667l-.05-.283c-.139.117-.292.208-.458.274-.166.067-.331.1-.491.1-.278,0-.506-.083-.676-.25-.166-.166-.25-.378-.25-.641,0-.286.102-.519.308-.692.211-.172.495-.258.85-.258.206,0,.433.031.683.092v-.35c0-.2-.045-.339-.134-.417-.083-.078-.233-.117-.45-.117-.305,0-.656.064-1.05.191v-.483c.144-.07.319-.131.525-.175.211-.045.42-.067.634-.067.383,0,.666.078.85.233.183.156.275.4.275.733v2.108h-.567ZM125.45,26.258c.111,0,.228-.022.35-.067.128-.05.253-.119.375-.208v-.567c-.211-.044-.398-.067-.559-.067-.405,0-.608.159-.608.475,0,.139.039.247.117.325.078.073.186.109.325.109h0Z"></path><path class="uuid-77e06a6e-a58c-4e57-80d7-1e6c01b44875" d="M127.653,26.667v-2.983h.575l.092.442c.156-.172.3-.292.434-.358.139-.07.289-.108.449-.108.078,0,.159.005.242.016v.634c-.114-.023-.222-.033-.334-.033-.289,0-.547.075-.767.225v2.167h-.691Z"></path><path class="uuid-77e06a6e-a58c-4e57-80d7-1e6c01b44875" d="M131.642,26.6c-.206.073-.425.109-.658.109-.311,0-.541-.07-.691-.217-.147-.144-.217-.367-.217-.667v-1.616h-.508v-.433l.533-.075.1-.841h.567v.825h.85v.525h-.85v1.584c0,.133.028.228.092.283.066.055.175.083.325.083.166,0,.319-.011.458-.041v.483Z"></path><path class="uuid-77e06a6e-a58c-4e57-80d7-1e6c01b44875" d="M134.175,26.667v-1.975c0-.195-.039-.334-.117-.417-.081-.089-.203-.134-.375-.134-.261,0-.525.089-.791.258v2.267h-.692v-2.983h.575l.067.325c.366-.278.75-.417,1.15-.417.286,0,.503.075.65.225.15.15.225.37.225.658v2.192h-.691Z"></path><path class="uuid-77e06a6e-a58c-4e57-80d7-1e6c01b44875" d="M136.178,25.342c.011.294.095.511.25.65.155.139.394.208.716.208.289,0,.6-.053.934-.159v.484c-.134.072-.292.13-.475.166-.181.045-.364.067-.558.067-.495,0-.873-.134-1.125-.4-.256-.267-.383-.655-.383-1.166,0-.506.124-.895.375-1.175.25-.283.594-.425,1.042-.425.383,0,.678.105.883.316.203.205.309.5.309.883,0,.206-.017.389-.05.55h-1.916ZM136.928,24.1c-.211,0-.383.069-.517.208-.133.139-.211.328-.233.566h1.358v-.041c0-.236-.053-.42-.158-.542-.106-.128-.256-.191-.45-.191h0Z"></path><path class="uuid-77e06a6e-a58c-4e57-80d7-1e6c01b44875" d="M138.822,26.667v-2.983h.575l.092.442c.156-.172.3-.292.434-.358.139-.07.289-.108.449-.108.078,0,.159.005.242.016v.634c-.114-.023-.222-.033-.333-.033-.289,0-.548.075-.767.225v2.167h-.691Z"></path><path class="uuid-77e06a6e-a58c-4e57-80d7-1e6c01b44875" d="M74.783,31v1.533h-.7v-4.067h1.508c.405,0,.725.114.958.342.236.228.358.539.358.924,0,.398-.122.706-.358.934-.233.223-.553.334-.958.334h-.809ZM74.783,30.45h.733c.228,0,.4-.061.517-.183.117-.119.175-.299.175-.533s-.058-.411-.175-.533c-.117-.119-.289-.183-.517-.183h-.733v1.433Z"></path><path class="uuid-77e06a6e-a58c-4e57-80d7-1e6c01b44875" d="M77.581,32.533v-2.983h.575l.092.442c.156-.172.3-.292.434-.358.139-.07.289-.108.449-.108.078,0,.159.005.242.016v.634c-.114-.023-.222-.033-.334-.033-.289,0-.547.075-.767.225v2.167h-.691Z"></path><path class="uuid-77e06a6e-a58c-4e57-80d7-1e6c01b44875" d="M81.136,32.625c-.456,0-.814-.136-1.067-.417-.256-.283-.383-.675-.383-1.175,0-.495.127-.881.383-1.158.252-.278.611-.417,1.067-.417.449,0,.803.139,1.058.417.255.277.383.663.383,1.158,0,.5-.128.892-.383,1.175-.255.281-.609.417-1.058.417h0ZM81.136,32.075c.486,0,.733-.344.733-1.041,0-.683-.247-1.025-.733-1.025-.498,0-.742.342-.742,1.025,0,.697.244,1.041.742,1.041h0Z"></path><path class="uuid-77e06a6e-a58c-4e57-80d7-1e6c01b44875" d="M85.172,32.15c-.25.217-.538.325-.858.325-.363,0-.653-.136-.875-.408-.217-.269-.325-.636-.325-1.092,0-.294.05-.556.15-.784.1-.228.242-.405.425-.533.183-.133.4-.2.65-.2.338,0,.633.122.883.358l.058-.267h.575v2.775c0,.478-.127.845-.383,1.1-.255.255-.622.383-1.092.383-.364,0-.703-.078-1.025-.233v-.5c.366.122.694.183.983.183.294,0,.505-.067.633-.201.134-.133.2-.356.2-.658v-.25ZM84.522,31.942c.228,0,.444-.078.65-.233v-1.5c-.2-.139-.416-.208-.65-.208-.239,0-.417.08-.533.233-.111.155-.166.397-.166.725,0,.656.233.983.7.983h0Z"></path><path class="uuid-77e06a6e-a58c-4e57-80d7-1e6c01b44875" d="M86.703,32.533v-2.983h.575l.092.442c.156-.172.3-.292.434-.358.139-.07.289-.108.449-.108.078,0,.159.005.242.016v.634c-.114-.023-.222-.033-.333-.033-.289,0-.548.075-.767.225v2.167h-.691Z"></path><path class="uuid-77e06a6e-a58c-4e57-80d7-1e6c01b44875" d="M90.7,32.533l-.05-.283c-.139.117-.292.208-.459.274-.166.067-.331.1-.491.1-.278,0-.506-.083-.676-.25-.166-.166-.25-.378-.25-.641,0-.286.102-.519.308-.692.211-.172.495-.258.85-.258.206,0,.433.031.683.092v-.35c0-.2-.045-.339-.134-.417-.083-.078-.233-.117-.45-.117-.305,0-.655.064-1.05.191v-.483c.144-.07.319-.131.525-.175.211-.045.42-.067.634-.067.383,0,.666.078.85.233.183.156.275.4.275.733v2.108h-.567ZM89.892,32.125c.111,0,.228-.022.35-.067.128-.05.253-.119.375-.208v-.567c-.211-.044-.398-.067-.558-.067-.406,0-.609.159-.609.475,0,.139.039.247.117.325.078.073.186.109.325.109h0Z"></path><path class="uuid-77e06a6e-a58c-4e57-80d7-1e6c01b44875" d="M95.869,32.533v-2.025c0-.178-.036-.305-.108-.383-.067-.077-.181-.117-.341-.117-.122,0-.253.022-.392.058-.134.039-.256.092-.358.159v2.308h-.692v-2.025c0-.178-.038-.305-.108-.383-.067-.077-.181-.117-.342-.117-.111,0-.233.022-.366.058-.128.033-.256.086-.375.159v2.308h-.691v-2.983h.575l.058.3c.201-.134.386-.231.559-.292.169-.066.347-.1.525-.1.361,0,.611.139.75.408.388-.27.761-.408,1.125-.408.277,0,.491.075.641.225.156.15.233.37.233.658v2.192h-.692Z"></path><rect class="uuid-dee3c514-8235-4331-a991-c847896701a6" x="70.4" y="37.867" width="1.333" height="1.333"></rect><path class="uuid-77e06a6e-a58c-4e57-80d7-1e6c01b44875" d="M76.925,40.425c-.306.117-.658.175-1.058.175-.648,0-1.134-.17-1.467-.508-.331-.344-.491-.855-.491-1.533,0-.689.169-1.22.508-1.592.345-.378.836-.566,1.476-.566.356,0,.678.053.975.158v.592c-.389-.083-.692-.125-.909-.125-.444,0-.774.117-.991.351-.214.228-.316.583-.316,1.067v.141c0,.472.102.825.316,1.058.217.228.545.342.983.342.244,0,.569-.05.975-.15v.592Z"></path><path class="uuid-77e06a6e-a58c-4e57-80d7-1e6c01b44875" d="M78.711,40.484c-.145.055-.3.083-.467.083-.228,0-.405-.061-.525-.192-.117-.133-.175-.325-.175-.575v-3.608h.692v3.558c0,.097.016.164.05.208.036.045.102.067.191.067.067,0,.144-.006.234-.016v.475Z"></path><path class="uuid-77e06a6e-a58c-4e57-80d7-1e6c01b44875" d="M80.603,40.625c-.456,0-.814-.136-1.067-.417-.256-.283-.383-.675-.383-1.175,0-.495.127-.881.383-1.158.252-.278.611-.417,1.067-.417.449,0,.803.139,1.058.417.255.277.383.663.383,1.158,0,.5-.128.892-.383,1.175-.255.281-.609.417-1.058.417h0ZM80.603,40.075c.486,0,.733-.344.733-1.041,0-.683-.247-1.025-.733-1.025-.498,0-.742.342-.742,1.025,0,.697.244,1.041.742,1.041h0Z"></path><path class="uuid-77e06a6e-a58c-4e57-80d7-1e6c01b44875" d="M84.736,40.533l-.067-.325c-.366.281-.733.417-1.099.417-.278,0-.492-.08-.642-.233-.15-.156-.225-.378-.225-.667v-2.175h.691v1.966c0,.198.036.336.117.425.078.089.203.133.375.133.245,0,.489-.078.733-.241v-2.283h.692v2.983h-.575Z"></path><path class="uuid-77e06a6e-a58c-4e57-80d7-1e6c01b44875" d="M88.239,40.533l-.075-.283c-.261.233-.566.35-.917.35-.378,0-.681-.137-.908-.417-.222-.284-.334-.661-.334-1.133,0-.311.05-.586.15-.825.103-.239.253-.425.442-.558.195-.137.422-.208.683-.208.311,0,.594.105.858.308v-1.574h.692v4.341h-.592ZM87.464,40.05c.233,0,.459-.069.675-.216v-1.617c-.2-.136-.422-.208-.666-.208-.264,0-.453.083-.575.25-.122.161-.183.414-.183.758,0,.689.25,1.033.75,1.033h0Z"></path><path class="uuid-77e06a6e-a58c-4e57-80d7-1e6c01b44875" d="M91.822,38.5c0,.506.103.889.309,1.15.21.255.511.383.908.383.395,0,.694-.128.9-.383.203-.261.308-.644.308-1.15,0-.5-.105-.878-.308-1.134-.206-.261-.506-.392-.9-.392-.398,0-.698.131-.908.392-.206.255-.309.634-.309,1.134h0ZM91.097,38.5c0-.428.075-.8.225-1.117.153-.319.378-.569.666-.742.294-.178.645-.267,1.05-.267.386,0,.727.084,1.017.25.294.166.519.411.683.733.161.322.241.705.241,1.142,0,.433-.078.813-.233,1.133-.15.317-.372.564-.666.742-.294.17-.642.259-1.042.259-.398,0-.739-.084-1.033-.25-.289-.169-.514-.417-.675-.733-.156-.319-.234-.703-.234-1.15h0Z"></path><path class="uuid-77e06a6e-a58c-4e57-80d7-1e6c01b44875" d="M95.708,41.742v-4.191h.575l.058.3c.139-.128.292-.225.459-.292.166-.066.336-.1.517-.1.369,0,.669.139.891.417.223.277.334.656.334,1.125,0,.314-.055.586-.158.825-.1.239-.247.427-.442.567-.188.139-.411.208-.666.208-.166,0-.328-.028-.484-.083-.15-.061-.28-.142-.392-.242v1.466h-.691ZM97.1,38.008c-.255,0-.489.073-.7.217v1.6c.217.15.45.225.7.225s.433-.083.55-.25c.119-.17.183-.434.183-.784,0-.344-.064-.597-.183-.758-.117-.167-.3-.25-.55-.25h0Z"></path><path class="uuid-77e06a6e-a58c-4e57-80d7-1e6c01b44875" d="M99.717,39.209c.011.294.094.511.25.65.156.139.395.208.717.208.289,0,.6-.053.933-.159v.484c-.133.072-.292.13-.475.166-.18.045-.363.067-.558.067-.494,0-.872-.134-1.125-.4-.255-.267-.383-.655-.383-1.166,0-.506.125-.895.375-1.175.25-.283.594-.425,1.041-.425.383,0,.678.105.884.316.203.205.308.5.308.883,0,.206-.016.389-.05.55h-1.916ZM100.466,37.967c-.211,0-.383.069-.516.208-.134.139-.211.328-.233.566h1.358v-.041c0-.236-.053-.42-.159-.542-.105-.128-.255-.191-.45-.191h0Z"></path><path class="uuid-77e06a6e-a58c-4e57-80d7-1e6c01b44875" d="M102.361,40.533v-2.983h.575l.092.442c.156-.172.3-.292.433-.358.139-.07.289-.108.45-.108.078,0,.159.005.242.016v.634c-.114-.023-.223-.033-.334-.033-.289,0-.547.075-.767.225v2.167h-.692Z"></path><path class="uuid-77e06a6e-a58c-4e57-80d7-1e6c01b44875" d="M106.358,40.533l-.05-.283c-.139.117-.292.208-.458.274-.167.067-.331.1-.492.1-.277,0-.506-.083-.675-.25-.166-.166-.25-.378-.25-.641,0-.286.103-.519.309-.692.211-.172.494-.258.85-.258.206,0,.434.031.683.092v-.35c0-.2-.044-.339-.133-.417-.083-.078-.233-.117-.45-.117-.306,0-.656.064-1.05.191v-.483c.144-.07.32-.131.526-.175.211-.045.419-.067.633-.067.383,0,.667.078.85.233.183.156.274.4.274.733v2.108h-.567ZM105.55,40.125c.111,0,.228-.022.35-.067.128-.05.252-.119.375-.208v-.567c-.211-.044-.397-.067-.558-.067-.405,0-.608.159-.608.475,0,.139.038.247.117.325.077.073.186.109.325.109h0Z"></path><path class="uuid-77e06a6e-a58c-4e57-80d7-1e6c01b44875" d="M109.478,40.466c-.206.073-.425.109-.658.109-.311,0-.541-.07-.691-.217-.147-.144-.217-.367-.217-.667v-1.616h-.508v-.433l.533-.075.1-.841h.567v.825h.85v.525h-.85v1.584c0,.133.028.228.092.283.066.055.175.083.325.083.166,0,.319-.011.458-.041v.483Z"></path><path class="uuid-77e06a6e-a58c-4e57-80d7-1e6c01b44875" d="M110.059,40.533v-2.983h.691v2.983h-.691ZM110.4,37.058c-.128,0-.23-.036-.309-.108-.072-.07-.108-.169-.108-.292,0-.128.036-.225.108-.292.078-.07.181-.109.309-.109s.228.039.3.109c.078.066.117.164.117.292,0,.122-.039.222-.117.292-.073.072-.172.108-.3.108h0Z"></path><path class="uuid-77e06a6e-a58c-4e57-80d7-1e6c01b44875" d="M112.911,40.625c-.455,0-.814-.136-1.067-.417-.255-.283-.383-.675-.383-1.175,0-.495.128-.881.383-1.158.253-.278.612-.417,1.067-.417.45,0,.803.139,1.059.417.255.277.383.663.383,1.158,0,.5-.128.892-.383,1.175-.256.281-.609.417-1.059.417h0ZM112.911,40.075c.486,0,.733-.344.733-1.041,0-.683-.247-1.025-.733-1.025-.497,0-.742.342-.742,1.025,0,.697.245,1.041.742,1.041h0Z"></path><path class="uuid-77e06a6e-a58c-4e57-80d7-1e6c01b44875" d="M117.02,40.533v-1.975c0-.195-.039-.334-.117-.417-.081-.089-.203-.134-.375-.134-.261,0-.525.089-.791.258v2.267h-.692v-2.983h.575l.067.325c.366-.278.75-.417,1.15-.417.286,0,.503.075.65.225.15.15.225.37.225.658v2.192h-.691Z"></path><path class="uuid-77e06a6e-a58c-4e57-80d7-1e6c01b44875" d="M119.892,39.725c0-.089-.028-.158-.084-.208-.055-.053-.158-.111-.308-.166l-.484-.183c-.439-.166-.658-.442-.658-.825,0-.272.1-.486.3-.641.206-.161.478-.242.817-.242.328,0,.622.064.883.191v.484c-.306-.1-.589-.15-.842-.15-.181,0-.308.031-.391.083-.084.05-.125.134-.125.25,0,.083.028.153.083.208.061.05.169.108.334.175l.449.175c.234.089.4.197.501.325.102.122.158.281.158.475,0,.289-.105.522-.316.692-.211.172-.506.258-.875.258-.183,0-.363-.022-.541-.067-.178-.036-.334-.092-.466-.159v-.491c.378.122.711.183,1,.183.194,0,.336-.028.425-.092.095-.061.142-.153.142-.275h0Z"></path><path class="uuid-77e06a6e-a58c-4e57-80d7-1e6c01b44875" d="M123.475,38.658c-.328-.122-.567-.27-.717-.442-.144-.178-.217-.397-.217-.659,0-.361.128-.644.383-.858.256-.216.6-.325,1.033-.325.361,0,.728.073,1.1.208v.567c-.383-.117-.73-.175-1.042-.175-.522,0-.783.175-.783.525,0,.134.047.247.142.334.095.083.261.167.5.25l.5.183c.328.122.561.27.708.442.15.172.225.391.225.658,0,.398-.139.706-.417.934-.278.222-.658.334-1.142.334-.213,0-.419-.023-.624-.067-.206-.039-.389-.095-.542-.167v-.566c.186.063.386.108.592.141.211.033.403.05.575.05.278,0,.486-.044.634-.142.15-.1.225-.245.225-.433,0-.134-.044-.242-.133-.325-.089-.089-.247-.178-.475-.267l-.525-.201Z"></path><path class="uuid-77e06a6e-a58c-4e57-80d7-1e6c01b44875" d="M127.319,40.625c-.456,0-.814-.136-1.067-.417-.255-.283-.383-.675-.383-1.175,0-.495.128-.881.383-1.158.252-.278.611-.417,1.067-.417.45,0,.803.139,1.058.417.256.277.383.663.383,1.158,0,.5-.127.892-.383,1.175-.255.281-.608.417-1.058.417h0ZM127.319,40.075c.486,0,.733-.344.733-1.041,0-.683-.247-1.025-.733-1.025-.497,0-.742.342-.742,1.025,0,.697.245,1.041.742,1.041h0Z"></path><path class="uuid-77e06a6e-a58c-4e57-80d7-1e6c01b44875" d="M129.653,40.533v-2.458h-.525v-.433l.525-.075v-.4c0-.703.328-1.059.992-1.059.236,0,.444.039.617.117v.475c-.23-.028-.38-.041-.45-.041-.166,0-.286.033-.358.1-.072.061-.108.167-.108.317v.475h.875v.525h-.875v2.458h-.692Z"></path><path class="uuid-77e06a6e-a58c-4e57-80d7-1e6c01b44875" d="M133.408,40.466c-.206.073-.425.109-.658.109-.311,0-.542-.07-.692-.217-.147-.144-.217-.367-.217-.667v-1.616h-.508v-.433l.533-.075.1-.841h.567v.825h.85v.525h-.85v1.584c0,.133.028.228.092.283.067.055.175.083.325.083.166,0,.319-.011.458-.041v.483Z"></path><path class="uuid-77e06a6e-a58c-4e57-80d7-1e6c01b44875" d="M136.405,40.533l-.583-2.241-.592,2.241h-.675l-.967-2.983h.742l.584,2.275.599-2.275h.65l.6,2.316.617-2.316h.692l-.983,2.983h-.683Z"></path><path class="uuid-77e06a6e-a58c-4e57-80d7-1e6c01b44875" d="M140.281,40.533l-.05-.283c-.139.117-.292.208-.458.274-.167.067-.331.1-.492.1-.277,0-.506-.083-.675-.25-.166-.166-.25-.378-.25-.641,0-.286.103-.519.309-.692.211-.172.494-.258.85-.258.206,0,.434.031.683.092v-.35c0-.2-.044-.339-.133-.417-.083-.078-.233-.117-.45-.117-.306,0-.656.064-1.05.191v-.483c.145-.07.32-.131.526-.175.211-.045.42-.067.633-.067.383,0,.667.078.85.233.183.156.274.4.274.733v2.108h-.566ZM139.472,40.125c.111,0,.228-.022.35-.067.128-.05.252-.119.375-.208v-.567c-.211-.044-.397-.067-.558-.067-.405,0-.608.159-.608.475,0,.139.038.247.117.325.078.073.186.109.325.109h0Z"></path><path class="uuid-77e06a6e-a58c-4e57-80d7-1e6c01b44875" d="M141.672,40.533v-2.983h.575l.092.442c.156-.172.3-.292.433-.358.139-.07.289-.108.45-.108.078,0,.159.005.242.016v.634c-.114-.023-.222-.033-.334-.033-.289,0-.547.075-.767.225v2.167h-.691Z"></path><path class="uuid-77e06a6e-a58c-4e57-80d7-1e6c01b44875" d="M144.422,39.209c.011.294.095.511.25.65.156.139.395.208.717.208.289,0,.6-.053.934-.159v.484c-.134.072-.292.13-.475.166-.181.045-.364.067-.559.067-.494,0-.872-.134-1.125-.4-.255-.267-.383-.655-.383-1.166,0-.506.125-.895.375-1.175.25-.283.594-.425,1.042-.425.383,0,.678.105.883.316.203.205.308.5.308.883,0,.206-.016.389-.05.55h-1.916ZM145.172,37.967c-.21,0-.383.069-.516.208-.134.139-.211.328-.233.566h1.358v-.041c0-.236-.053-.42-.159-.542-.105-.128-.255-.191-.45-.191h0Z"></path><path class="uuid-77e06a6e-a58c-4e57-80d7-1e6c01b44875" d="M76.925,46.292c-.306.117-.658.175-1.058.175-.648,0-1.134-.17-1.467-.508-.331-.344-.491-.855-.491-1.533,0-.689.169-1.22.508-1.592.345-.378.836-.566,1.476-.566.356,0,.678.053.975.158v.592c-.389-.083-.692-.125-.909-.125-.444,0-.774.117-.991.351-.214.228-.316.583-.316,1.067v.141c0,.472.102.825.316,1.058.217.228.545.342.983.342.244,0,.569-.05.975-.15v.592Z"></path><path class="uuid-77e06a6e-a58c-4e57-80d7-1e6c01b44875" d="M78.836,46.492c-.455,0-.814-.136-1.067-.417-.255-.283-.383-.675-.383-1.175,0-.495.128-.881.383-1.158.253-.278.612-.417,1.067-.417.45,0,.803.139,1.059.417.255.277.383.663.383,1.158,0,.5-.128.892-.383,1.175-.256.281-.609.417-1.059.417h0ZM78.836,45.941c.486,0,.734-.344.734-1.041,0-.683-.247-1.025-.734-1.025-.497,0-.742.342-.742,1.025,0,.697.245,1.041.742,1.041h0Z"></path><path class="uuid-77e06a6e-a58c-4e57-80d7-1e6c01b44875" d="M84.747,46.4v-2.025c0-.178-.036-.305-.109-.383-.066-.077-.18-.117-.341-.117-.122,0-.252.022-.392.058-.133.039-.255.092-.358.159v2.308h-.691v-2.025c0-.178-.039-.305-.109-.383-.066-.077-.181-.117-.341-.117-.111,0-.233.022-.367.058-.127.033-.255.086-.375.159v2.308h-.692v-2.983h.575l.058.3c.2-.134.386-.231.558-.292.169-.066.347-.1.525-.1.361,0,.612.139.75.408.389-.27.761-.408,1.125-.408.278,0,.491.075.641.225.156.15.233.37.233.658v2.192h-.691Z"></path><path class="uuid-77e06a6e-a58c-4e57-80d7-1e6c01b44875" d="M86.269,47.608v-4.191h.575l.058.3c.139-.128.292-.225.459-.292.166-.066.336-.1.516-.1.37,0,.67.139.892.417.223.277.334.656.334,1.125,0,.314-.055.586-.159.825-.1.239-.247.427-.442.567-.189.139-.411.208-.666.208-.167,0-.328-.028-.484-.083-.15-.061-.281-.142-.392-.242v1.466h-.692ZM87.661,43.875c-.255,0-.489.073-.7.217v1.6c.217.15.45.225.7.225s.434-.083.55-.25c.119-.17.183-.434.183-.784,0-.344-.064-.597-.183-.758-.117-.167-.3-.25-.55-.25h0Z"></path><path class="uuid-77e06a6e-a58c-4e57-80d7-1e6c01b44875" d="M90.278,45.075c.011.294.095.511.25.65.155.139.394.208.716.208.289,0,.6-.053.934-.159v.484c-.133.072-.292.13-.475.166-.181.045-.364.067-.558.067-.494,0-.873-.134-1.125-.4-.256-.267-.383-.655-.383-1.166,0-.506.125-.895.375-1.175.25-.283.594-.425,1.042-.425.383,0,.678.105.883.316.203.205.309.5.309.883,0,.206-.017.389-.05.55h-1.916ZM91.028,43.834c-.211,0-.383.069-.517.208-.133.139-.211.328-.233.566h1.358v-.041c0-.236-.053-.42-.158-.542-.106-.128-.256-.191-.45-.191h0Z"></path><path class="uuid-77e06a6e-a58c-4e57-80d7-1e6c01b44875" d="M94.647,46.333c-.206.073-.425.109-.658.109-.311,0-.542-.07-.692-.217-.147-.144-.216-.367-.216-.667v-1.616h-.508v-.433l.533-.075.1-.841h.567v.825h.85v.525h-.85v1.584c0,.133.028.228.092.283.067.055.175.083.325.083.167,0,.319-.011.459-.041v.483Z"></path><path class="uuid-77e06a6e-a58c-4e57-80d7-1e6c01b44875" d="M95.686,45.075c.011.294.094.511.25.65.156.139.395.208.717.208.289,0,.6-.053.933-.159v.484c-.133.072-.292.13-.475.166-.18.045-.363.067-.558.067-.494,0-.872-.134-1.125-.4-.255-.267-.383-.655-.383-1.166,0-.506.125-.895.375-1.175.25-.283.594-.425,1.041-.425.384,0,.678.105.884.316.203.205.308.5.308.883,0,.206-.016.389-.05.55h-1.916ZM96.436,43.834c-.211,0-.383.069-.516.208-.134.139-.211.328-.233.566h1.358v-.041c0-.236-.053-.42-.159-.542-.105-.128-.255-.191-.45-.191h0Z"></path><path class="uuid-77e06a6e-a58c-4e57-80d7-1e6c01b44875" d="M100.306,46.4v-1.975c0-.195-.039-.334-.117-.417-.081-.089-.203-.134-.375-.134-.261,0-.525.089-.791.258v2.267h-.692v-2.983h.575l.067.325c.366-.278.75-.417,1.15-.417.286,0,.503.075.65.225.15.15.225.37.225.658v2.192h-.691Z"></path><path class="uuid-77e06a6e-a58c-4e57-80d7-1e6c01b44875" d="M103.927,46.283c-.233.122-.511.183-.833.183-.456,0-.809-.134-1.059-.4-.247-.267-.366-.644-.366-1.133,0-.501.127-.887.383-1.167.252-.278.611-.417,1.067-.417.286,0,.55.058.783.175v.484c-.264-.073-.483-.109-.666-.109-.297,0-.514.081-.65.242-.139.156-.208.4-.208.733v.075c0,.331.069.572.208.733.136.156.353.233.65.233.211,0,.442-.041.691-.124v.491Z"></path><path class="uuid-77e06a6e-a58c-4e57-80d7-1e6c01b44875" d="M105.333,46.433l-1.167-3.017h.742l.75,2.358.775-2.358h.708l-1.342,3.458c-.105.283-.233.486-.383.608-.15.128-.344.192-.583.192-.172,0-.339-.028-.492-.083v-.484c.095.022.195.033.3.033.167,0,.292-.031.375-.092.083-.064.161-.197.242-.408l.075-.208Z"></path><path class="uuid-dee3c514-8235-4331-a991-c847896701a6" d="M42.986,1.333l19.681,19.681v41.653H20.8L1.333,43.2V1.333h41.653M43.519,0H0v43.733l20.267,20.267h43.733V20.481L43.519,0Z"></path></g></svg>