<?xml version="1.0" encoding="UTF-8"?><svg id="uuid-220a5ed9-bd42-4843-96cb-335d3bde9289" xmlns="http://www.w3.org/2000/svg" viewBox="0 0 64 64"><defs><style>.uuid-34bec8f5-41f5-40f0-9ed3-0e373191fd53{fill:#ff9900;}.uuid-3aa4c306-befb-47a1-9093-aaea9d7a6b34{fill:#fff;}.uuid-148ca8ca-52c4-4809-8129-c00b701cfdb8{fill:#242e3d;}</style></defs><g id="uuid-7a8dc5b1-417c-4a6a-8cd1-6825ff1175e8"><path class="uuid-3aa4c306-befb-47a1-9093-aaea9d7a6b34" d="M43.519,0H0v43.733l20.267,20.267h43.733V20.481L43.519,0Z"></path><path class="uuid-34bec8f5-41f5-40f0-9ed3-0e373191fd53" d="M42.986,1.333l19.681,19.681v41.653H20.8L1.333,43.2V1.333h41.653M43.519,0H0v43.733l20.267,20.267h43.733V20.481L43.519,0Z"></path><path class="uuid-148ca8ca-52c4-4809-8129-c00b701cfdb8" d="M14.239,14.667c0,.214,0,.428.109.639.053.161.158.375.214.533.053.056.053.109.053.161,0,.105-.053.161-.161.214l-.481.319h-.158c-.109,0-.161-.053-.214-.105-.105-.109-.214-.214-.267-.323-.053-.105-.161-.267-.214-.425-.533.639-1.281,1.014-2.133,1.014-.533.053-1.067-.161-1.439-.533-.375-.375-.533-.856-.533-1.39,0-.586.214-1.119.639-1.491.481-.375,1.119-.586,1.761-.586.267,0,.533,0,.747.053l.8.158v-.533c.053-.425-.056-.853-.323-1.172-.319-.267-.744-.372-1.172-.319-.267,0-.533.053-.8.105s-.533.161-.8.267c-.105.053-.161.053-.267.109h-.105c-.109,0-.161-.056-.161-.214v-.375c0-.105,0-.158.053-.267.053-.053.109-.105.214-.158.267-.161.586-.267.905-.319.375-.109.747-.161,1.123-.161.691-.053,1.333.161,1.867.586.425.481.639,1.119.586,1.761l.158,2.453ZM11.305,15.733c.267,0,.481-.053.747-.105.267-.109.481-.267.695-.481.105-.109.214-.267.267-.481s.053-.428.053-.639v-.323c-.214-.053-.428-.105-.639-.105-.214-.053-.428-.053-.695-.053-.372-.053-.747.053-1.067.267-.428.425-.481,1.119-.105,1.6.211.267.477.372.744.319h0ZM17.119,16.533c-.105,0-.214,0-.267-.053-.053-.053-.105-.161-.158-.267l-1.709-5.6c-.053-.109-.053-.214-.053-.267,0-.109.053-.161.105-.161h.747c.109,0,.214,0,.267.053.053.056.109.161.161.267l1.225,4.747,1.123-4.747c0-.105.053-.211.158-.267.109-.053.214-.053.267-.053h.586c.109,0,.214,0,.267.053.056.056.109.161.161.267l1.119,4.856,1.228-4.856c0-.105.053-.211.158-.267.109-.053.161-.053.267-.053h.695c.105,0,.161.053.161.109v.158c0,.053-.056.109-.056.161l-1.705,5.547c0,.105-.053.21-.161.267-.053.105-.158.105-.267.105h-.639c-.105,0-.214,0-.267-.053-.053-.109-.105-.161-.161-.267l-1.119-4.642-1.119,4.642c0,.105-.053.214-.161.267-.053.053-.158.053-.211.053h-.642ZM26.4,16.747c-.372,0-.747-.053-1.119-.109-.267-.053-.586-.158-.853-.267-.161-.053-.267-.21-.267-.425v-.375c0-.158.053-.21.158-.21h.109c.053,0,.105.053.158.053.267.105.533.214.8.267.267.053.586.105.853.105.375,0,.747-.053,1.067-.267.214-.158.375-.425.375-.691,0-.214-.053-.375-.214-.481-.214-.161-.481-.319-.747-.375l-1.067-.319c-.425-.105-.853-.372-1.172-.747-.214-.319-.375-.691-.375-1.067,0-.267.056-.533.214-.8.109-.211.319-.425.533-.586.214-.158.481-.319.747-.372.319-.109.586-.109.905-.109.161,0,.323,0,.481.056.161,0,.319.053.481.105s.267.053.428.105c.105.056.211.056.319.109.105.053.158.105.214.158.053.056.053.161.053.267v.323c0,.158-.053.211-.161.211-.105,0-.214-.053-.267-.105-.425-.214-.905-.267-1.386-.267-.319,0-.639.053-.961.214-.211.105-.372.372-.319.639,0,.214.053.375.214.533.214.214.481.319.8.375l1.014.319c.425.105.8.372,1.119.691.214.267.319.642.319,1.014,0,.267-.053.586-.214.853-.105.267-.319.481-.533.642-.211.158-.533.319-.8.425-.211.056-.586.109-.905.109h0Z"></path><path class="uuid-34bec8f5-41f5-40f0-9ed3-0e373191fd53" d="M27.733,20.214c-2.4,1.758-5.814,2.667-8.8,2.667-3.947,0-7.786-1.442-10.719-4.109-.214-.21,0-.477.267-.319,3.253,1.919,6.986,2.881,10.719,2.881,2.828,0,5.6-.586,8.214-1.653.372-.161.747.267.319.533h0ZM28.105,21.814c-.105.214.109.319.323.158,1.277-1.067,1.6-3.305,1.333-3.625-.267-.319-2.509-.586-3.842.372-.214.161-.158.375.053.319.747-.105,2.456-.319,2.775.109.319.425-.375,1.972-.642,2.667h0Z"></path><path class="uuid-148ca8ca-52c4-4809-8129-c00b701cfdb8" d="M24.597,34.208c0-.544.097-1.019.292-1.424.2-.412.489-.728.867-.95.383-.22.838-.334,1.367-.334.511,0,.955.108,1.333.325.378.211.669.522.875.925.203.405.309.892.309,1.458,0,.661-.142,1.217-.425,1.667-.28.45-.675.756-1.192.917.211.117.437.206.675.267.237.061.52.106.842.134v.908c-.45-.05-.895-.181-1.333-.383-.439-.206-.833-.472-1.183-.8-.755-.016-1.35-.264-1.783-.742-.427-.484-.641-1.138-.641-1.967h0ZM25.747,34.208c0,.589.117,1.039.35,1.35.233.306.575.458,1.025.458.444,0,.783-.152,1.016-.458.233-.311.35-.761.35-1.35s-.117-1.036-.35-1.341c-.233-.303-.572-.459-1.016-.459-.45,0-.792.156-1.025.459-.233.305-.35.752-.35,1.341h0Z"></path><path class="uuid-148ca8ca-52c4-4809-8129-c00b701cfdb8" d="M33.15,36.8l-.1-.4c-.444.338-.909.508-1.392.508-.339,0-.603-.1-.792-.3-.188-.2-.283-.477-.283-.833v-2.792h1.092v2.492c0,.4.175.599.525.599.256,0,.508-.078.759-.241v-2.85h1.092v3.817h-.9Z"></path><path class="uuid-148ca8ca-52c4-4809-8129-c00b701cfdb8" d="M37.281,36.8l-.092-.334c-.15.139-.331.25-.533.334-.2.078-.398.117-.583.117-.367,0-.664-.105-.884-.309-.222-.211-.333-.491-.333-.841,0-.236.058-.447.175-.625.122-.183.294-.328.516-.433.228-.106.492-.159.792-.159.236,0,.503.033.791.1v-.375c0-.228-.048-.383-.142-.466-.097-.089-.267-.134-.517-.134-.414,0-.864.078-1.358.234v-.725c.189-.095.422-.169.7-.225.278-.055.561-.084.85-.084.511,0,.883.106,1.116.309.239.205.358.53.358.975v2.642h-.858ZM36.38,36.192c.122,0,.25-.028.383-.084.134-.055.256-.127.367-.225v-.65c-.217-.033-.411-.05-.583-.05-.434,0-.651.172-.651.516,0,.156.042.281.125.367.083.083.203.125.358.125h0Z"></path><path class="uuid-148ca8ca-52c4-4809-8129-c00b701cfdb8" d="M40.847,36.725c-.206.083-.43.124-.666.124-.672,0-1.008-.375-1.008-1.125v-4.45h1.092v4.358c0,.139.019.239.067.3.05.055.128.083.233.083.07,0,.166-.008.283-.025v.734Z"></path><path class="uuid-148ca8ca-52c4-4809-8129-c00b701cfdb8" d="M41.625,36.8v-3.817h1.092v3.817h-1.092ZM42.175,32.392c-.189,0-.342-.05-.459-.15-.117-.106-.175-.25-.175-.434,0-.178.058-.316.175-.416.117-.106.269-.159.459-.159.186,0,.336.053.449.159.117.1.176.238.176.416,0,.183-.059.328-.176.434-.114.1-.264.15-.449.15h0Z"></path><path class="uuid-148ca8ca-52c4-4809-8129-c00b701cfdb8" d="M43.978,36.8v-3.008h-.6v-.676l.6-.108v-.341c0-.503.111-.881.341-1.126.233-.25.586-.375,1.067-.375.134,0,.27.014.417.042.144.028.27.064.375.108v.742c-.195-.028-.361-.042-.501-.042-.233,0-.394.039-.483.117-.083.072-.125.203-.125.391v.459h1.067v.809h-1.067v3.008h-1.092Z"></path><path class="uuid-148ca8ca-52c4-4809-8129-c00b701cfdb8" d="M46.716,36.8v-3.817h1.092v3.817h-1.092ZM47.267,32.392c-.189,0-.342-.05-.459-.15-.117-.106-.175-.25-.175-.434,0-.178.058-.316.175-.416.117-.106.27-.159.459-.159.186,0,.336.053.45.159.117.1.175.238.175.416,0,.183-.058.328-.175.434-.114.1-.265.15-.45.15h0Z"></path><path class="uuid-148ca8ca-52c4-4809-8129-c00b701cfdb8" d="M49.695,35.158c.019.328.119.567.3.717.178.144.458.217.841.217.339,0,.728-.061,1.167-.192v.725c-.172.095-.38.164-.625.208-.239.05-.489.075-.75.075-.63,0-1.108-.169-1.441-.508-.334-.345-.5-.848-.5-1.509,0-.639.161-1.133.491-1.483.334-.356.792-.533,1.375-.533.489,0,.867.139,1.134.409.267.267.4.653.4,1.158,0,.111-.009.239-.025.375-.014.139-.031.252-.05.341h-2.317ZM50.511,33.625c-.247,0-.439.075-.583.225-.139.147-.22.356-.242.633h1.467v-.125c0-.489-.214-.733-.642-.733h0Z"></path><path class="uuid-148ca8ca-52c4-4809-8129-c00b701cfdb8" d="M55.503,36.8l-.092-.334c-.306.281-.672.417-1.1.417-.311,0-.589-.078-.825-.233-.239-.161-.425-.386-.558-.683-.134-.3-.201-.653-.201-1.058,0-.617.145-1.109.442-1.475.294-.37.683-.559,1.166-.559.395,0,.736.112,1.025.334v-1.934h1.092v5.525h-.95ZM54.67,36.058c.236,0,.469-.07.692-.208v-1.967c-.217-.127-.464-.191-.742-.191-.264,0-.459.1-.592.3-.128.194-.192.491-.192.892,0,.397.067.688.2.883.137.197.35.292.634.292h0Z"></path><path class="uuid-148ca8ca-52c4-4809-8129-c00b701cfdb8" d="M26.539,41.742c-.444-.166-.764-.366-.958-.6-.198-.238-.292-.541-.292-.908,0-.467.173-.836.517-1.116.35-.278.811-.417,1.392-.417.486,0,.966.089,1.434.267v.85c-.481-.15-.925-.225-1.342-.225-.589,0-.883.188-.883.567,0,.144.05.261.15.35.105.089.294.183.575.283l.559.201c.461.166.789.363.983.592.201.23.3.522.3.883,0,.516-.188.922-.558,1.217-.367.294-.87.442-1.508.442-.283,0-.564-.028-.842-.083-.28-.05-.516-.119-.716-.208v-.85c.25.081.516.139.8.183.283.048.535.067.767.067.294,0,.519-.053.683-.159.161-.111.241-.267.241-.466,0-.15-.05-.27-.149-.358-.095-.095-.289-.194-.584-.3l-.567-.208Z"></path><path class="uuid-148ca8ca-52c4-4809-8129-c00b701cfdb8" d="M31.516,44.108c-.597,0-1.058-.178-1.392-.533-.333-.356-.5-.85-.5-1.483s.167-1.128.5-1.483c.334-.356.794-.533,1.392-.533s1.059.178,1.392.533c.334.356.5.85.5,1.483s-.166,1.128-.5,1.483c-.333.356-.797.533-1.392.533h0ZM31.516,43.275c.52,0,.784-.394.784-1.183s-.264-1.183-.784-1.183-.783.395-.783,1.183.261,1.183.783,1.183h0Z"></path><path class="uuid-148ca8ca-52c4-4809-8129-c00b701cfdb8" d="M34.442,44v-3.008h-.6v-.676l.6-.108v-.342c0-.503.111-.88.341-1.125.233-.25.586-.375,1.067-.375.134,0,.27.014.417.042.144.028.269.064.375.108v.742c-.194-.028-.361-.042-.5-.042-.233,0-.394.039-.483.117-.084.073-.125.203-.125.392v.459h1.067v.809h-1.067v3.008h-1.092Z"></path><path class="uuid-148ca8ca-52c4-4809-8129-c00b701cfdb8" d="M39.423,43.9c-.267.106-.567.159-.9.159-.422,0-.739-.1-.942-.3-.201-.2-.3-.508-.3-.925v-1.841h-.575v-.676l.609-.117.158-1.05h.9v1.033h1.025v.809h-1.025v1.791c0,.164.039.275.117.342.077.06.211.091.4.091.155,0,.333-.014.533-.041v.725Z"></path><path class="uuid-148ca8ca-52c4-4809-8129-c00b701cfdb8" d="M43.206,44l-.65-2.683-.667,2.683h-1.058l-1.217-3.817h1.15l.642,2.758.683-2.758h.975l.708,2.766.592-2.766h1.125l-1.225,3.817h-1.058Z"></path><path class="uuid-148ca8ca-52c4-4809-8129-c00b701cfdb8" d="M48.239,44l-.092-.334c-.15.139-.331.25-.533.334-.2.078-.398.117-.583.117-.367,0-.664-.105-.883-.309-.223-.211-.334-.491-.334-.841,0-.236.058-.447.175-.625.122-.183.294-.328.516-.433.228-.106.492-.159.792-.159.236,0,.503.033.791.1v-.375c0-.228-.047-.383-.142-.466-.097-.089-.267-.134-.517-.134-.414,0-.864.078-1.358.234v-.725c.189-.095.422-.169.7-.225.278-.055.561-.084.85-.084.511,0,.883.106,1.116.309.239.205.358.53.358.975v2.642h-.858ZM47.339,43.392c.122,0,.25-.028.383-.084.134-.055.256-.127.367-.225v-.65c-.217-.033-.411-.05-.583-.05-.434,0-.65.172-.65.516,0,.156.041.281.124.367.084.083.203.125.358.125h0Z"></path><path class="uuid-148ca8ca-52c4-4809-8129-c00b701cfdb8" d="M50.133,44v-3.817h.892l.133.567c.201-.217.386-.37.567-.459.178-.095.367-.142.567-.142.095,0,.195.006.3.016v1.008c-.147-.028-.3-.041-.466-.041-.322,0-.622.058-.9.175v2.692h-1.092Z"></path><path class="uuid-148ca8ca-52c4-4809-8129-c00b701cfdb8" d="M53.967,42.358c.019.328.119.567.299.717.178.144.459.217.842.217.339,0,.728-.061,1.167-.192v.725c-.172.095-.38.164-.625.208-.239.05-.489.075-.75.075-.631,0-1.108-.169-1.441-.508-.334-.344-.5-.847-.5-1.508,0-.639.161-1.133.491-1.483.334-.356.791-.533,1.375-.533.489,0,.866.139,1.133.409.267.267.4.653.4,1.158,0,.111-.009.239-.025.375-.014.139-.031.252-.05.341h-2.316ZM54.783,40.825c-.247,0-.439.075-.583.225-.139.147-.22.356-.242.633h1.466v-.125c0-.489-.213-.733-.641-.733h0Z"></path></g></svg>