<svg width="400" height="175" viewBox="0 0 400 175" fill="none" xmlns="http://www.w3.org/2000/svg">
<g clip-path="url(#clip0_835_11740)">
<path d="M136.4 144.4C131.8 146.7 125.7 143.8 122.2 138.6C111.6 122.7 110.8 57.2 114.1 41.8C115.9 33.5 118.6 29.3 124.8 29.6C130.1 29.8 132.7 34.5 132.5 39.4C131.7 64.4 127.6 114 137.5 131.3C141.9 138.9 139.9 142.7 136.3 144.4H136.4Z" fill="#090A1D" fill-opacity="1"></path>
<path d="M229.9 106.1C207.8 105 203 71.3999 204 52.0999C204.5 42.7999 205.6 21.6999 217.3 22.2999C221.6 22.4999 224 25.8999 224.9 30.8999C225.3 35.0999 223.6 56.6999 224.6 69.9999C227.2 97.3999 239.9 85.8999 255.8 67.8999C268.8 53.2999 281.5 32.8999 287.7 27.2999C290 25.2999 292.8 23.9999 295.8 24.0999C301.7 24.3999 306.1 30.1999 305.8 36.6999C305.2 47.9999 258.2 131.2 256.6 162.1C256.3 167 252.4 170.5 248.4 170.3C227 169.2 248.2 106.2 251.9 96.3999C245 101.4 238.4 106.6 229.8 106.2L229.9 106.1Z" fill="#090A1D" fill-opacity="1"></path>
<path d="M355.1 144.1C359.6 145.8 364.9 151.9 363.2 157.8C361.7 163.1 356.6 166.7 351.4 166.6C350.5 166.6 349.6 166.4 348.7 166.2C342.5 164.4 339.3 158 341.2 151.5C342.7 146.3 347.2 143.5 352 143.6C353.3 143.6 354.2 143.8 355 144.1H355.1ZM352.1 140.6C345.5 140.4 339.9 144.4 338.2 150.6C337.1 154.5 337.4 158.6 339.2 162C341 165.5 344.1 168.1 347.9 169.2C349 169.5 350.2 169.7 351.4 169.7C358.2 169.9 364.5 165.2 366.3 158.6C367.4 154.9 366.8 151 364.8 147.7C362.8 144.4 359.7 142.1 356 141C355.1 140.7 353.8 140.6 352.2 140.6H352.1Z" fill="#090A1D" fill-opacity="1"></path>
<path d="M388.9 56.8001C389.4 56.8001 389.9 56.8001 390.5 57.0001C395.3 58.4001 396.1 60.9001 396.4 63.1001C396.7 65.7001 395.9 69.0001 395 72.1001L394.6 73.5001C391.5 84.3001 385.9 94.9001 380.5 105.1C376.7 112.3 372.7 119.8 369.7 127.4C369 129.2 367.2 132.3 363.5 132.3H363.3C362.7 132.3 362 132.2 361.3 132C360.3 131.7 357.2 130.8 357.1 123.5C357.1 118.5 358.4 113 359 110.9C360.6 105.1 365.1 90.4001 371 77.7001C379.5 59.4001 385.8 56.7001 388.8 56.7001L388.9 56.8001ZM388.9 53.3001C382.1 53.3001 375 61.0001 367.8 76.3001C361.8 89.2001 357.2 104.2 355.6 110C354.1 115.2 350 132.6 360.3 135.5C361.3 135.8 362.2 135.9 363.2 135.9H363.4C367.6 135.9 371.1 133.3 372.9 128.7C375.9 121.3 379.8 113.9 383.6 106.7C389.1 96.3001 394.8 85.5001 398 74.4001C399.1 70.6001 400.3 66.4001 399.9 62.6001C399.4 58.0001 396.6 54.9001 391.5 53.5001C390.7 53.3001 389.8 53.1001 389 53.1001L388.9 53.3001Z" fill="#090A1D" fill-opacity="1"></path>
<path d="M109.3 10.6999C102.3 -9.20005 65.4999 3.99995 53.2999 8.29995C38.0999 13.5999 -7.40007 35.9999 0.999931 60.0999C3.19993 66.4999 9.99993 70.1999 15.2999 68.2999C19.7999 66.6999 22.0999 62.5999 25.1999 58.6999C27.6999 91.6999 37.9999 132 53.1999 164.7C54.9999 168.7 60.9999 177.4 69.0999 174C75.1999 171.5 75.2999 164.8 72.7999 159.8C64.9999 144.4 59.5999 119.5 56.5999 95.2999C67.7999 89.4999 79.5999 90.2999 89.0999 86.0999C94.9999 83.4999 97.4999 76.7999 94.9999 71.1999C88.7999 57.4999 55.9999 72.7999 53.8999 74.1999C52.1999 60.4999 50.7999 47.7999 49.6999 38.6999C60.5999 32.0999 69.9999 27.0999 81.8999 22.8999C95.7999 17.8999 99.7999 21.4999 104.9 20.7999C108.8 20.1999 110.8 14.9999 109.3 10.6999Z" fill="#090A1D" fill-opacity="1"></path>
<path d="M333.2 104.4C320 95.3 303.4 104.4 301.5 119.4C301 121.9 300.6 124.7 301.4 126.9C305.1 137.4 320 134 325.6 126.9C325.5 126.7 325.5 126.9 325.6 126.7C327.6 124.4 329.2 121.2 328.3 118.3C327.8 116.6 326.5 114.9 324.7 114.1C320.7 111.9 323.1 105.9 327.5 107C335.8 109 340.5 118.2 338.7 126.2C338.2 129 337.2 131.4 335.8 133.8C335.8 133.8 335.7 133.8 335.6 133.8L335.4 134.1C331 141.2 324 146.3 315.9 148.5C297.7 153.5 281.8 140.1 282.1 121.5C282.5 102.4 301.7 86.1 320.5 88.6C327.6 89.4 334.1 93.1 338.8 98.2C342.1 102 337.4 107.3 333.3 104.5L333.2 104.4Z" fill="#090A1D" fill-opacity="1"></path>
<path d="M186.2 80.2001C175.5 80.9001 168.1 86.3001 164.8 96.0001C162.5 102.5 162.2 112.7 168.6 116.7C173.3 119 180 117.8 184.2 114.7C189.2 111 192.2 102.5 190.5 96.6001C189.1 92.6001 184.8 93.2001 180.9 94.5001C178.6 95.4001 176.1 94.2001 175.3 91.9001C174.6 89.8001 175.5 87.6001 177.4 86.6001C180.9 84.8001 184.7 83.6001 188.9 83.9001C193.5 84.1001 198.4 87.4001 200.5 91.5001C202.6 95.3001 203.2 99.5001 203.2 103.6C203.3 115.6 197 128.2 185.8 133.6C165.9 143.6 145.3 131.3 144.1 109.3C143 94.3001 151.1 78.6001 164.9 72.1001C171.9 68.8001 180.2 68.5001 187.3 70.7001C192.6 72.4001 191.5 80.0001 186 80.3001L186.2 80.2001Z" fill="#090A1D" fill-opacity="1"></path>
</g>
<defs>
<clipPath id="clip0_835_11740">
<rect width="400" height="174.8" fill="white"></rect>
</clipPath>
</defs>
</svg>