<svg width="150" height="54" viewBox="0 0 150 54" fill="none" xmlns="http://www.w3.org/2000/svg">
<g opacity="0.5">
<g clip-path="url(#clip0_7231_150)">
<g clip-path="url(#clip1_7231_150)">
<mask id="mask0_7231_150" style="mask-type:luminance" maskUnits="userSpaceOnUse" x="3" y="10" width="144" height="34">
<path d="M147 10.9946H3V43.4454H147V10.9946Z" fill="white"></path>
</mask>
<g mask="url(#mask0_7231_150)">
<path d="M56.7805 23.8204C56.488 23.2796 56.0644 22.8701 55.51 22.5919C54.9709 22.2983 54.3317 22.1515 53.5926 22.1515C52.3142 22.1515 51.2901 22.5764 50.52 23.4263C49.75 24.2608 49.3649 25.3812 49.3649 26.7873C49.3649 28.2862 49.7654 29.4606 50.5662 30.3105C51.3825 31.145 52.4991 31.5622 53.916 31.5622C54.8862 31.5622 55.7025 31.315 56.3648 30.8205C57.0424 30.326 57.5352 29.6152 57.8432 28.688H52.8302V25.7674H61.4239V29.4529C61.1314 30.4418 60.6308 31.3613 59.9224 32.2112C59.2294 33.0611 58.3438 33.7488 57.2657 34.2742C56.1876 34.7996 54.9709 35.0622 53.6157 35.0622C52.0139 35.0622 50.5816 34.7146 49.3187 34.0192C48.0713 33.3084 47.0933 32.3271 46.3849 31.0754C45.6918 29.8238 45.3452 28.3944 45.3452 26.7873C45.3452 25.1803 45.6918 23.7508 46.3849 22.4992C47.0933 21.232 48.0713 20.2508 49.3187 19.5554C50.5662 18.8446 51.9908 18.4892 53.5926 18.4892C55.533 18.4892 57.1656 18.9605 58.4901 19.9031C59.83 20.8457 60.7155 22.1515 61.1468 23.8204H56.7805ZM76.4336 23.9131C76.4336 24.8558 76.2179 25.7211 75.7867 26.5091C75.3554 27.2818 74.6932 27.9076 73.7999 28.3867C72.9067 28.8658 71.7978 29.1052 70.4733 29.1052H68.0246V34.9463H64.0741V18.6746H70.4733C71.767 18.6746 72.8605 18.8987 73.7538 19.3468C74.647 19.795 75.317 20.4131 75.7636 21.2012C76.2102 21.9892 76.4336 22.8932 76.4336 23.9131ZM70.173 25.9529C70.9276 25.9529 71.4898 25.7751 71.8595 25.4198C72.2291 25.0644 72.4139 24.5621 72.4139 23.9131C72.4139 23.2641 72.2291 22.7619 71.8595 22.4064C71.4898 22.0511 70.9276 21.8733 70.173 21.8733H68.0246V25.9529H70.173ZM90.6182 18.6746V21.8502H86.3213V34.9463H82.371V21.8502H78.0743V18.6746H90.6182Z" fill="#E6E5EB"></path>
<path d="M97.2676 31.7012H104.244V34.9463H92.7859V31.9331L99.7164 21.9197H92.7859V18.6746H104.244V21.688L97.2676 31.7012ZM119.438 28.2708C119.438 28.6416 119.415 29.028 119.369 29.4297H110.429C110.49 30.2333 110.744 30.8514 111.191 31.284C111.653 31.7012 112.215 31.9099 112.877 31.9099C113.863 31.9099 114.548 31.4926 114.934 30.6583H119.138C118.922 31.5082 118.53 32.2731 117.96 32.9529C117.405 33.6329 116.704 34.166 115.857 34.5523C115.011 34.9386 114.064 35.1318 113.016 35.1318C111.753 35.1318 110.629 34.8613 109.643 34.3205C108.657 33.7797 107.888 33.0071 107.333 32.0026C106.778 30.9982 106.502 29.8238 106.502 28.4794C106.502 27.135 106.771 25.9606 107.31 24.9562C107.864 23.9517 108.634 23.1791 109.62 22.6383C110.606 22.0975 111.737 21.827 113.016 21.827C114.263 21.827 115.373 22.0897 116.342 22.615C117.313 23.1404 118.067 23.8899 118.607 24.8635C119.161 25.837 119.438 26.9728 119.438 28.2708ZM115.395 27.2277C115.395 26.5478 115.165 26.007 114.702 25.6052C114.24 25.2034 113.663 25.0025 112.969 25.0025C112.307 25.0025 111.745 25.1957 111.283 25.5821C110.837 25.9683 110.56 26.5169 110.451 27.2277H115.395ZM125.934 24.1681C126.397 23.4572 126.974 22.901 127.668 22.4992C128.36 22.0819 129.13 21.8733 129.978 21.8733V26.0688H128.892C127.906 26.0688 127.167 26.2851 126.674 26.7178C126.181 27.135 125.934 27.8767 125.934 28.9429V34.9463H121.984V22.0125H125.934V24.1681ZM138.195 35.1318C136.932 35.1318 135.792 34.8613 134.776 34.3205C133.775 33.7797 132.982 33.0071 132.397 32.0026C131.827 30.9982 131.542 29.8238 131.542 28.4794C131.542 27.1504 131.834 25.9838 132.42 24.9794C133.005 23.9595 133.806 23.1791 134.822 22.6383C135.839 22.0975 136.979 21.827 138.241 21.827C139.504 21.827 140.644 22.0975 141.661 22.6383C142.677 23.1791 143.478 23.9595 144.063 24.9794C144.648 25.9838 144.94 27.1504 144.94 28.4794C144.94 29.8083 144.64 30.9828 144.04 32.0026C143.455 33.0071 142.647 33.7797 141.614 34.3205C140.598 34.8613 139.458 35.1318 138.195 35.1318ZM138.195 31.7012C138.95 31.7012 139.589 31.4232 140.112 30.8669C140.652 30.3105 140.922 29.5148 140.922 28.4794C140.922 27.4441 140.659 26.6483 140.136 26.0919C139.628 25.5356 138.996 25.2575 138.241 25.2575C137.472 25.2575 136.832 25.5356 136.324 26.0919C135.816 26.6328 135.561 27.4286 135.561 28.4794C135.561 29.5148 135.808 30.3105 136.3 30.8669C136.809 31.4232 137.44 31.7012 138.195 31.7012Z" fill="#E6E5EB"></path>
<path d="M18.3176 17.4893C13.4249 17.4893 9.43787 21.5114 9.43787 26.4474C9.43787 31.3832 13.4249 35.4055 18.3176 35.4055C23.2104 35.4055 27.1975 31.3832 27.1975 26.4474C27.1975 21.5114 23.2104 17.4893 18.3176 17.4893ZM18.3176 33.6139C14.4018 33.6139 11.2139 30.3978 11.2139 26.4474C11.2139 22.4969 14.4018 19.2809 18.3176 19.2809C22.2337 19.2809 25.4216 22.4969 25.4216 26.4474C25.4216 30.3978 22.2337 33.6139 18.3176 33.6139ZM20.9815 26.4474C20.9815 27.9344 19.7917 29.1348 18.3176 29.1348C16.8437 29.1348 15.6537 27.9344 15.6537 26.4474C15.6537 24.9603 16.8437 23.7599 18.3176 23.7599C19.7917 23.7599 20.9815 24.9603 20.9815 26.4474Z" fill="#E6E5EB"></path>
<path d="M30.9825 30.9643C29.1387 36.2274 24.1637 39.9983 18.3159 39.9983C15.0743 39.9983 12.101 38.8396 9.7804 36.9103C9.38418 36.5809 9.00697 36.229 8.65073 35.8566C6.90209 34.0286 5.6582 31.7058 5.14555 29.1167C5.14197 29.0987 5.13843 29.0805 5.13492 29.0624C4.97095 28.2163 4.88503 27.3419 4.88503 26.4474C4.88503 18.9635 10.8982 12.8965 18.3159 12.8965C21.261 12.8965 23.9848 13.8529 26.1986 15.4747C26.5803 15.7544 27.1132 15.7371 27.4592 15.4135C27.8732 15.0264 27.8671 14.3533 27.4133 14.0148C24.8694 12.1168 21.7225 10.9946 18.3159 10.9946C9.85716 10.9946 3 17.9131 3 26.4474C3 27.3386 3.0748 28.2124 3.2184 29.0624C3.75596 32.2443 5.25764 35.0946 7.40942 37.2964C7.76951 37.6648 8.1478 38.0151 8.54283 38.3458C11.1948 40.5656 14.6008 41.9001 18.3159 41.9001C24.7101 41.9001 30.1891 37.9468 32.4827 32.3305C32.9064 31.2931 33.2213 30.1989 33.4133 29.0624H25.1491V30.9643H30.9825Z" fill="#E6E5EB"></path>
</g>
</g>
</g>
</g>
<defs>
<clipPath id="clip0_7231_150">
<rect width="144" height="32.44" fill="white" transform="translate(3 11)"></rect>
</clipPath>
<clipPath id="clip1_7231_150">
<rect width="144" height="32.4507" fill="white" transform="translate(3 10.9946)"></rect>
</clipPath>
</defs>
</svg>