<svg width="102" height="54" viewBox="0 0 102 54" fill="none" xmlns="http://www.w3.org/2000/svg">
<g opacity="0.5" clip-path="url(#clip0_7231_225)">
<g clip-path="url(#clip1_7231_225)">
<mask id="mask0_7231_225" style="mask-type:luminance" maskUnits="userSpaceOnUse" x="5" y="12" width="92" height="30">
<path d="M96.8333 12H5.16666V42H96.8333V12Z" fill="white"></path>
</mask>
<g mask="url(#mask0_7231_225)">
<path d="M5.11945 35.5313V29.0418L13.5998 12H25.1374V18.4924L16.6613 35.5313H5.11945Z" fill="#E6E5EB"></path>
<path d="M45.128 35.3115H41.6042V33.0277H41.539C41.0387 34.0065 40.31 34.7133 39.353 35.1484C38.396 35.5617 37.3845 35.7683 36.3187 35.7683C34.9919 35.7683 33.8282 35.5399 32.8276 35.0832C31.8489 34.6046 31.0332 33.963 30.3806 33.1582C29.7281 32.3534 29.2387 31.4072 28.9125 30.3197C28.5862 29.2103 28.423 28.0249 28.423 26.7633C28.423 25.2407 28.6297 23.9248 29.043 22.8155C29.4562 21.7062 30 20.7927 30.6743 20.0749C31.3703 19.3571 32.1534 18.835 33.0235 18.5088C33.9152 18.1608 34.8179 17.9868 35.7315 17.9868C36.2535 17.9868 36.7864 18.0411 37.3301 18.1499C37.874 18.2369 38.396 18.3891 38.8962 18.6067C39.3965 18.8242 39.8533 19.1069 40.2665 19.455C40.7015 19.7812 41.0605 20.1727 41.3432 20.6295H41.4085V12.0161H45.128V35.3115ZM32.1425 27.057C32.1425 27.7747 32.2295 28.4817 32.4035 29.1777C32.5993 29.8737 32.882 30.4937 33.2518 31.0374C33.6433 31.5812 34.1327 32.0162 34.72 32.3425C35.3073 32.6687 36.0033 32.8319 36.8081 32.8319C37.6346 32.8319 38.3415 32.6579 38.9289 32.3098C39.5379 31.9618 40.0273 31.5051 40.397 30.9396C40.7885 30.374 41.0714 29.7432 41.2454 29.0472C41.4411 28.3294 41.539 27.6007 41.539 26.8612C41.539 24.9906 41.1149 23.5333 40.2665 22.4892C39.44 21.4452 38.309 20.9232 36.8734 20.9232C36.0033 20.9232 35.2638 21.1081 34.6548 21.4778C34.0675 21.8258 33.578 22.2935 33.1865 22.8807C32.8168 23.4462 32.5449 24.0988 32.3709 24.8383C32.2186 25.5562 32.1425 26.2957 32.1425 27.057Z" fill="#E6E5EB"></path>
<path d="M62.0067 31.5595C62.0067 32.0163 62.061 32.3425 62.1698 32.5383C62.3003 32.734 62.5396 32.8319 62.8876 32.8319C62.9963 32.8319 63.1268 32.8319 63.2791 32.8319C63.4313 32.8319 63.6053 32.8102 63.8012 32.7667V35.3442C63.6707 35.3877 63.4966 35.4312 63.2791 35.4747C63.0833 35.5399 62.8767 35.5943 62.6592 35.6378C62.4417 35.6813 62.2242 35.7139 62.0067 35.7357C61.7892 35.7574 61.6043 35.7683 61.452 35.7683C60.6908 35.7683 60.0599 35.6161 59.5597 35.3115C59.0594 35.007 58.7331 34.4741 58.5808 33.7128C57.8413 34.4306 56.9278 34.9527 55.8403 35.2789C54.7744 35.6052 53.7413 35.7683 52.7407 35.7683C51.9794 35.7683 51.2508 35.6596 50.5547 35.442C49.8587 35.2463 49.2388 34.9527 48.695 34.5611C48.1729 34.1478 47.7488 33.6367 47.4225 33.0277C47.118 32.3969 46.9658 31.6683 46.9658 30.8417C46.9658 29.7976 47.1507 28.9493 47.5204 28.2968C47.9119 27.6443 48.4123 27.1331 49.0213 26.7633C49.652 26.3936 50.3481 26.1326 51.1093 25.9803C51.8924 25.8063 52.6754 25.6758 53.4585 25.5888C54.1328 25.4583 54.7744 25.3713 55.3834 25.3278C55.9925 25.2625 56.5254 25.1647 56.9822 25.0341C57.4607 24.9036 57.8304 24.7078 58.0915 24.4468C58.3743 24.1641 58.5156 23.7508 58.5156 23.207C58.5156 22.7285 58.396 22.337 58.1568 22.0325C57.9392 21.7279 57.6564 21.4996 57.3084 21.3473C56.9822 21.1733 56.6124 21.0645 56.1991 21.021C55.7858 20.9558 55.3943 20.9232 55.0246 20.9232C53.9805 20.9232 53.1213 21.1407 52.4471 21.5757C51.7728 22.0108 51.3921 22.685 51.3051 23.5986H47.5857C47.6509 22.511 47.9119 21.6083 48.3688 20.8905C48.8255 20.1727 49.4019 19.5963 50.0979 19.1613C50.8158 18.7263 51.6205 18.4218 52.5123 18.2478C53.4041 18.0738 54.3177 17.9868 55.2529 17.9868C56.0795 17.9868 56.8952 18.0738 57.6999 18.2478C58.5048 18.4218 59.2225 18.7045 59.8533 19.0961C60.5058 19.4876 61.0278 19.9987 61.4194 20.6295C61.8109 21.2386 62.0067 21.989 62.0067 22.8808V31.5595ZM58.2873 26.8613C57.7217 27.231 57.0257 27.4593 56.1991 27.5464C55.3726 27.6117 54.546 27.7204 53.7195 27.8727C53.328 27.9379 52.9473 28.0358 52.5776 28.1663C52.2078 28.275 51.8815 28.4382 51.5988 28.6557C51.316 28.8514 51.0876 29.1233 50.9136 29.4713C50.7613 29.7976 50.6852 30.2 50.6852 30.6785C50.6852 31.0918 50.8048 31.4398 51.0441 31.7226C51.2833 32.0053 51.5661 32.2338 51.8924 32.4078C52.2404 32.56 52.6102 32.6688 53.0017 32.734C53.415 32.7993 53.7848 32.8319 54.111 32.8319C54.5243 32.8319 54.9702 32.7775 55.4487 32.6688C55.9273 32.56 56.3731 32.3752 56.7864 32.1141C57.2214 31.8531 57.5803 31.5268 57.8631 31.1353C58.1458 30.7221 58.2873 30.2218 58.2873 29.6345V26.8613Z" fill="#E6E5EB"></path>
<path d="M64.8016 12.0161H68.521V15.5398H64.8016V12.0161ZM64.8016 18.4435H68.521V35.3115H64.8016V18.4435Z" fill="#E6E5EB"></path>
<path d="M71.3664 12.0161H75.0859V35.3115H71.3664V12.0161Z" fill="#E6E5EB"></path>
<path d="M75.9736 18.4435H80.052L84.4566 31.0374H84.5219L88.7958 18.4435H92.6783L86.1206 36.2251C85.816 36.9863 85.5116 37.715 85.207 38.4111C84.9242 39.1071 84.5654 39.7162 84.1303 40.2382C83.7171 40.7819 83.195 41.2061 82.5642 41.5106C81.9335 41.8368 81.1286 42 80.1499 42C79.2798 42 78.4206 41.9347 77.5724 41.8042V38.6721C77.8769 38.7156 78.1706 38.7591 78.4533 38.8026C78.7361 38.8678 79.0297 38.9005 79.3342 38.9005C79.7692 38.9005 80.1281 38.8461 80.4109 38.7373C80.6936 38.6286 80.9221 38.4654 81.0961 38.2479C81.2918 38.0522 81.455 37.8129 81.5855 37.5302C81.716 37.2474 81.8356 36.9211 81.9443 36.5513L82.3685 35.2463L75.9736 18.4435Z" fill="#E6E5EB"></path>
<path d="M95.6191 19.8929L95.1191 18.7293H95.3458L95.6824 19.5545L96.0174 18.7293H96.2433L95.7458 19.8929H95.6191ZM95.0641 19.8929V18.7293H95.2966V19.8929H95.0641ZM96.0666 19.8929V18.7293H96.2991V19.8929H96.0666ZM94.2749 19.8929V18.8305H94.5074V19.8929H94.2749ZM93.9208 18.9285V18.7293H94.8616V18.9285H93.9208Z" fill="#E6E5EB"></path>
</g>
</g>
</g>
<defs>
<clipPath id="clip0_7231_225">
<rect width="102" height="54" fill="white"></rect>
</clipPath>
<clipPath id="clip1_7231_225">
<rect width="91.6667" height="30" fill="white" transform="translate(5.16666 12)"></rect>
</clipPath>
</defs>
</svg>