<svg width="150" height="54" viewBox="0 0 150 54" fill="none" xmlns="http://www.w3.org/2000/svg">
<g opacity="0.5">
<g clip-path="url(#clip0_7231_239)">
<g clip-path="url(#clip1_7231_239)">
<mask id="mask0_7231_239" style="mask-type:luminance" maskUnits="userSpaceOnUse" x="3" y="14" width="144" height="26">
<path d="M147 14.9979H3V39.7721H147V14.9979Z" fill="white"></path>
</mask>
<g mask="url(#mask0_7231_239)">
<path d="M141.414 35.128C140.311 35.128 139.335 34.8948 138.486 34.4283C137.638 33.9618 136.973 33.3115 136.492 32.4774C136.011 31.6432 135.77 30.6748 135.77 29.572C135.77 28.4693 136.011 27.5009 136.492 26.6668C136.973 25.8327 137.638 25.1823 138.486 24.7158C139.349 24.2493 140.339 24.016 141.457 24.016C142.461 24.016 143.366 24.2564 144.173 24.737C144.979 25.2177 145.615 25.9387 146.082 26.9001C146.563 27.8473 146.803 29.0207 146.803 30.4203H138.826L139.186 30.0174C139.186 30.498 139.285 30.9222 139.483 31.2897C139.682 31.6573 139.957 31.9401 140.311 32.1379C140.665 32.3218 141.06 32.4137 141.499 32.4137C142.023 32.4137 142.461 32.3006 142.815 32.0744C143.168 31.8341 143.415 31.5372 143.557 31.1837L146.506 32.1804C146.223 32.8589 145.82 33.4174 145.297 33.8556C144.787 34.294 144.201 34.6191 143.536 34.8313C142.871 35.0292 142.164 35.128 141.414 35.128ZM139.271 28.6602L138.932 28.2149H143.684L143.366 28.6602C143.366 28.123 143.26 27.7059 143.048 27.409C142.836 27.098 142.574 26.8718 142.263 26.7304C141.966 26.5891 141.662 26.5184 141.351 26.5184C141.039 26.5184 140.721 26.5891 140.396 26.7304C140.085 26.8718 139.815 27.098 139.589 27.409C139.377 27.7059 139.271 28.123 139.271 28.6602Z" fill="#E6E5EB"></path>
<path d="M132.668 35.1021C131.409 35.1021 130.469 34.8052 129.847 34.2114C129.238 33.6035 128.934 32.7411 128.934 31.6243V20.9363H132.244V30.7972C132.244 31.2214 132.322 31.5324 132.478 31.7303C132.633 31.9281 132.873 32.0272 133.199 32.0272C133.326 32.0272 133.475 31.9989 133.644 31.9423C133.814 31.8717 133.97 31.7868 134.111 31.6879L135.257 34.1054C134.917 34.388 134.508 34.6285 134.026 34.8264C133.559 35.0101 133.107 35.1021 132.668 35.1021ZM127.28 27.0225V24.2445H134.663V27.0225H127.28Z" fill="#E6E5EB"></path>
<path d="M123.112 34.8735L123.006 32.5834V29.5932C123.006 29.0278 122.957 28.533 122.858 28.1088C122.772 27.6847 122.596 27.3595 122.327 27.1334C122.073 26.893 121.698 26.7728 121.202 26.7728C120.807 26.7728 120.46 26.8647 120.163 27.0485C119.866 27.2323 119.611 27.4797 119.399 27.7908L116.492 26.8365C116.747 26.3134 117.08 25.8398 117.489 25.4157C117.914 24.9915 118.43 24.6523 119.038 24.3978C119.647 24.1433 120.354 24.016 121.161 24.016C122.264 24.016 123.197 24.221 123.961 24.631C124.725 25.041 125.298 25.6136 125.679 26.3487C126.061 27.0838 126.252 27.9533 126.252 28.9571L126.21 34.8735H123.112ZM120.205 35.128C118.96 35.128 117.992 34.8523 117.299 34.301C116.605 33.7355 116.259 32.9297 116.259 31.8835C116.259 30.7667 116.62 29.9326 117.341 29.3812C118.062 28.8299 119.074 28.5542 120.375 28.5542H123.282V30.696H121.606C120.913 30.696 120.41 30.7949 120.099 30.9929C119.788 31.1766 119.632 31.4453 119.632 31.7987C119.632 32.0532 119.746 32.2581 119.972 32.4137C120.212 32.5551 120.538 32.6257 120.948 32.6257C121.358 32.6257 121.712 32.5409 122.009 32.3712C122.32 32.1875 122.56 31.9472 122.731 31.6503C122.914 31.3534 123.006 31.0353 123.006 30.696H123.855C123.855 32.0957 123.55 33.1842 122.943 33.9618C122.348 34.7392 121.436 35.128 120.205 35.128Z" fill="#E6E5EB"></path>
<path d="M98.5548 34.8735V24.2705H101.674L101.801 25.6065C102.141 25.0834 102.558 24.6876 103.053 24.419C103.562 24.1503 104.12 24.016 104.729 24.016C105.606 24.016 106.328 24.1998 106.894 24.5674C107.474 24.9208 107.898 25.4652 108.166 26.2003C108.492 25.4934 108.937 24.9562 109.503 24.5886C110.069 24.2069 110.705 24.016 111.413 24.016C112.685 24.016 113.64 24.4048 114.276 25.1823C114.927 25.9599 115.246 27.1687 115.232 28.8087V34.8735H111.922V29.4448C111.922 28.8794 111.858 28.434 111.731 28.1088C111.618 27.7695 111.448 27.5221 111.221 27.3667C110.995 27.2111 110.727 27.1263 110.415 27.1122C109.807 27.098 109.34 27.2747 109.015 27.6423C108.704 27.9958 108.548 28.54 108.548 29.2752V34.8735H105.238V29.4448C105.238 28.8794 105.175 28.434 105.047 28.1088C104.934 27.7695 104.765 27.5221 104.539 27.3667C104.312 27.2111 104.043 27.1263 103.732 27.1122C103.123 27.098 102.657 27.2747 102.331 27.6423C102.02 27.9958 101.864 28.54 101.864 29.2752V34.8735H98.5548Z" fill="#E6E5EB"></path>
<path d="M89.9961 32.5284L88.0436 30.2382L93.3693 24.2793H97.2519L89.9961 32.5284ZM86.856 34.8823V20.038H90.1657V34.8823H86.856ZM93.6875 34.8823L90.3987 30.1958L92.5634 27.9268L97.5283 34.8823H93.6875Z" fill="#E6E5EB"></path>
<path d="M80.8847 35.128C79.7536 35.128 78.7422 34.8948 77.851 34.4283C76.9741 33.9477 76.2881 33.2902 75.793 32.4561C75.298 31.6078 75.0504 30.6465 75.0504 29.572C75.0504 28.4835 75.298 27.5221 75.793 26.688C76.2881 25.8539 76.9669 25.2036 77.8298 24.737C78.7068 24.2564 79.7111 24.016 80.8429 24.016C81.9314 24.016 82.9293 24.2917 83.8343 24.8431C84.7394 25.3945 85.3905 26.1932 85.7861 27.2394L82.6459 28.2997C82.4903 27.9604 82.2287 27.6847 81.8609 27.4726C81.5071 27.2464 81.1115 27.1334 80.6725 27.1334C80.2344 27.1334 79.8455 27.2394 79.506 27.4514C79.1806 27.6494 78.9189 27.9321 78.7209 28.2997C78.5369 28.6673 78.445 29.0914 78.445 29.572C78.445 30.0527 78.5369 30.4768 78.7209 30.8444C78.9189 31.1979 79.1876 31.4806 79.5271 31.6927C79.8808 31.9047 80.2768 32.0107 80.7151 32.0107C81.1541 32.0107 81.5497 31.8976 81.9035 31.6715C82.2573 31.4453 82.519 31.1484 82.6885 30.7808L85.8287 31.8411C85.4183 32.9014 84.7603 33.7144 83.8552 34.2798C82.9641 34.8453 81.9739 35.128 80.8847 35.128Z" fill="#E6E5EB"></path>
<path d="M68.6341 35.128C67.5309 35.128 66.5549 34.8948 65.7061 34.4283C64.8575 33.9618 64.1928 33.3115 63.7118 32.4774C63.2308 31.6432 62.9904 30.6748 62.9904 29.572C62.9904 28.4693 63.2308 27.5009 63.7118 26.6668C64.1928 25.8327 64.8575 25.1823 65.7061 24.7158C66.5689 24.2493 67.559 24.016 68.6765 24.016C69.6808 24.016 70.5861 24.2564 71.3923 24.737C72.1986 25.2177 72.8352 25.9387 73.3018 26.9001C73.7828 27.8473 74.0232 29.0207 74.0232 30.4203H66.0457L66.4064 30.0174C66.4064 30.498 66.5053 30.9222 66.7033 31.2897C66.9014 31.6573 67.1773 31.9401 67.5309 32.1379C67.8845 32.3218 68.2806 32.4137 68.719 32.4137C69.2424 32.4137 69.6808 32.3006 70.0344 32.0744C70.3882 31.8341 70.6357 31.5372 70.777 31.1837L73.7262 32.1804C73.4434 32.8589 73.0402 33.4174 72.5168 33.8556C72.0077 34.294 71.4205 34.6191 70.7559 34.8313C70.091 35.0292 69.3839 35.128 68.6341 35.128ZM66.4912 28.6602L66.1518 28.2149H70.9042L70.5861 28.6602C70.5861 28.123 70.4801 27.7059 70.2679 27.409C70.0556 27.098 69.7939 26.8718 69.4828 26.7304C69.1857 26.5891 68.8817 26.5184 68.5704 26.5184C68.2594 26.5184 67.941 26.5891 67.6157 26.7304C67.3045 26.8718 67.0358 27.098 66.8094 27.409C66.5972 27.7059 66.4912 28.123 66.4912 28.6602Z" fill="#E6E5EB"></path>
<path d="M51.8216 34.8823V20.038H55.1314V34.8823H51.8216ZM58.6535 34.8823V29.4536H61.9633V34.8823H58.6535ZM58.6535 29.4536C58.6535 28.8881 58.5897 28.4428 58.4625 28.1176C58.3352 27.7783 58.1514 27.5309 57.9109 27.3754C57.6705 27.2199 57.3875 27.135 57.0623 27.1209C56.4257 27.1068 55.9448 27.2835 55.6194 27.6511C55.2942 28.0045 55.1314 28.5488 55.1314 29.2839H54.1342C54.1342 28.1671 54.304 27.2199 54.6435 26.4423C54.9829 25.6506 55.4427 25.0498 56.0226 24.6398C56.6166 24.2298 57.2956 24.0248 58.0595 24.0248C58.9223 24.0248 59.6437 24.2015 60.2235 24.5549C60.8034 24.8943 61.2349 25.4174 61.5178 26.1242C61.8148 26.8311 61.9633 27.7359 61.9633 28.8386V29.4536H58.6535Z" fill="#E6E5EB"></path>
<path d="M43.9414 35.1346C42.4703 35.1346 41.1689 34.8095 40.0375 34.1591C38.92 33.4948 38.036 32.5899 37.3853 31.4448C36.7487 30.2855 36.4306 28.9565 36.4306 27.458C36.4306 25.9594 36.7487 24.6376 37.3853 23.4924C38.036 22.3332 38.92 21.4284 40.0375 20.7781C41.1689 20.1136 42.4703 19.7814 43.9414 19.7814C45.0163 19.7814 45.9993 19.9722 46.8905 20.3539C47.7958 20.7215 48.5738 21.2446 49.2243 21.9232C49.8892 22.6018 50.3984 23.3864 50.752 24.2771L47.5483 25.3586C47.3361 24.8638 47.0461 24.4326 46.6784 24.065C46.3247 23.6974 45.9145 23.4147 45.4478 23.2167C44.9952 23.0189 44.4931 22.9199 43.9414 22.9199C43.1633 22.9199 42.4703 23.1108 41.8621 23.4924C41.2539 23.8742 40.7801 24.4114 40.4405 25.1041C40.1011 25.7827 39.9313 26.5674 39.9313 27.458C39.9313 28.3486 40.1011 29.1403 40.4405 29.8331C40.794 30.5117 41.2751 31.0489 41.8833 31.4448C42.5057 31.8265 43.2129 32.0174 44.0051 32.0174C44.585 32.0174 45.1013 31.9112 45.5539 31.6993C46.0064 31.4871 46.3954 31.1903 46.7208 30.8086C47.0603 30.4269 47.3503 29.9886 47.5908 29.4938L50.7945 30.5753C50.455 31.4801 49.9529 32.2788 49.288 32.9717C48.6232 33.6502 47.8383 34.1803 46.9329 34.5621C46.0277 34.9438 45.0304 35.1346 43.9414 35.1346Z" fill="#E6E5EB"></path>
<path d="M30.3185 23.9741L22.2553 15.915C21.032 14.6922 19.0486 14.6922 17.8252 15.915L14.1923 19.546L15.5508 20.9039C16.7742 22.1267 18.7576 22.1267 19.981 20.9039L20.0402 20.8448L20.4831 21.2876C20.7279 21.5322 20.7279 21.9286 20.4831 22.1732L16.806 25.8485C16.0489 26.5021 15.4612 26.8931 14.5803 27.1339C13.4513 27.4427 12.9728 27.1738 12.8519 27.1216L15.5506 29.8189C16.7741 31.0417 18.7575 31.0417 19.9808 29.8189L24.0567 25.7452C24.3015 25.5005 24.6982 25.5005 24.9428 25.7452C25.1876 25.9898 25.1876 26.3862 24.9428 26.6309L16.8058 34.7638C16.0487 35.4174 15.461 35.8084 14.5801 36.0492C13.4511 36.358 12.9726 36.089 12.8517 36.0369L15.5504 38.7343C16.7738 39.957 18.7572 39.957 19.9807 38.7343L30.318 28.4022C31.5413 27.1795 31.5418 25.1969 30.3185 23.9741Z" fill="#E6E5EB"></path>
<path d="M16.4916 31.5917C15.6106 31.3507 15.0229 30.96 14.2658 30.3062L9.29449 25.3373C9.04972 25.0927 9.04972 24.6963 9.29449 24.4517C9.53925 24.207 9.93586 24.207 10.1806 24.4517L11.0908 25.3613C12.3142 26.5842 14.2976 26.5842 15.521 25.3613L18.2197 22.664C18.0988 22.7162 17.6202 22.9851 16.4913 22.6763C15.6105 22.4354 15.0228 22.0447 14.2657 21.3909L11.9487 19.0752C10.7247 17.8517 8.74 17.8526 7.51698 19.0766L3.91606 22.6805C2.69409 23.9035 2.69472 25.8848 3.91751 27.1071L11.0908 34.2766C12.3142 35.4995 14.2976 35.4995 15.521 34.2766L18.2197 31.5793C18.0988 31.6315 17.6204 31.9003 16.4916 31.5917Z" fill="#E6E5EB"></path>
</g>
</g>
</g>
</g>
<defs>
<clipPath id="clip0_7231_239">
<rect width="144" height="24.77" fill="white" transform="translate(3 15)"></rect>
</clipPath>
<clipPath id="clip1_7231_239">
<rect width="144" height="24.7742" fill="white" transform="translate(3 14.9979)"></rect>
</clipPath>
</defs>
</svg>