<svg width="116" height="54" viewBox="0 0 116 54" fill="none" xmlns="http://www.w3.org/2000/svg">
<g opacity="0.5" clip-path="url(#clip0_7231_165)">
<g clip-path="url(#clip1_7231_165)">
<path d="M20.7757 22.309L14.0512 29.9514C13.915 30.0933 13.9013 30.3113 14.0131 30.4695L21.6916 40.814C21.8823 41.0866 21.6916 41.4602 21.3563 41.4602H15.6104C15.4768 41.4602 15.3487 41.3948 15.2724 41.2829L10.2952 34.6302C10.148 34.4148 9.83996 34.393 9.66006 34.5811L7.84198 36.5006C7.76838 36.5769 7.73023 36.6778 7.73023 36.7841V41.0512C7.73023 41.2775 7.5476 41.4602 7.32137 41.4602H2.62761C2.40138 41.4602 2.21875 41.2775 2.21875 41.0512V12.409C2.21875 12.1827 2.40138 12 2.62761 12H7.31864C7.54487 12 7.7275 12.1827 7.7275 12.409V28.152C7.7275 28.5255 8.18543 28.7054 8.43892 28.4301L14.3783 21.7419C14.4546 21.6574 14.5637 21.6111 14.6782 21.6111H20.4786C20.8383 21.6111 21.0237 22.0418 20.7757 22.3036V22.309Z" fill="#E6E5EB"></path>
<path d="M40.7773 41.1112C40.7473 40.8985 40.7228 40.6668 40.7064 40.4159C40.6819 40.0587 40.2485 39.9033 40.0031 40.1623C39.5507 40.6395 38.9919 41.0239 38.3323 41.3156C37.2965 41.771 36.198 42 35.0395 42C32.6354 42 30.7437 41.2339 29.3646 39.6988C27.9826 38.1665 27.293 36.2525 27.293 33.9594V22.0254C27.293 21.7991 27.4756 21.6165 27.7018 21.6165H32.3956C32.6218 21.6165 32.8044 21.7991 32.8044 22.0254V32.8416C32.8044 34.0576 33.1207 35.0446 33.7584 35.8054C34.3936 36.5661 35.3176 36.945 36.5333 36.945C37.749 36.945 38.6593 36.5797 39.3517 35.8463C40.0413 35.1156 40.3875 34.1394 40.3875 32.9234V22.0254C40.3875 21.7991 40.5701 21.6165 40.7963 21.6165H45.4901C45.7163 21.6165 45.899 21.7991 45.899 22.0254V37.7738C45.899 38.9054 45.9507 39.9851 46.057 41.0103C46.0816 41.2529 45.8935 41.4629 45.6509 41.4629H41.1916C40.9871 41.4629 40.8155 41.3156 40.7855 41.1139L40.7773 41.1112Z" fill="#E6E5EB"></path>
<path d="M56.7447 41.4601H52.051C51.8248 41.4601 51.6422 41.2775 51.6422 41.0512V22.0227C51.6422 21.7964 51.8248 21.6137 52.051 21.6137H56.494C56.7202 21.6137 56.9028 21.7964 56.9028 22.0227V24.1003C57.4262 23.1623 58.2548 22.4153 59.3887 21.8618C60.5199 21.3083 61.6811 21.033 62.8695 21.033C65.5707 21.033 67.4869 21.979 68.6181 23.8713C68.7653 24.1166 69.117 24.1249 69.2913 23.8986C70.7387 21.99 72.7695 21.033 75.3807 21.033C77.4523 21.033 79.1995 21.6818 80.6223 22.9797C82.0452 24.2775 82.7566 26.2133 82.7566 28.7817V41.0484C82.7566 41.2747 82.574 41.4574 82.3477 41.4574H77.8202C77.594 41.4574 77.4114 41.2747 77.4114 41.0484V29.9024C77.4114 28.7408 77.1143 27.8084 76.5201 27.1049C75.9258 26.4015 75.0209 26.047 73.8052 26.047C72.6713 26.047 71.7609 26.4342 71.0713 27.2086C70.3817 27.9829 70.0355 28.9344 70.0355 30.0687V41.0512C70.0355 41.2775 69.8529 41.4601 69.6267 41.4601H64.9765C64.7503 41.4601 64.5677 41.2775 64.5677 41.0512V29.9051C64.5677 28.7436 64.2624 27.8111 63.6572 27.1077C63.0494 26.4042 62.1527 26.0497 60.9642 26.0497C59.7758 26.0497 58.879 26.4288 58.1894 27.1895C57.4997 27.9502 57.1536 28.9099 57.1536 30.0687V41.0512C57.1536 41.2775 56.971 41.4601 56.7447 41.4601Z" fill="#E6E5EB"></path>
<path d="M101.608 41.1112C101.578 40.8985 101.553 40.6668 101.538 40.4159C101.512 40.0587 101.079 39.9033 100.833 40.1623C100.382 40.6395 99.8228 41.0239 99.1628 41.3156C98.1269 41.771 97.0291 42 95.8703 42C93.4662 42 91.5745 41.2339 90.1953 39.6988C88.8134 38.1665 88.1238 36.2525 88.1238 33.9594V22.0254C88.1238 21.7991 88.3064 21.6165 88.5326 21.6165H93.2263C93.4526 21.6165 93.6352 21.7991 93.6352 22.0254V32.8416C93.6352 34.0576 93.9514 35.0446 94.5892 35.8054C95.2243 36.5661 96.1488 36.945 97.3638 36.945C98.5797 36.945 99.49 36.5797 100.183 35.8463C100.872 35.1156 101.218 34.1394 101.218 32.9234V22.0254C101.218 21.7991 101.401 21.6165 101.628 21.6165H106.321C106.548 21.6165 106.729 21.7991 106.729 22.0254V37.7738C106.729 38.9054 106.782 39.9851 106.888 41.0103C106.912 41.2529 106.725 41.4629 106.482 41.4629H102.022C101.818 41.4629 101.646 41.3156 101.616 41.1139L101.608 41.1112Z" fill="#E6E5EB"></path>
<path d="M108.553 21.0248C108.024 20.485 107.76 19.8361 107.76 19.0754C107.76 18.3147 108.024 17.6657 108.553 17.1286C109.082 16.5915 109.723 16.3243 110.475 16.3243C111.228 16.3243 111.876 16.5942 112.41 17.1341C112.944 17.6739 113.211 18.3228 113.211 19.0781C113.211 19.8333 112.944 20.4904 112.41 21.0276C111.876 21.5674 111.229 21.8374 110.475 21.8374C109.72 21.8374 109.084 21.5674 108.553 21.0276V21.0248ZM108.96 17.4994C108.548 17.922 108.341 18.4455 108.341 19.0726C108.341 19.6997 108.548 20.226 108.96 20.6513C109.371 21.0766 109.878 21.2893 110.472 21.2893C111.066 21.2893 111.573 21.0766 111.985 20.6513C112.397 20.226 112.604 19.6997 112.604 19.0726C112.604 18.4455 112.397 17.922 111.985 17.4994C111.571 17.0768 111.066 16.8641 110.472 16.8641C109.878 16.8641 109.371 17.0768 108.96 17.4994ZM110.129 19.4298V20.5477H109.562V17.5485H110.598C110.886 17.5485 111.126 17.6385 111.319 17.8212C111.513 18.0038 111.612 18.2247 111.612 18.4892C111.612 18.6991 111.552 18.8818 111.429 19.0399C111.306 19.1981 111.148 19.3098 110.955 19.3753L111.625 20.5477H110.976L110.349 19.4298H110.126H110.129ZM110.129 18.939H110.516C110.685 18.939 110.813 18.9009 110.903 18.8245C110.993 18.7482 111.036 18.6391 111.036 18.5001C111.036 18.1974 110.862 18.0447 110.516 18.0447H110.129V18.939Z" fill="#E6E5EB"></path>
</g>
</g>
<defs>
<clipPath id="clip0_7231_165">
<rect width="116" height="54" fill="white"></rect>
</clipPath>
<clipPath id="clip1_7231_165">
<rect width="111.562" height="30" fill="white" transform="translate(2.21875 12)"></rect>
</clipPath>
</defs>
</svg>