<svg width="133" height="54" viewBox="0 0 133 54" fill="none" xmlns="http://www.w3.org/2000/svg">
<g opacity="0.5">
<path d="M18.6455 17.0004C22.7794 18.7399 26.9995 20.4189 31.1562 22.1157L34.7754 23.5952C35.3034 23.8114 36.31 24.2 36.7871 24.4604C35.1524 25.2144 32.1656 26.4405 30.4629 27.06C30.9119 27.3847 35.0849 28.9829 35.9834 29.4096C33.7912 30.3655 31.4443 31.2793 29.2197 32.1889L18.5078 36.5551C12.7242 34.2217 6.72694 31.8208 0.993164 29.395C1.74598 29.1024 6.38349 27.346 6.62695 26.9868C4.5779 26.1671 2.53556 25.3305 0.5 24.478C1.06882 24.1484 2.10715 23.7623 2.75781 23.4965L6.49316 21.9711L18.6455 17.0004ZM7.27539 22.5981C5.86783 22.9762 4.0087 23.9179 2.58008 24.4428C3.80771 24.9524 6.10483 25.9754 7.29004 26.3334C8.62431 25.8081 10.6058 25.07 11.8682 24.4565C10.3961 23.8543 8.75783 23.1477 7.27539 22.5981ZM30.1084 22.5825C28.5263 23.1155 26.9853 23.8867 25.4395 24.4301C26.42 24.8472 29.1894 26.0646 30.0977 26.3266L34.7031 24.4604C33.662 24.0265 31.0745 22.8739 30.1084 22.5825ZM19.7451 22.1254C20.4538 22.4195 24.002 23.9494 24.4961 23.9848C25.9658 23.3775 27.4984 22.7641 28.9521 22.1274C28.2535 21.8231 24.7281 20.2716 24.2266 20.27L19.7451 22.1254ZM12.7871 20.2758L8.31934 22.0991C8.93658 22.3889 12.653 24.0292 13.0762 23.9838C14.5509 23.3742 16.1344 22.6863 17.6279 22.1459C16.9603 21.8625 13.231 20.2041 12.7871 20.2758ZM18.418 17.9809L14.0498 19.7631C14.7571 20.0908 18.4087 21.7541 18.9219 21.5971L23.3135 19.8051C22.5188 19.4746 19.0419 17.8984 18.418 17.9809Z" fill="#E6E5EB"></path>
<path fill-rule="evenodd" clip-rule="evenodd" d="M93.7082 21.776C96.4705 21.5099 98.9286 23.5257 99.2092 26.2867C99.4897 29.0478 97.4867 31.5171 94.7278 31.8121C91.9481 32.109 89.4572 30.0877 89.1741 27.3063C88.8918 24.5248 90.9252 22.0441 93.7082 21.776ZM97.3752 26.3463C97.1282 24.591 95.5081 23.3663 93.7522 23.608C91.9896 23.8507 90.7594 25.4788 91.0071 27.2408C91.254 29.0029 92.885 30.2291 94.6467 29.9772C96.4011 29.7261 97.6213 28.1018 97.3752 26.3463Z" fill="#E6E5EB"></path>
<path fill-rule="evenodd" clip-rule="evenodd" d="M102.003 22.1138C104.255 22.1058 108.78 21.3959 109.266 24.3657C109.393 25.1189 109.21 25.8918 108.756 26.5064C108.169 27.2937 107.524 27.5077 106.607 27.6489C107.376 28.6706 108.385 29.6585 109.1 30.7017C109.249 30.9195 109.198 31.1106 109.119 31.3198C108.692 31.6794 108.134 31.5561 107.557 31.522C106.844 31.0829 105.816 29.4378 105.181 28.7759C104.697 28.2713 104.322 27.3438 103.475 27.8101C102.955 28.6689 103.767 30.6395 103.139 31.4185C102.985 31.6094 101.545 31.7987 101.54 30.8589C101.529 28.7476 101.564 26.6354 101.543 24.5239C101.536 23.7878 101.293 22.5391 102.003 22.1138ZM107.135 25.648C108.785 23.3213 104.468 23.7927 103.353 23.814L103.372 25.9585C104.358 25.9737 106.371 26.13 107.135 25.648Z" fill="#E6E5EB"></path>
<path d="M116.574 25.3318C117.389 24.5287 120.078 21.0086 121.128 22.4574C121.221 23.2396 121.238 31.0428 121.054 31.3243C120.698 31.5834 119.587 31.6571 119.486 31.3509C119.212 30.5205 119.339 28.3092 119.346 27.4539L119.324 25.2175C116.174 28.2822 117.066 28.4566 113.818 25.2427C113.81 26.0808 113.902 30.9504 113.68 31.343C113.314 31.6876 111.99 31.8007 111.988 30.8232C111.98 28.0985 111.913 25.36 112.011 22.6375C112.021 22.383 112.142 22.2922 112.297 22.1196L113.349 22.1249C114.183 22.8071 115.75 24.4882 116.574 25.3318Z" fill="#E6E5EB"></path>
<path fill-rule="evenodd" clip-rule="evenodd" d="M127.7 21.9563C129.65 21.9327 131.37 23.2616 131.495 25.2903C131.593 26.8762 130.331 28.2872 129.489 29.4954C129.108 30.0428 128.753 30.648 128.308 31.1477C127.885 31.6218 127.509 31.5542 126.89 31.5637C126.563 31.458 126.477 31.3977 126.326 31.1145C126.251 30.4598 127.012 29.6458 127.43 29.0911C126.724 28.9226 126.212 28.743 125.635 28.2952C124.885 27.723 124.397 26.8742 124.28 25.9387C124.158 25.0085 124.417 24.0686 124.997 23.3313C125.704 22.4373 126.607 22.0907 127.7 21.9563ZM129.165 24.4192C128.771 23.95 128.155 23.7289 127.553 23.8411C126.639 24.0114 126.032 24.8842 126.189 25.8001C126.347 26.7156 127.209 27.3356 128.127 27.1917C128.732 27.0967 129.24 26.6827 129.455 26.1086C129.67 25.5345 129.559 24.8887 129.165 24.4192Z" fill="#E6E5EB"></path>
<path fill-rule="evenodd" clip-rule="evenodd" d="M43.1576 22.1088C44.5743 22.1011 46.2594 21.9119 47.3197 22.9858C47.8308 23.5097 48.1117 24.2158 48.101 24.9477C48.0999 25.6399 47.8187 26.3019 47.3217 26.7836C46.3084 27.7684 44.9994 27.6811 43.6986 27.6704L42.1498 27.6752C42.1203 28.421 42.312 31.0071 41.9399 31.4077C41.5368 31.6446 40.434 31.5642 40.4389 31.2846C40.4771 29.1657 40.004 24.3861 40.4067 22.4721C40.6217 22.1858 40.51 22.28 40.851 22.1254L43.1576 22.1088ZM45.9692 25.6186C47.4099 23.3036 43.3404 23.7934 42.1713 23.812L42.1654 25.9565C43.2049 25.9679 45.1511 26.1447 45.9692 25.6186Z" fill="#E6E5EB"></path>
<path fill-rule="evenodd" clip-rule="evenodd" d="M63.4239 22.1233C63.8156 22.0978 64.2298 22.1286 64.6231 22.1468C65.8821 24.3628 67.661 28.5072 68.8155 30.9202C68.8982 31.0947 68.7497 31.2777 68.6544 31.4085C67.0377 32.1492 66.6455 30.5929 66.1329 29.4241L64.5167 29.4173L61.7598 29.4144C61.5358 29.9307 61.0521 31.2498 60.5997 31.4876C60.265 31.6629 59.3238 31.6524 59.0997 31.1292C59.3905 29.7826 62.4399 24.033 63.1133 22.4398C63.16 22.3293 63.3154 22.1941 63.4239 22.1233ZM62.5518 27.7464L64.0294 27.7571L65.337 27.7552C65.1263 27.2823 64.1809 25.0845 63.9161 24.8558L62.5518 27.7464Z" fill="#E6E5EB"></path>
<path d="M80.4448 22.1165C81.503 22.1111 87.0369 22.0064 87.6993 22.2143C87.8507 22.3612 87.9042 22.4157 87.924 22.6288C87.9536 22.9427 87.9659 23.3847 87.7438 23.6309C87.3397 24.0778 82.7234 23.8515 81.7918 23.8683C81.7565 24.5185 81.777 25.2455 81.7811 25.9022C82.7011 25.8922 86.1844 25.7708 86.9077 26.0225C86.9949 26.4771 87.097 27.1191 86.7958 27.4971C86.1926 27.7546 82.6904 27.6437 81.7795 27.6537C81.7672 28.2246 81.8536 31.0988 81.6528 31.3679C81.3681 31.5587 81.0801 31.5931 80.7418 31.5607C80.5188 31.5394 80.2662 31.4939 80.1239 31.3039C79.9815 31.1147 79.8976 23.1682 80.0309 22.5623C80.0835 22.3238 80.2596 22.2454 80.4448 22.1165Z" fill="#E6E5EB"></path>
<path d="M68.4826 22.1166C70.8616 22.0329 73.4734 22.1356 75.8738 22.0915C76.4679 22.0806 77.6726 21.9607 78.0042 22.4436C78.0503 22.8087 78.0923 23.3018 77.9145 23.6303C77.4019 23.9357 74.8122 23.8237 74.0124 23.8212L74.0091 27.8928C73.9992 28.7393 74.3292 31.1428 73.5466 31.5499C73.0924 31.5875 72.7707 31.6423 72.3782 31.3916C72.0762 30.973 72.1897 29.2204 72.1914 28.623L72.2004 23.828C71.1422 23.8037 67.8243 24.3644 68.1485 22.7999C68.2308 22.4028 68.1568 22.3807 68.4826 22.1166Z" fill="#E6E5EB"></path>
<path d="M50.9987 22.1019C51.2213 22.0949 51.4442 22.0909 51.6669 22.0898C51.996 22.0895 52.2204 22.0791 52.4585 22.3176C52.5983 22.8958 52.5561 24.484 52.5559 25.1553L52.5506 29.7556C53.3985 29.7606 56.3663 29.6386 56.9879 29.8661C57.3788 30.2339 57.4248 31.1112 57.05 31.5227C56.219 31.585 51.6229 31.6293 51.0268 31.4247C50.6886 31.1408 50.7297 29.8258 50.733 29.3749C50.7493 27.1073 50.6869 24.8282 50.7736 22.563C50.7802 22.3897 50.891 22.231 50.9987 22.1019Z" fill="#E6E5EB"></path>
</g>
</svg>