<svg width="152" height="54" viewBox="0 0 152 54" fill="none" xmlns="http://www.w3.org/2000/svg">
<g opacity="0.5">
<g clip-path="url(#clip0_7231_193)">
<g clip-path="url(#clip1_7231_193)">
<path d="M146.813 15.4465L140.059 26.664L147.327 38.0536H140.47L135.53 29.9397L130.591 38.0536H123.733L131.001 26.664L124.248 15.4465H130.546L135.53 23.4385L140.515 15.4465H146.813ZM63.726 38.0536L62.5843 34.7851H54.4138L53.1751 38.0536H46.7207L56.1523 15.4465H60.8905L70.2401 38.0536H63.7185H63.726ZM58.5699 23.8328L58.4729 23.8041L56.0553 30.2049H60.9875L58.5699 23.8328ZM72.5457 38.0536V15.4465H80.4999C83.0148 15.4178 84.8875 15.7547 86.1262 16.2995C88.6705 17.432 90.2596 20.0267 90.2596 23.0801C90.2596 26.1336 87.8425 30.9646 81.1046 30.9646H78.3062V38.0536H72.5532H72.5457ZM80.8732 25.8971C83.2903 25.8971 84.4996 25.1014 84.4996 23.1805C84.4996 21.2595 83.3204 20.5213 80.6491 20.5213H78.2988V25.8971H80.8732ZM92.9464 38.0536V15.4465H98.9606V32.9788H105.922V38.0536H92.9464ZM108.578 38.0536V15.4465H121.652V20.5213H114.339V24.0335H121.428V29.101H114.339V32.9788H121.652V38.0536H108.578ZM16.6051 15.0164C9.85971 15.0164 4.39026 20.2704 4.39026 26.75C4.39026 33.2296 9.85971 38.4837 16.6051 38.4837C23.3505 38.4837 28.82 33.2296 28.82 26.75C28.82 20.2704 23.3505 15.0164 16.6051 15.0164ZM16.6051 32.9071C13.0683 32.9071 10.1955 30.1475 10.1955 26.75C10.1955 23.3525 13.0683 20.5929 16.6051 20.5929C20.142 20.5929 23.0147 23.3525 23.0147 26.75C23.0147 30.1475 20.1494 32.9071 16.6051 32.9071ZM44.415 38.0536V32.9788H37.4532V15.4465H31.4391V38.0536H44.415Z" fill="#E6E5EB"></path>
</g>
</g>
</g>
<defs>
<clipPath id="clip0_7231_193">
<rect width="144" height="23.5" fill="white" transform="translate(4 15)"></rect>
</clipPath>
<clipPath id="clip1_7231_193">
<rect width="144" height="23.5102" fill="white" transform="translate(4 14.9949)"></rect>
</clipPath>
</defs>
</svg>