<svg width="149" height="54" viewBox="0 0 149 54" fill="none" xmlns="http://www.w3.org/2000/svg">
<g opacity="0.5">
<g clip-path="url(#clip0_7231_173)">
<g clip-path="url(#clip1_7231_173)">
<mask id="mask0_7231_173" style="mask-type:luminance" maskUnits="userSpaceOnUse" x="3" y="13" width="144" height="27">
<path d="M146.733 13.9962H3V39.8838H146.733V13.9962Z" fill="white"></path>
</mask>
<g mask="url(#mask0_7231_173)">
<path d="M6.40224 21.7857C7.6306 20.5606 4.70358 19.4605 4.80225 21.2381C4.84993 22.0964 5.95332 22.2329 6.40224 21.7857ZM35.1413 23.5928C33.6037 17.4477 27.1922 13.0539 20.8597 14.1688C20.1099 14.3004 18.7122 14.9236 18.1679 14.9417C17.7847 14.9548 17.3687 14.5405 16.8589 14.4665C15.8542 14.3218 14.5667 14.6901 14.2361 15.7524C13.9845 16.5565 14.4334 17.4724 14.2081 18.0068C14.1457 18.1565 13.0078 19.4671 12.9009 19.4983C12.5999 19.5855 12.253 19.4802 11.9537 19.5361C11.6676 19.5887 11.3535 19.8584 11.1529 19.8239C11.0822 19.8124 9.96563 19.1744 9.89821 19.1119C9.60058 18.8389 9.49205 18.1663 9.06779 17.9756C7.72926 17.3721 6.77387 18.9672 7.83615 19.8568C8.74549 20.6181 9.03655 19.6775 9.61867 19.7285C9.74857 19.74 10.7533 20.2564 10.801 20.3386C10.8635 20.4471 10.6744 20.9355 10.7155 21.2331C10.7697 21.6442 11.1989 22.0372 11.1709 22.3694C11.1595 22.4927 10.2139 24.4973 10.135 24.6025C9.94261 24.8607 9.37201 24.5861 9.2717 24.4101C9.15001 24.1947 9.29143 23.7359 9.20264 23.4119C8.97571 22.5914 7.3938 22.5783 7.0567 23.3347C6.86595 23.7638 7.02382 24.2226 6.85116 24.6041C6.77552 24.7718 6.4861 24.9132 6.371 25.1073C6.16051 25.4576 5.60964 26.579 5.38107 26.7534C4.919 27.1085 4.40431 26.1449 3.74326 26.2387C2.20575 26.4557 3.31572 29.0588 4.73647 27.5673L5.10646 27.8255C4.93709 28.7513 5.08015 29.8662 4.95682 30.7393C4.92228 30.9877 4.66083 31.1751 4.63452 31.4119C4.48652 32.7209 6.58641 32.5416 6.21313 31.3166C6.09474 30.9268 5.6935 30.8528 5.61293 30.2658C5.56853 29.9468 5.69186 27.8962 6.03061 27.8847L8.17653 29.192C8.11404 29.7478 8.10254 30.4911 8.64848 30.8413C9.17961 31.1817 9.77488 30.7706 10.2304 31.231C10.3389 31.3412 11.6216 33.6614 11.536 33.7765C10.898 33.8423 10.1827 34.6579 9.60715 34.7385C9.09246 34.8109 8.23409 33.6055 7.33461 34.7484C6.41868 35.9143 7.97592 37.3038 9.06286 36.4717C9.38845 36.2234 9.39503 35.6758 9.6088 35.4604C9.91301 35.1546 11.4488 34.6382 11.9225 34.2945C12.151 34.3389 13.5619 36.1823 13.6853 36.4684C14.0207 37.2479 13.5175 38.1572 14.5354 38.5683C15.5582 38.9811 15.8805 38.3578 16.3837 38.3709C16.5432 38.3742 17.6055 39.0337 18.0346 39.1751C27.9997 42.4458 37.7081 33.8391 35.1429 23.5896L35.1413 23.5928ZM8.79154 28.6888C8.50542 28.7595 6.59628 27.3322 6.18518 27.0724L7.2935 24.9659C8.30809 25.1747 9.02669 24.4479 9.70418 25.5414C9.44436 26.1351 9.35557 28.5507 8.79154 28.6904V28.6888ZM25.4985 20.5145C25.7452 20.5474 25.7683 21.22 25.8027 21.437C25.8538 21.7577 26.079 23.6866 25.9885 23.7885C24.6582 23.5007 25.8077 21.5209 25.4985 20.5145ZM18.4375 15.4432C20.4733 14.5602 21.6836 14.5503 23.3033 16.1487C25.3506 18.1663 24.9329 20.1478 24.6747 22.8068C22.9942 22.6046 23.8065 21.1114 22.6209 20.1873C21.7674 19.5213 21.0784 19.6759 20.0753 19.7861L18.3125 17.8128C18.8076 17.058 18.5691 16.2621 18.4375 15.4432ZM23.8163 25.9624C23.5549 26.6695 23.1536 27.3502 22.8675 28.0475L22.2492 24.0549L23.4414 22.9679C25.0694 23.4169 24.2521 24.785 23.8163 25.9624ZM10.4902 29.2035C10.4491 29.1985 9.93275 28.6378 9.91959 28.5983C9.78804 28.2037 10.1893 25.9411 10.4655 25.9229L12.8269 27.2483C13.2248 27.9982 10.9013 29.2479 10.4902 29.2035ZM13.1952 25.035C13.1229 25.5382 13.2084 26.0677 13.1772 26.5741C12.9354 26.8191 11.0986 25.4723 10.7007 25.3228C10.6201 24.9396 11.4768 22.8907 11.7827 22.644C11.9932 22.473 13.1574 22.2757 13.3383 22.3891C14.1325 22.8907 13.3153 24.2161 13.1952 25.035ZM14.0799 22.3119C13.6606 22.0274 13.6178 21.6525 13.6688 21.169H15.1471L14.0799 22.3119ZM13.5767 20.3616C13.1689 19.9867 14.5683 18.4459 14.7623 18.4097C15.8361 18.9606 16.803 19.1316 17.862 18.4278L19.5146 20.0261L19.2301 20.8253C18.398 20.3633 13.8168 20.6938 13.5767 20.3616ZM16.5712 28.526C15.4135 27.6907 16.2275 23.8362 17.4015 23.4909C19.7152 22.8117 18.0593 28.9486 16.5712 28.526ZM17.6416 29.2413C17.4082 28.4717 18.0495 28.3616 18.306 27.8386C18.9177 26.5857 19.4571 23.2097 18.0198 22.3201L15.9709 21.1707L18.9275 21.3318C18.671 23.2393 19.8648 24.1568 21.6424 24.2686C21.6852 24.9363 22.3989 27.6265 21.8908 27.9751C21.6967 28.1067 21.1771 28.0343 20.7397 28.3023C20.2957 28.5721 20.0293 29.1311 19.6724 29.4863L17.7781 28.8697L18.2698 29.6063C18.107 29.8711 17.7074 29.4568 17.6433 29.243L17.6416 29.2413ZM18.4342 29.8514L19.6708 30.1721L19.8944 31.4629L19.0904 31.8148C19.0953 31.0715 18.6924 30.5025 18.4326 29.8514H18.4342ZM26.944 33.2618C26.8946 33.3408 26.5543 33.3457 26.4967 33.5545C26.4441 33.7437 26.6398 33.9969 26.6118 34.1745C26.5427 34.602 24.2735 35.6824 24.188 35.8748C24.1485 35.9636 24.0581 36.4372 24.1025 36.5687L25.6613 35.9126C25.8044 36.6592 25.9672 37.8398 25.2338 38.3513C24.2915 39.0074 19.7234 39.4497 19.1627 38.5354C19.5409 36.6345 19.4933 34.6448 19.3205 32.7093C20.2217 31.5105 20.4667 32.2637 21.3481 32.4347C22.6521 32.6879 23.4036 32.1979 24.1304 31.1899L26.4112 31.3198C26.2829 31.9036 27.1922 32.8754 26.9456 33.2652L26.944 33.2618ZM28.1246 30.4237C27.758 30.5996 24.4116 30.5733 24.2571 30.3496C24.4774 29.7396 23.369 28.5293 23.3872 28.3254C23.4579 27.5196 25.2503 25.3376 25.0052 24.1191C25.2321 23.8839 26.2648 25.1665 26.4095 25.4198C26.7417 25.997 28.3023 29.2019 28.391 29.6837C28.4486 29.9977 28.4683 30.2592 28.1246 30.4237Z" fill="#E6E5EB"></path>
<path d="M117.16 28.3764L111.083 20.6774H108.618V33.2915H111.245V25.2635L117.562 33.2915H119.788V20.6774H117.16V28.3764Z" fill="#E6E5EB"></path>
<path d="M74.9454 27.3158C77.5567 25.5102 76.4517 21.1559 73.3799 20.6774H66.0706V33.2898C66.0213 33.2898 68.8628 33.2898 68.8628 33.2898V28.3649H71.0926L74.6954 33.2898H77.5698L73.9522 27.9669L74.9454 27.3141V27.3158ZM72.5594 25.9197H68.8628V22.9713H72.5594C74.1035 22.9713 74.064 25.9197 72.5594 25.9197Z" fill="#E6E5EB"></path>
<path d="M99.3781 20.3912C91.0536 21.4551 92.407 35.0789 101.757 33.4115C109.694 31.9957 108.231 19.2599 99.3781 20.3912ZM99.539 30.9581C95.4642 30.2658 95.4803 23.2212 100.044 22.8479C105.807 22.3776 105.603 31.9874 99.539 30.9581Z" fill="#E6E5EB"></path>
<path d="M57.0002 20.3961C49.1005 21.3334 49.5231 33.5348 57.9391 33.5266C67.0572 33.5184 66.4044 19.2796 57.0002 20.3961ZM58.582 30.9827C53.0059 31.7523 52.4813 23.3248 57.4935 22.8512C62.6568 22.3628 63.2849 30.3348 58.582 30.9827Z" fill="#E6E5EB"></path>
<path d="M47.0154 25.2635H41.431V20.6774H38.6373V33.2915H41.431V27.7219H47.0154V33.2915H49.6448V20.6774H47.0154V25.2635Z" fill="#E6E5EB"></path>
<path d="M86.6058 30.8331L93.0024 22.223L93.0121 20.6757H83.1558V22.9696H89.2334L83.0111 31.0978V33.2881H93.093C93.1157 33.3227 93.093 30.8314 93.093 30.8314H86.6041L86.6058 30.8331Z" fill="#E6E5EB"></path>
<path d="M127.015 25.1813C127.018 24.7505 129.277 23.2623 129.561 22.6407C129.798 22.1211 129.569 21.2545 129.646 20.6773H121.514C121.526 20.6428 121.514 22.9713 121.514 22.9713H126.032C125.461 23.9447 123.427 25.3721 123.427 25.3721V27.125C123.427 27.125 123.948 27.1036 124.322 27.0806C125.395 27.0165 127.252 27.1349 127.502 28.4668C128.168 32.0137 123.116 31.4514 121.268 30.0159V32.637C122.835 33.3753 124.525 33.6927 126.258 33.4345C131.042 32.7258 131.878 26.4656 127.015 25.1813Z" fill="#E6E5EB"></path>
<path d="M142.86 31.6602C142.526 30.6358 142.918 28.406 142.768 27.1661C142.434 24.4003 139.476 23.9366 137.169 24.4939C135.881 24.8048 135.556 24.9594 135.725 26.4113C137.809 25.053 141.818 24.933 141.472 28.3764C140.624 28.2432 139.993 27.7975 139.098 27.7153C136.574 27.4818 134.129 28.5754 134.808 31.5007C135.392 34.0084 140.002 34.0117 141.392 32.1453H141.634C141.775 33.3063 143.084 33.5579 144.028 33.1369L144.101 32.142C143.542 32.1502 143.066 32.2916 142.859 31.6602H142.86ZM136.472 31.6438C135.537 30.6407 136.233 29.1591 137.486 28.9058C138.289 28.7431 141.131 28.8894 141.446 29.7971C142.125 31.7507 137.857 33.1287 136.473 31.6438H136.472Z" fill="#E6E5EB"></path>
<path d="M78.7209 33.2915H81.5131V20.6774H78.7209V33.2915Z" fill="#E6E5EB"></path>
<path d="M146.422 24.4447H145.109V33.2898H146.422V24.4447Z" fill="#E6E5EB"></path>
<path d="M132.47 33.4822C133.005 33.4822 133.438 33.0486 133.438 32.5137C133.438 31.9788 133.005 31.5451 132.47 31.5451C131.934 31.5451 131.501 31.9788 131.501 32.5137C131.501 33.0486 131.934 33.4822 132.47 33.4822Z" fill="#E6E5EB"></path>
<path d="M145.765 22.4878C146.299 22.4878 146.733 22.0542 146.733 21.5192C146.733 20.9843 146.299 20.5507 145.765 20.5507C145.229 20.5507 144.796 20.9843 144.796 21.5192C144.796 22.0542 145.229 22.4878 145.765 22.4878Z" fill="#E6E5EB"></path>
</g>
</g>
</g>
</g>
<defs>
<clipPath id="clip0_7231_173">
<rect width="144" height="25.88" fill="white" transform="translate(3 14)"></rect>
</clipPath>
<clipPath id="clip1_7231_173">
<rect width="144" height="25.8876" fill="white" transform="translate(3 13.9962)"></rect>
</clipPath>
</defs>
</svg>