<?xml version="1.0" encoding="UTF-8"?>
<svg xmlns="http://www.w3.org/2000/svg" viewBox="0 0 2069.6 308.5" width="300" height="45">
  <path fill="#23A7E0" d="M2012.6 77.9c-31.7 0-57.4 25.1-57.4 55.9 0 28.7 22.9 53.3 51.2 56l-16.7 23c-2.4 3.4-2.8 7.6-1.1 11 1.8 3.5 5.4 5.5 9.6 5.5h8.5c4.9 0 10.1-2.7 13-6.6l36.3-51c1.5-2.1 3.4-5.3 4.5-7.4.9-1.8 9.1-17.7 9.1-29.6 0-31.9-25-56.8-57-56.8zm-27.5 56c0-14.8 12.4-26.8 27.5-26.8 15 0 27.2 12 27.2 26.8s-12.2 26.8-27.2 26.8c-14.9.1-27.5-12.2-27.5-26.8z"></path>
  <path fill="#010101" d="M1016.6 87.1c-2.3-6.2-7.1-6.9-9.1-6.9h-10.2c-5.8 0-8.3 4.8-9.1 6.5l-61 128.9c-2 3.7-2.1 7-.4 9.8 1.5 2.4 4 3.8 6.9 3.8h11.9c4.2 0 7.1-1.6 8.7-4.7.5-1.1.9-1.9 1.3-2.8l12.1-26 69.2.1 12.4 26.4c2 4.6 5.3 6.9 9.7 6.9h12.5c3 0 5.6-1.4 7.1-3.8s1.6-5.4.3-8.1l-62.3-130.1zm-36.5 82.1l22.3-47.2 22.1 47.2h-44.4zM896.6 209.3c-.4-2.7-2-5.2-4.2-6.7-1.8-1.2-3.9-1.5-5.5-1.5h-64.6V88.8c0-5.2-3.6-8.8-8.8-8.8H803c-5.6 0-9.2 3.5-9.2 9v130.9c0 5.4 4 9.4 9.4 9.4h85.3c3.3 0 8.8-1.2 8.8-9.6l-.6-10.2-.1-.2zM701.7 80.2h-62c-6.4 0-10.5 4.4-10.5 11.1v128.6c0 5.4 4 9.4 9.4 9.4h9.7c5.9 0 9.4-3.7 9.4-9.9v-51.7h46.8c27.7 0 47-18.1 47-44 0-21.6-15.4-43.5-49.8-43.5zm-43.9 26.6h43.9c7.3 0 13.2 2.1 17.1 6 2.9 3 4.5 6.9 4.4 10.9-.3 8.6-7.1 17.2-21.5 17.2h-43.9v-34.1zM1216.2 80h-138.6c-4.1 0-8.6 2.3-8.6 8.8v9.1c0 8.5 6.9 9.2 9 9.2h54.8V220c0 5.6 3.7 9.4 9.2 9.4h10.4c2.7 0 9-.9 9-9.4V107h54.6c5.4 0 9.2-3.6 9.2-8.8v-9.7c0-4.2-2.8-8.5-9-8.5zM1715.5 215.4c-7.4-8.9-20.1-24.2-39.5-47.8 25.5-1.7 42.9-19.3 42.9-43.8 0-21.7-15.4-43.5-49.8-43.5h-62c-6.4 0-10.5 4.4-10.5 11.1V220c0 5.4 4 9.4 9.4 9.4h9.7c5.9 0 9.4-3.7 9.4-9.9v-51.7h14c8.2 10 29.9 36.6 47 57.1l.2.2.2.2c.7.7 4.6 4 9.7 4h13.1c4.7 0 7.7-1.5 9.1-4.4 1.1-2.4.7-5.2-1.1-7.4l-1.8-2.1zm-90.3-108.6h43.9c7.3 0 13.2 2.1 17.1 6 2.9 3 4.5 6.9 4.4 10.9-.3 8.6-7.1 17.2-21.5 17.2h-43.9v-34.1zM1373.2 80h-107c-5.6 0-10.1 4.5-10.1 10.3v130.3c0 4.9 3.7 8.8 8.3 8.8h11.4c4.7 0 8.5-3.8 8.5-8.5v-53.3h73.9c4.7 0 8.3-3.7 8.3-8.5v-10.6c0-4.7-3.7-8.3-8.3-8.3l-73.9.1v-32.7h87.9c4.6 0 8.1-3.1 9.1-7.8l.1-.4.1-9c.4-2.4-.3-5-1.9-7-1.5-2.2-3.9-3.4-6.4-3.4zM1898.5 80.2h-8.9c-5 0-7.9 2.4-9.6 4.2l-46 46.7-47-47.5-.3-.2c-2.4-2.1-5.3-3.2-8.5-3.2h-8.3c-5.1 0-8.6 3.5-8.6 8.8v131.1c0 5.5 3.5 9.2 8.8 9.2h10.8c5.5 0 9.2-3.8 9.2-9.4v-90.8l34.2 33.9c1.8 2.4 5.1 4.7 9.4 4.7 4.3 0 7.6-2.2 9.2-4.3l34.6-34.4v91.3c0 5.1 3.8 9 8.7 9h11c4.5 0 9.2-3.3 9.2-9.4V89.6c.2-5.1-2.8-8.6-7.9-9.4zM1480.2 76.1c-44.8 0-81.2 35-81.2 78.1 0 43.1 36.4 78.1 81.2 78.1 44.9 0 81.4-35.1 81.4-78.1 0-43-36.5-78.1-81.4-78.1zm0 127.5c-28.9 0-52.4-22.1-52.4-49.4 0-27.2 23.5-49.4 52.4-49.4 29 0 52.6 22.1 52.6 49.4 0 27.2-23.6 49.4-52.6 49.4z"></path>
  <path fill="#23A7E0" d="M570.9 116l-87.4-35.8-16.3-6.7-73.6-30.1-16.4-6.7S289.3 1 288 .3c-1.4-.7-3.3 0-3.3 0L196 36.6l-16.3 6.7-74.4 30.4L89 80.4.7 116.5s-1.5.7-.2 1.3c.4.2 45 18.5 98.9 40.5 76.5 31.3 171.6 70.2 185.3 75.8 1.2.4 2.2.5 3.2.1 12.9-5.3 107.4-43.9 183.7-75.2 53.3-21.8 97.8-39.9 99.2-40.4 3.2-1.5.1-2.6.1-2.6M450.6 80.4l-73.5 30.1h-.1l-73.7-30.1 73.6-30.1 73.7 30.1zm-89.9 36.7l-74.2 30.3-73.7-30L287 87l73.7 30.1zM286.4 13.2l74.1 30.3L287 73.7l-74.3-30.4 73.7-30.1zm-90 36.8l74.2 30.4-74.1 30.4L122 80.4 196.4 50zM32.2 117.1L105.8 87l74.5 30.4-73.6 30.1-74.5-30.4zm90.7 37.1l73.6-30.1 73.7 30.1-73.7 30.1-73.6-30.1zm163.5 66.9L212.8 191l73.7-30.2h.1l73.6 30.1-73.8 30.2zm90.1-36.9l-73.6-30.1 74.2-30.3 73.7 30-74.3 30.4zm90.6-37.1l-73.7-30L466.9 87l73.6 30.1-73.4 30z"></path>
  <path fill="#1C8CC9" d="M360.7 117.1l-74.2 30.4-73.7-30L287 87zM450.8 153.8l-74.3 30.4-73.6-30.1 74.2-30.3zM360.2 190.9l-73.8 30.2-73.6-30.1 73.7-30.2h.1z"></path>
  <path fill="#0D7DB7" d="M560.9 195.5l-276.3 113-276.5-113 91.2-37.3c76.5 31.3 171.6 70.2 185.3 75.8 1.2.4 2.2.5 3.2.1 12.9-5.3 107.4-43.9 183.7-75.2l89.4 36.6z"></path>
  <path fill="#6CCDEE" d="M180.3 117.5l-73.7 30.1-74.4-30.5L105.8 87z"></path>
  <path fill="#1C8CC9" d="M270.2 154.2l-73.7 30.1-73.6-30.1 73.6-30.1z"></path>
  <path fill="#6CCDEE" d="M270.7 80.4l-74.2 30.4-74.4-30.4L196.4 50zM360.5 43.5L287 73.7l-74.3-30.4 73.7-30.1zM450.6 80.4l-73.5 30.1h-.1l-73.7-30.1 73.6-30.1zM540.5 117.1l-73.4 30-73.7-30L466.9 87z"></path>
</svg>