<svg width="1655" height="483" viewBox="0 0 1655 483" fill="none" xmlns="http://www.w3.org/2000/svg">
<path d="M170.686 0.000488313H322.193L164.92 465.997C163.304 470.786 160.225 474.948 156.119 477.896C152.012 480.844 147.085 482.43 142.03 482.43H24.1224C20.2926 482.43 16.5179 481.519 13.1104 479.77C9.70288 478.022 6.76063 475.488 4.52705 472.377C2.29347 469.266 0.832765 465.668 0.265793 461.88C-0.301179 458.093 0.0418789 454.225 1.26658 450.596L147.795 16.4339C149.412 11.6441 152.49 7.48203 156.597 4.53392C160.703 1.58582 165.631 0.000229594 170.686 0.000488313Z" fill="url(#paint0_linear_1422_7621)"></path>
<path d="M390.846 312.56H150.594C148.361 312.559 146.18 313.231 144.334 314.487C142.488 315.744 141.063 317.527 140.244 319.604C139.426 321.682 139.251 323.957 139.744 326.135C140.236 328.313 141.373 330.293 143.006 331.816L297.388 475.903C301.882 480.097 307.799 482.43 313.946 482.43H449.98L390.846 312.56Z" fill="#0078D4"></path>
<path d="M170.686 0.000166489C165.576 -0.0188762 160.594 1.59608 156.468 4.60922C152.341 7.62237 149.285 11.8759 147.747 16.7487L1.44801 450.202C0.141392 453.844 -0.268848 457.747 0.252003 461.581C0.772853 465.415 2.20947 469.067 4.44032 472.228C6.67117 475.39 9.63063 477.967 13.0683 479.743C16.506 481.519 20.3208 482.44 24.19 482.43H145.141C149.647 481.625 153.859 479.638 157.345 476.672C160.832 473.707 163.469 469.868 164.986 465.55L194.155 379.575L298.368 476.771C302.735 480.384 308.213 482.382 313.88 482.43H449.411L389.966 312.559L216.682 312.599L322.745 0.000166489H170.686Z" fill="url(#paint1_linear_1422_7621)"></path>
<path d="M364.198 16.4077C362.584 11.6257 359.511 7.47048 355.411 4.52712C351.311 1.58377 346.391 0.000570875 341.344 0.000488282H172.494C177.541 0.000441709 182.461 1.58355 186.561 4.52689C190.661 7.47024 193.735 11.6255 195.349 16.4077L341.887 450.594C343.112 454.223 343.455 458.091 342.888 461.878C342.321 465.666 340.86 469.264 338.627 472.375C336.393 475.487 333.451 478.021 330.043 479.77C326.636 481.518 322.861 482.43 319.031 482.43H487.882C491.712 482.43 495.486 481.517 498.893 479.769C502.301 478.02 505.242 475.486 507.476 472.374C509.709 469.263 511.17 465.665 511.736 461.878C512.303 458.09 511.96 454.222 510.736 450.594L364.198 16.4077Z" fill="url(#paint2_linear_1422_7621)"></path>
<path d="M1160.07 392.536C1121.28 390.051 1098.72 367.965 1092.74 326.622C1091.15 315.626 1091.14 315.338 1090.98 243.946L1090.82 174.845H1125.16L1125.29 241.679C1125.41 301.92 1125.49 308.983 1126.07 313.218C1128.4 330.417 1133.06 341.984 1140.98 350.283C1147.32 356.926 1154.74 360.818 1165.01 362.88C1169.86 363.854 1183.65 363.854 1188.07 362.884C1198.48 360.593 1206.83 356.059 1214.2 348.697C1222.6 340.308 1228.8 328.402 1231.81 314.945L1232.82 310.404L1232.93 243.002L1233.04 175.601H1268.1V387.515H1233.41V370.706C1233.41 359.283 1233.28 353.933 1233.02 354.024C1232.8 354.095 1231.91 355.458 1231.04 357.053C1225.06 367.952 1215.1 377.923 1204.19 383.928C1191.11 391.125 1177.99 393.684 1160.07 392.536ZM1553.76 392.368C1540.07 391.337 1525.65 386.628 1513.87 379.337C1489.03 363.979 1474.34 338.656 1470.04 303.805C1468.55 291.748 1468.37 275.546 1469.61 265.299C1472.39 242.405 1481.38 219.926 1494.2 203.879C1497.48 199.769 1504.93 192.316 1509.04 189.035C1520.12 180.179 1533.09 173.988 1546.94 170.943C1554.98 169.186 1569.13 168.36 1577.67 169.153C1599.13 171.141 1618.79 181.24 1632.15 197.136C1645.72 213.29 1653.19 235.859 1654.14 263.647C1654.29 268.003 1654.33 275.637 1654.22 280.614L1654.03 289.665L1578.9 289.759L1503.77 289.853V293.209C1503.77 303.415 1506.25 315.039 1510.54 324.929C1514.24 333.46 1520.6 342.773 1525.82 347.28C1536.51 356.523 1549.59 362.054 1563.91 363.384C1569.21 363.878 1582.75 363.357 1588.79 362.427C1606.06 359.774 1622.46 353.006 1635.71 343.072C1636.8 342.243 1637.91 341.433 1639.03 340.644C1639.42 340.402 1639.51 343.455 1639.5 356.294L1639.49 372.244L1635.94 374.44C1620.95 383.71 1603.77 389.664 1585.59 391.891C1580.16 392.556 1560.25 392.858 1553.76 392.368ZM1619.15 257.844C1619.15 240.746 1611.94 221.753 1601.75 211.973C1594.47 204.994 1585.68 200.729 1575.22 199.11C1570.27 198.345 1559.85 198.64 1554.63 199.691C1543.61 201.921 1534.49 206.768 1526.53 214.627C1518.16 222.899 1511.89 232.947 1507.94 244.393C1506.52 248.51 1504.86 255.268 1504.35 259.029L1504.1 260.819H1619.15L1619.15 257.844ZM600.005 387.045C600.093 386.783 625.607 319.761 656.7 238.102L713.237 89.6304H749.566L751.074 93.4926C755.678 105.304 864.255 387.192 864.255 387.34C864.255 387.434 855.556 387.515 844.93 387.512L825.605 387.508L809.955 345.846L794.304 304.181H668.294L667.743 305.595C667.44 306.374 660.757 325.121 652.885 347.253L638.578 387.501L619.209 387.508C603.881 387.511 599.878 387.417 600.005 387.045ZM782.808 272.386C782.808 272.319 772.276 243.772 759.403 208.944C735.322 143.789 733.979 139.87 732.075 129.408C731.185 124.505 730.731 124.371 730.201 128.844C729.824 132.041 728.185 139.202 726.916 143.171C726.288 145.143 715.447 174.902 702.822 209.31C690.194 243.714 679.867 272.006 679.867 272.184C679.867 272.362 703.027 272.507 731.336 272.507C759.644 272.507 782.808 272.45 782.808 272.386ZM875.942 382.088V376.664L938.719 290.367L1001.49 204.071L944.657 203.879L887.821 203.691L887.72 189.27L887.623 174.845H1052.03V184.588L989.254 271.355C954.722 319.079 926.471 358.205 926.471 358.303C926.471 358.4 954.383 358.481 988.499 358.481H1050.53V387.515H875.942V382.088ZM1336.6 387.263C1336.46 387.125 1336.35 339.274 1336.35 280.93V174.845H1370.66V196.716C1370.66 208.746 1370.81 218.586 1370.99 218.586C1371.16 218.586 1372 216.618 1372.84 214.21C1376.7 203.184 1383.39 192.88 1392.01 184.689C1399.77 177.314 1408.64 172.901 1419.11 171.211C1422.06 170.741 1424.54 170.647 1430.43 170.802C1437.81 170.993 1441.68 171.534 1446.17 173.001L1447.58 173.465V209.082L1443.53 207.053C1436.37 203.47 1429.3 202.049 1420.81 202.492C1415.28 202.778 1411.65 203.49 1407.23 205.146C1398.26 208.461 1390.66 214.675 1385.62 222.804C1378.15 234.707 1372.83 250.005 1371.27 264.067C1370.98 266.589 1370.82 287.14 1370.75 327.653L1370.65 387.515H1353.75C1344.45 387.515 1336.74 387.401 1336.6 387.263Z" fill="#444444"></path>
<defs>
<linearGradient id="paint0_linear_1422_7621" x1="225.908" y1="35.7492" x2="68.5649" y2="500.579" gradientUnits="userSpaceOnUse">
<stop stop-color="#114A8B"></stop>
<stop offset="1" stop-color="#0669BC"></stop>
</linearGradient>
<linearGradient id="paint1_linear_1422_7621" x1="275.059" y1="252.37" x2="238.661" y2="264.677" gradientUnits="userSpaceOnUse">
<stop stop-opacity="0.3"></stop>
<stop offset="0.071" stop-opacity="0.2"></stop>
<stop offset="0.321" stop-opacity="0.1"></stop>
<stop offset="0.623" stop-opacity="0.05"></stop>
<stop offset="1" stop-opacity="0"></stop>
</linearGradient>
<linearGradient id="paint2_linear_1422_7621" x1="255.042" y1="22.1889" x2="427.754" y2="482.338" gradientUnits="userSpaceOnUse">
<stop stop-color="#3CCBF4"></stop>
<stop offset="1" stop-color="#2892DF"></stop>
</linearGradient>
</defs>
</svg>