<svg width="1778" height="512" viewBox="0 0 1778 512" fill="none" xmlns="http://www.w3.org/2000/svg">
<path d="M305.804 484.659C357.769 475.496 409.728 466.3 461.681 457.072L463.146 456.76L382.965 361.389C338.868 308.936 302.788 265.816 302.788 265.571C302.788 265.101 385.578 37.1098 386.045 36.297C386.199 36.0283 442.541 133.3 522.621 272.096C597.593 402.036 659.402 509.172 659.976 510.176L661.021 512L406.209 511.966L151.394 511.933L305.804 484.659ZM1282.99 461.592C1244.2 459.107 1221.64 437.022 1215.66 395.679C1214.07 384.683 1214.06 384.394 1213.9 313.003L1213.74 243.902H1248.08L1248.21 310.736C1248.33 370.977 1248.41 378.04 1248.98 382.275C1251.32 399.474 1255.98 411.04 1263.9 419.339C1270.24 425.982 1277.66 429.875 1287.93 431.937C1292.78 432.911 1306.57 432.911 1310.99 431.94C1321.4 429.65 1329.75 425.116 1337.12 417.754C1345.51 409.365 1351.72 397.459 1354.73 384.001L1355.74 379.461L1355.85 312.059L1355.96 244.658H1391.02V456.572H1356.33V439.762C1356.33 428.34 1356.2 422.99 1355.94 423.081C1355.72 423.151 1354.83 424.515 1353.95 426.11C1347.98 437.008 1338.02 446.98 1327.11 452.985C1314.03 460.182 1300.91 462.741 1282.99 461.592ZM1676.68 461.425C1662.99 460.394 1648.57 455.685 1636.79 448.394C1611.95 433.035 1597.26 407.712 1592.95 372.861C1591.47 360.804 1591.29 344.603 1592.53 334.356C1595.31 311.461 1604.3 288.983 1617.12 272.936C1620.4 268.825 1627.85 261.373 1631.96 258.092C1643.04 249.235 1656.01 243.045 1669.86 239.999C1677.9 238.243 1692.05 237.417 1700.59 238.209C1722.04 240.198 1741.71 250.297 1755.07 266.192C1768.64 282.347 1776.11 304.916 1777.06 332.704C1777.21 337.06 1777.24 344.694 1777.14 349.671L1776.95 358.722L1701.82 358.816L1626.69 358.91V362.265C1626.69 372.472 1629.17 384.095 1633.46 393.986C1637.16 402.517 1643.52 411.83 1648.74 416.337C1659.43 425.579 1672.51 431.111 1686.83 432.441C1692.13 432.935 1705.67 432.414 1711.71 431.484C1728.98 428.83 1745.38 422.063 1758.63 412.129C1759.72 411.299 1760.83 410.49 1761.95 409.7C1762.34 409.459 1762.43 412.512 1762.42 425.351L1762.41 441.301L1758.86 443.497C1743.86 452.766 1726.69 458.721 1708.51 460.948C1703.08 461.613 1683.17 461.915 1676.68 461.425ZM1742.07 326.9C1742.07 309.802 1734.86 290.81 1724.67 281.03C1717.39 274.051 1708.6 269.786 1698.14 268.167C1693.19 267.401 1682.77 267.697 1677.55 268.748C1666.53 270.978 1657.41 275.824 1649.45 283.683C1641.08 291.955 1634.8 302.004 1630.86 313.45C1629.44 317.567 1627.78 324.324 1627.26 328.086L1627.02 329.876H1742.07L1742.07 326.9ZM722.925 456.101C723.012 455.839 748.526 388.817 779.619 307.159L836.156 158.687H872.485L873.993 162.549C878.597 174.361 987.174 456.249 987.174 456.397C987.174 456.491 978.475 456.572 967.849 456.568L948.524 456.565L932.874 414.903L917.223 373.237H791.213L790.662 374.651C790.36 375.43 783.676 394.178 775.804 416.31L761.497 456.558L742.128 456.565C726.8 456.568 722.797 456.474 722.925 456.101ZM905.727 341.443C905.727 341.375 895.195 312.828 882.322 278.001C858.242 212.846 856.898 208.927 854.994 198.465C854.104 193.562 853.65 193.427 853.12 197.901C852.744 201.098 851.105 208.258 849.835 212.228C849.207 214.2 838.366 243.959 825.741 278.367C813.113 312.771 802.786 341.063 802.786 341.241C802.786 341.419 825.946 341.563 854.255 341.563C882.564 341.563 905.727 341.506 905.727 341.443ZM998.861 451.144V445.72L1061.64 359.424L1124.41 273.128L1067.58 272.936L1010.74 272.748L1010.64 258.327L1010.54 243.902H1174.95V253.645L1112.17 340.411C1077.64 388.136 1049.39 427.262 1049.39 427.359C1049.39 427.457 1077.3 427.537 1111.42 427.537H1173.45V456.572H998.861V451.144ZM1459.52 456.32C1459.38 456.182 1459.27 408.33 1459.27 349.987V243.902H1493.58V265.772C1493.58 277.803 1493.72 287.643 1493.91 287.643C1494.08 287.643 1494.92 285.675 1495.76 283.267C1499.62 272.241 1506.31 261.937 1514.93 253.746C1522.69 246.37 1531.56 241.957 1542.03 240.268C1544.98 239.798 1547.46 239.704 1553.34 239.858C1560.73 240.05 1564.6 240.591 1569.09 242.058L1570.5 242.522V278.138L1566.45 276.11C1559.29 272.526 1552.22 271.106 1543.73 271.549C1538.2 271.835 1534.57 272.547 1530.15 274.202C1521.18 277.517 1513.57 283.732 1508.54 291.861C1501.07 303.764 1495.75 319.062 1494.18 333.124C1493.9 335.646 1493.74 356.196 1493.67 396.71L1493.57 456.572H1476.67C1467.37 456.572 1459.66 456.457 1459.52 456.32ZM0 455.574C0 455.44 37.7796 389.859 83.9555 309.836L167.911 164.339L265.75 82.2344C319.56 37.0762 363.734 0.0690101 363.912 0.00184031C364.087 -0.0653295 363.382 1.71467 362.337 3.95814C361.296 6.20497 313.488 108.746 256.098 231.832L151.75 455.624L75.875 455.722C34.1458 455.776 0 455.708 0 455.574Z" fill="#0089D6"></path>
</svg>